<?xml version="1.0" encoding="utf-8"?>
<!-- Generator: Adobe Illustrator 22.1.0, SVG Export Plug-In . SVG Version: 6.00 Build 0)  -->
<svg version="1.1" id="Layer_1" xmlns="http://www.w3.org/2000/svg" xmlns:xlink="http://www.w3.org/1999/xlink" x="0px" y="0px"
	 viewBox="0 0 110.4 14" style="enable-background:new 0 0 110.4 14;" xml:space="preserve">
<style type="text/css">
	.st0{fill:#302E3C;}
	.st1{fill:#ED314B;}
	.st2{fill:#3158A6;}
	.st3{fill:#0B9A6B;}
</style>
<g>
	<g>
		<path class="st0" d="M17.2,4.7h1.1V3.8c0-0.8,0.2-1.4,0.7-1.8c0.4-0.4,1-0.6,1.6-0.6c0.4,0,0.9,0.1,1.6,0.2l-0.4,1.4
			c-0.3-0.1-0.6-0.2-0.8-0.2c-0.2,0-0.4,0.1-0.6,0.2c-0.2,0.1-0.3,0.4-0.3,0.7v0.9h1.4V6h-1.4v6.3h-1.8V6h-1.1V4.7z"/>
		<path class="st0" d="M25.6,7.9c0.6,0,1.3,0.1,2.1,0.3V7.4c0-0.5-0.1-0.9-0.3-1.2c-0.2-0.3-0.6-0.4-1-0.4c-0.5,0-0.9,0.1-1.1,0.3
			c-0.3,0.2-0.4,0.5-0.4,0.8h-2c0-0.9,0.3-1.5,0.9-1.9c0.6-0.4,1.5-0.6,2.5-0.6c1.6,0,2.6,0.5,3,1.6c0.2,0.4,0.2,0.8,0.2,1.3v4.8
			h-1.6l-0.1-1c-0.5,0.8-1.2,1.2-2.2,1.2c-1,0-1.7-0.2-2.3-0.7c-0.5-0.5-0.7-1-0.7-1.7s0.3-1.2,0.8-1.6C23.8,8.1,24.6,7.9,25.6,7.9z
			 M27.6,9.3c-0.6-0.2-1.2-0.2-1.7-0.2c-1,0-1.5,0.3-1.5,1c0,0.3,0.1,0.5,0.3,0.7c0.2,0.2,0.6,0.3,1.1,0.3c0.5,0,0.9-0.2,1.2-0.5
			C27.4,10.3,27.6,9.8,27.6,9.3z"/>
		<path class="st0" d="M37.8,5.6c0.6,0.7,1,1.7,1,2.9c0,1.2-0.3,2.2-1,2.9c-0.7,0.7-1.5,1.1-2.4,1.1c-0.5,0-0.9-0.1-1.3-0.4
			c-0.4-0.2-0.7-0.6-0.9-1.1l-0.5,1.3h-1.2V1.6h1.8v4.1c0.5-0.8,1.2-1.1,2.1-1.1S37.2,4.9,37.8,5.6z M33.3,8v1c0,0.5,0.2,1,0.6,1.3
			c0.3,0.3,0.8,0.5,1.3,0.5c0.5,0,0.9-0.2,1.3-0.6c0.4-0.4,0.5-1,0.5-1.7s-0.2-1.3-0.5-1.7c-0.3-0.4-0.8-0.6-1.3-0.6
			s-0.9,0.2-1.3,0.5C33.5,7,33.3,7.5,33.3,8z"/>
		<path class="st0" d="M44.1,2.7c-0.3-0.1-0.6-0.2-0.8-0.2c-0.4,0-0.6,0.1-0.9,0.3c-0.2,0.2-0.3,0.5-0.3,0.9v1.1h1.5v0.8h-1.5v6.6
			h-1.2V5.7h-1.2V4.9h1.2V3.7c0-0.7,0.2-1.3,0.6-1.6c0.4-0.3,0.9-0.5,1.4-0.5c0.5,0,1,0.1,1.4,0.2L44.1,2.7z"/>
		<path class="st0" d="M47.8,4.7c1,0,1.9,0.3,2.5,1s1,1.6,1,2.9c0,1.2-0.3,2.2-1,2.9c-0.6,0.7-1.5,1-2.5,1s-1.9-0.3-2.5-1
			c-0.6-0.7-1-1.6-1-2.9c0-1.3,0.3-2.2,1-2.9S46.8,4.7,47.8,4.7z M50,8.6c0-0.9-0.2-1.6-0.6-2.1c-0.4-0.5-0.9-0.8-1.6-0.8
			S46.5,6,46.2,6.5c-0.4,0.5-0.6,1.2-0.6,2.1c0,0.9,0.2,1.6,0.5,2.1c0.4,0.5,0.9,0.8,1.6,0.8c0.7,0,1.3-0.3,1.7-0.8
			C49.8,10.1,50,9.4,50,8.6z"/>
		<path class="st0" d="M58,10.8c-0.5,1.1-1.3,1.6-2.5,1.6c-0.8,0-1.5-0.2-2-0.7c-0.5-0.5-0.8-1.2-0.8-2.2V4.8h1.2v4.6
			c0,1.3,0.6,1.9,1.7,1.9c0.7,0,1.2-0.3,1.6-0.8c0.4-0.5,0.6-1.2,0.7-2V4.8h1.2v7.4H58V10.8z"/>
		<path class="st0" d="M62.9,6.3c0.5-1.1,1.3-1.6,2.5-1.6c0.9,0,1.6,0.3,2.1,0.9c0.5,0.6,0.7,1.4,0.7,2.4v4.4h-1.2V7.9
			c0-0.7-0.2-1.3-0.5-1.6c-0.3-0.4-0.8-0.5-1.4-0.5S63.9,6,63.5,6.5c-0.4,0.5-0.6,1.2-0.6,2.1v3.6h-1.2V4.9h1.1L62.9,6.3z"/>
		<path class="st0" d="M75.2,6V1.7h1.2v10.6h-1L75.3,11c-0.2,0.5-0.6,0.8-0.9,1.1c-0.4,0.2-0.8,0.4-1.3,0.4c-0.9,0-1.7-0.4-2.4-1.1
			c-0.6-0.7-1-1.7-1-2.8s0.3-2.1,0.9-2.8C71.3,5,72.1,4.7,73,4.7C74,4.7,74.7,5.1,75.2,6z M73.1,5.8c-0.6,0-1.1,0.3-1.5,0.8
			C71.2,7,71,7.7,71,8.6s0.2,1.5,0.6,2c0.4,0.5,0.9,0.8,1.5,0.8c0.6,0,1.1-0.2,1.5-0.6c0.4-0.4,0.6-0.9,0.6-1.6V8
			c0-0.7-0.2-1.2-0.6-1.6C74.2,6,73.7,5.8,73.1,5.8z"/>
		<path class="st0" d="M83.5,7.5c0-0.7-0.1-1.2-0.4-1.4c-0.3-0.3-0.7-0.4-1.2-0.4c-0.5,0-1,0.1-1.3,0.3c-0.3,0.2-0.5,0.5-0.5,1h-1.4
			c0-1.1,0.6-1.8,1.8-2.1c0.4-0.1,0.8-0.1,1.2-0.1c0.9,0,1.6,0.2,2.2,0.7c0.5,0.5,0.8,1.2,0.8,2.1v4.8h-1.1L83.6,11
			c-0.5,0.9-1.3,1.4-2.5,1.4c-0.8,0-1.4-0.2-1.9-0.7c-0.5-0.4-0.7-1-0.7-1.7c0-0.7,0.3-1.2,0.8-1.6c0.5-0.4,1.2-0.6,2-0.6
			s1.6,0.1,2.3,0.4V7.5z M83.5,9.2c-0.7-0.2-1.4-0.3-1.9-0.3s-1,0.1-1.3,0.3c-0.3,0.2-0.5,0.5-0.5,0.9c0,0.9,0.5,1.4,1.6,1.4
			c0.6,0,1.1-0.2,1.5-0.6C83.3,10.4,83.5,9.9,83.5,9.2z"/>
		<path class="st0" d="M90.8,12.1c-0.9,0.4-1.7,0.5-2.4,0.3c-0.5-0.2-0.9-0.5-1.1-1c-0.1-0.3-0.2-0.6-0.2-0.9V5.8h-1.2V4.9h1.2V2.8
			h1.2v2.1h2.3v0.9h-2.3v4.6c0,0.8,0.4,1.1,1.1,1.1c0.4,0,0.8-0.1,1.3-0.3L90.8,12.1z"/>
		<path class="st0" d="M92.8,3.1c-0.2,0-0.4-0.1-0.6-0.2C92.1,2.8,92,2.6,92,2.3c0-0.2,0.1-0.4,0.2-0.6c0.1-0.1,0.3-0.2,0.6-0.2
			c0.2,0,0.4,0.1,0.6,0.2c0.1,0.1,0.2,0.3,0.2,0.6c0,0.2-0.1,0.4-0.2,0.6C93.3,3,93.1,3.1,92.8,3.1z M92.2,4.8h1.2v7.4h-1.2V4.8z"/>
		<path class="st0" d="M98.8,4.7c1,0,1.9,0.3,2.5,1s1,1.6,1,2.9c0,1.2-0.3,2.2-1,2.9c-0.6,0.7-1.5,1-2.5,1s-1.9-0.3-2.5-1
			c-0.6-0.7-1-1.6-1-2.9c0-1.3,0.3-2.2,1-2.9S97.7,4.7,98.8,4.7z M101,8.6c0-0.9-0.2-1.6-0.6-2.1c-0.4-0.5-0.9-0.8-1.6-0.8
			c-0.7,0-1.3,0.3-1.7,0.8c-0.4,0.5-0.6,1.2-0.6,2.1c0,0.9,0.2,1.6,0.5,2.1c0.4,0.5,0.9,0.8,1.6,0.8c0.7,0,1.3-0.3,1.7-0.8
			C100.8,10.1,101,9.4,101,8.6z"/>
		<path class="st0" d="M105.1,6.3c0.5-1.1,1.3-1.6,2.5-1.6c0.9,0,1.6,0.3,2.1,0.9c0.5,0.6,0.7,1.4,0.7,2.4v4.4h-1.2V7.9
			c0-0.7-0.2-1.3-0.5-1.6c-0.3-0.4-0.8-0.5-1.4-0.5s-1.1,0.3-1.5,0.8c-0.4,0.5-0.6,1.2-0.6,2.1v3.6h-1.2V4.9h1.1L105.1,6.3z"/>
	</g>
	<g>
		<path class="st1" d="M6.7,14v-0.6c0,0,0-0.1-0.1-0.1l-1.2-0.7c0,0-0.1-0.1-0.1-0.1v-1.6c0.1,0,0.1,0,0.2-0.1
			c0.8-0.5,0.9-1.8,0.2-3C5,6.6,3.8,6,3,6.4c-0.8,0.5-0.9,1.8-0.2,3C2.9,9.6,3,9.8,3.1,9.9c0,0,0,0.1,0,0.1v1c0,0.1-0.1,0.2-0.2,0.1
			l-1.5-0.9c0,0-0.1-0.1-0.1-0.1v-6c0,0,0-0.1-0.1-0.1L0.9,3.8c-0.1,0-0.2,0-0.2,0.1C0.3,4.8,0,5.9,0,7C0,10.8,3,13.8,6.7,14"/>
		<path class="st2" d="M3,2.8c0,0,0.1,0,0.1,0l1.4,0.8c0,0.1,0,0.1,0,0.2c0,0.9,1.1,1.7,2.5,1.7c1.4,0,2.5-0.7,2.5-1.7
			c0-0.9-1.1-1.7-2.5-1.7c-0.2,0-0.4,0-0.6,0c0,0-0.1,0-0.1,0L5.5,1.6c-0.1-0.1-0.1-0.2,0-0.2L7,0.6c0,0,0.1,0,0.1,0l5.2,3
			c0,0,0.1,0,0.1,0l0.4-0.2c0.1,0,0.1-0.1,0-0.2c-0.6-0.9-1.4-1.6-2.3-2.2C7.3-0.9,3.2,0.1,1.2,3.1c0,0.1,0,0.2,0,0.2l0.4,0.2
			c0,0,0.1,0,0.1,0L3,2.8z"/>
		<path class="st3" d="M12.6,5.6c0,0,0,0.1-0.1,0.1l-1.4,0.8c0,0-0.1-0.1-0.1-0.1C10.2,6,9,6.6,8.3,7.7c-0.7,1.2-0.6,2.5,0.2,3
			c0.8,0.5,2-0.1,2.7-1.3c0.1-0.2,0.2-0.3,0.2-0.5c0,0,0-0.1,0.1-0.1l0.9-0.5c0.1-0.1,0.2,0,0.2,0.1l0,1.7c0,0,0,0.1-0.1,0.1l-5.2,3
			c0,0-0.1,0.1-0.1,0.1v0.4c0,0.1,0.1,0.1,0.1,0.1c1-0.1,2.1-0.4,3-0.9c3.2-1.9,4.4-5.9,2.8-9.2c0-0.1-0.1-0.1-0.2-0.1l-0.4,0.2
			c0,0-0.1,0.1-0.1,0.1L12.6,5.6z"/>
	</g>
</g>
</svg>
