<?xml version="1.0" encoding="utf-8"?>
<!-- Generator: Adobe Illustrator 22.1.0, SVG Export Plug-In . SVG Version: 6.00 Build 0)  -->
<svg version="1.1" id="Layer_1" xmlns="http://www.w3.org/2000/svg" xmlns:xlink="http://www.w3.org/1999/xlink" x="0px" y="0px"
	 viewBox="0 0 1830 629.5" style="enable-background:new 0 0 1830 629.5;" xml:space="preserve">
<style type="text/css">
	.st0{fill:#F0434F;}
	.st1{fill:#FFFFFF;}
	.st2{fill:#ED909F;}
	.st3{fill:#DC2140;}
	.st4{fill:#0071B2;}
	.st5{fill:#046FB0;}
</style>
<rect y="-0.5" class="st0" width="1830" height="630"/>
<g>
	<g>
		<path class="st1" d="M1437.1,294.8v4.2h-9.4v9.4h-5.5v-23.6h16.5v4.2h-11.1v5.7L1437.1,294.8L1437.1,294.8z"/>
		<path class="st1" d="M1445.1,308.8c-1.6,0-3-0.5-4.1-1.5s-1.5-2.2-1.5-3.8c0-1.8,0.7-3.1,1.9-4.1c1.2-1,3.3-1.4,5.9-1.4h2v-1.2
			c0-1.5-0.7-2.3-2.2-2.3c-1.2,0-1.9,0.5-1.9,1.8h-5.3v-0.1c-0.1-1.6,0.5-3,2-4.1c1.4-1.1,3.3-1.6,5.5-1.6c2.3,0,4.1,0.5,5.3,1.6
			c1.4,1.1,1.9,2.6,1.9,4.6v6.6c0,1.8,0.3,3.4,1,5h-5.5c-0.3-0.7-0.5-1.2-0.7-2C1448.5,308.2,1447,308.8,1445.1,308.8z
			 M1445.5,301.6c-0.4,0.4-0.7,1-0.7,1.5s0.1,1.1,0.5,1.4c0.3,0.3,0.8,0.4,1.4,0.4c1.1,0,1.9-0.4,2.6-1.2V301h-1.9
			C1446.6,301.1,1446,301.3,1445.5,301.6z"/>
		<path class="st1" d="M1467.4,308.8c-1.9,0-3.3-0.8-4.4-2.5l-0.4,2h-4.8v-25.2h5.5v9.4c1-1.4,2.3-2,4-2c2.2,0,4,0.8,5,2.5
			c1.1,1.6,1.8,3.8,1.8,6.7v0.4c0,2.7-0.5,4.9-1.8,6.4C1471.2,308.2,1469.6,308.8,1467.4,308.8z M1468.7,300.1v-0.4
			c0-1.6-0.1-2.9-0.5-3.7c-0.4-0.8-1.1-1.2-2.2-1.2c-1.2,0-2,0.4-2.6,1.2v7.4c0.5,0.7,1.4,1.1,2.5,1.1s1.9-0.4,2.3-1.1
			C1468.6,302.7,1468.7,301.7,1468.7,300.1z"/>
		<path class="st1" d="M1482,308.6h-5.5v-17.5h5.2l0.1,2.6c0.8-1.9,2-2.9,3.5-2.9c0.5,0,1.1,0,1.5,0.1l-0.5,4.9h-1.9
			c-1.2,0-2,0.4-2.5,1.2L1482,308.6L1482,308.6z"/>
		<path class="st1" d="M1494.5,283.2v3.7h-5.5v-3.7H1494.5z M1494.5,291v17.5h-5.5V291H1494.5z"/>
		<path class="st1" d="M1502.6,300c0,1.5,0.3,2.7,0.7,3.5c0.4,0.8,1.2,1.2,2.2,1.2c1.5,0,2.2-0.8,2.2-2.3h5v0.1
			c0,1.9-0.7,3.4-1.9,4.6c-1.4,1.2-3.1,1.8-5.2,1.8c-2.6,0-4.6-0.8-6.1-2.5c-1.5-1.6-2.2-3.8-2.2-6.4v-0.4c0-2.7,0.7-4.8,2.2-6.4
			s3.4-2.5,6.1-2.5c2.2,0,4,0.7,5.3,1.9c1.4,1.2,1.9,2.9,1.9,5v0.1h-5c0-0.8-0.1-1.5-0.5-2s-1-0.8-1.6-0.8c-1,0-1.8,0.4-2.2,1.2
			c-0.4,0.8-0.7,1.9-0.7,3.5v0.1h-0.2V300z"/>
		<path class="st1" d="M1519.6,308.8c-1.6,0-3-0.5-4.1-1.5s-1.5-2.2-1.5-3.8c0-1.8,0.7-3.1,1.9-4.1c1.2-1,3.3-1.4,5.9-1.4h2v-1.2
			c0-1.5-0.7-2.3-2.2-2.3c-1.2,0-1.9,0.5-1.9,1.8h-5.3v-0.1c-0.1-1.6,0.5-3,2-4.1c1.4-1.1,3.3-1.6,5.5-1.6c2.3,0,4.1,0.5,5.3,1.6
			c1.4,1.1,1.9,2.6,1.9,4.6v6.6c0,1.8,0.3,3.4,1,5h-5.5c-0.3-0.7-0.5-1.2-0.7-2C1523.1,308.2,1521.6,308.8,1519.6,308.8z
			 M1520,301.6c-0.4,0.4-0.7,1-0.7,1.5s0.1,1.1,0.5,1.4c0.3,0.3,0.8,0.4,1.4,0.4c1.1,0,1.9-0.4,2.6-1.2V301h-1.9
			C1521.1,301.1,1520.5,301.3,1520,301.6z"/>
		<path class="st1" d="M1533.4,286.6h5.5v4.4h3v3.8h-3v8.1c0,1.2,0.4,1.8,1.4,1.8c0.5,0,1.1,0,1.6-0.1l0.4,4.1
			c-1.1,0.3-2.2,0.4-3.4,0.4c-1.8,0-3.3-0.5-4.1-1.5c-0.8-1-1.4-2.5-1.4-4.5V295h-2.5v-3.8h2.5V286.6z"/>
		<path class="st1" d="M1550.2,283.2v3.7h-5.5v-3.7H1550.2z M1550.2,291v17.5h-5.5V291H1550.2z"/>
		<path class="st1" d="M1553.5,291h5.2l0.3,2.5c1.2-1.9,2.9-2.7,4.9-2.7c3.7,0,5.5,2.3,5.5,7v10.9h-5.5v-10.9c0-1-0.1-1.6-0.5-2
			s-1.1-0.7-1.9-0.7c-1,0-1.6,0.4-2.3,1.1v12.6h-5.5v-17.6h-0.2V291z"/>
		<path class="st1" d="M1578.2,291.5c1.8,0,3.1,0.8,4.2,2.5l0.4-2.2h4.8v16.8c0,2.3-0.8,4.2-2.5,5.6c-1.6,1.4-3.8,2-6.6,2
			c-1.9,0-3.8-0.4-5.7-1.4l0.8-4.1c1.6,0.7,3.1,1,4.8,1c1.1,0,1.9-0.3,2.6-1c0.5-0.5,1-1.4,1-2.5v-0.7c-1,1.2-2.3,1.9-4,1.9
			c-2.2,0-3.8-0.8-5-2.3c-1.2-1.6-1.8-3.7-1.8-6.4v-0.3c0-2.7,0.5-5,1.8-6.7C1574.4,292.3,1576.1,291.5,1578.2,291.5z M1576.8,300.5
			v0.3c0,3,1,4.5,2.7,4.5c1.2,0,2-0.4,2.6-1.1v-7.4c-0.5-0.8-1.4-1.2-2.6-1.2C1577.8,295.6,1576.8,297.2,1576.8,300.5z"/>
		<path class="st1" d="M1427.7,345.3h-5.5v-23.6h9c2.7,0,4.9,0.7,6.6,1.9c1.6,1.2,2.3,3,2.3,5.2c0,2.5-1.2,4.2-3.8,5.3
			c1.4,0.4,2.5,1.1,3.1,2c0.7,1,1,2.2,1,3.5v1.5c0,0.7,0.1,1.5,0.3,2.2c0.1,0.7,0.5,1.2,1,1.6v0.3h-5.6c-0.7-0.5-1.1-1.9-1.1-4.1
			v-1.5c0-1.1-0.3-2-1-2.6c-0.5-0.5-1.5-0.8-2.6-0.8h-3.8v9h0.1V345.3z M1427.7,326v6.1h3.5c1.1,0,1.9-0.3,2.6-0.7
			c0.5-0.5,0.8-1.2,0.8-2.2s-0.3-1.8-1-2.3s-1.5-0.8-2.5-0.8h-3.5L1427.7,326L1427.7,326z"/>
		<path class="st1" d="M1443.2,337.2v-0.7c0-2.7,0.7-4.9,2.2-6.6c1.5-1.6,3.4-2.5,6-2.5c2.3,0,4.2,0.7,5.6,2.2c1.4,1.4,2,3.4,2,5.9
			v2.9h-10v0.1c0.1,1,0.5,1.6,1.1,2.2c0.5,0.5,1.5,0.8,2.5,0.8s1.8-0.1,2.5-0.3c0.5-0.1,1.4-0.4,2.5-0.8l1.2,3.3
			c-0.8,0.5-1.8,1.1-3,1.4c-1.2,0.4-2.5,0.5-3.8,0.5c-2.6,0-4.6-0.8-6.1-2.5C1444,341.7,1443.2,339.7,1443.2,337.2z M1453.6,334.5
			c0-1.8-0.8-2.7-2.3-2.7s-2.3,1.1-2.5,3.1v0.1h4.6v-0.5H1453.6z"/>
		<path class="st1" d="M1468.2,342.1L1468.2,342.1c1.5,0,2.2-0.5,2.2-1.6c0-0.4-0.3-0.8-0.8-1.2c-0.5-0.3-1.4-0.7-2.6-1
			c-2-0.4-3.7-1.1-4.6-1.9c-1-0.8-1.5-2-1.5-3.5s0.7-2.9,1.9-3.8c1.4-1.1,3.1-1.6,5.3-1.6s4.1,0.5,5.5,1.5c1.4,1.1,2,2.5,1.9,4.1
			v0.1h-5.3c0-0.7-0.1-1.2-0.5-1.6s-0.8-0.5-1.5-0.5s-1.2,0.1-1.6,0.4s-0.5,0.7-0.5,1.2s0.3,1,0.7,1.2c0.4,0.3,1.4,0.5,2.7,0.8
			c2.2,0.4,3.8,1.1,4.8,1.9s1.5,2,1.5,3.5s-0.7,2.9-2,3.8s-3.3,1.5-5.6,1.5c-2.3,0-4.2-0.5-5.6-1.8c-1.4-1.2-2-2.6-2-4.1v-0.1h4.9
			C1465.5,341.3,1466.4,342.1,1468.2,342.1z"/>
		<path class="st1" d="M1484,320v3.7h-5.5V320H1484z M1484,327.8v17.5h-5.5v-17.5H1484z"/>
		<path class="st1" d="M1493,320v25.2h-5.5V320H1493z"/>
		<path class="st1" d="M1502.2,320v3.7h-5.5V320H1502.2z M1502.2,327.8v17.5h-5.5v-17.5H1502.2z"/>
		<path class="st1" d="M1505,337.2v-0.7c0-2.7,0.7-4.9,2.2-6.6c1.5-1.6,3.4-2.5,6-2.5c2.3,0,4.2,0.7,5.6,2.2c1.4,1.4,2,3.4,2,5.9
			v2.9h-10v0.1c0.1,1,0.5,1.6,1.1,2.2c0.5,0.5,1.5,0.8,2.5,0.8s1.8-0.1,2.5-0.3c0.5-0.1,1.4-0.4,2.5-0.8l1.2,3.3
			c-0.8,0.5-1.8,1.1-3,1.4c-1.2,0.4-2.5,0.5-3.8,0.5c-2.6,0-4.6-0.8-6.1-2.5C1505.9,341.7,1505,339.7,1505,337.2z M1515.4,334.5
			c0-1.8-0.8-2.7-2.3-2.7s-2.3,1.1-2.5,3.1v0.1h4.6v-0.5H1515.4z"/>
		<path class="st1" d="M1522.9,327.8h5.2l0.3,2.5c1.2-1.9,2.9-2.7,4.9-2.7c3.7,0,5.5,2.3,5.5,7v10.9h-5.5v-11c0-1-0.1-1.6-0.5-2
			s-1.1-0.7-1.9-0.7c-1,0-1.6,0.4-2.3,1.1v12.6h-5.5v-17.6h-0.2V327.8z"/>
		<path class="st1" d="M1546.4,336.8c0,1.5,0.3,2.7,0.7,3.5c0.4,0.8,1.2,1.2,2.2,1.2c1.5,0,2.2-0.8,2.2-2.3h5v0.1
			c0,1.9-0.7,3.4-1.9,4.6c-1.4,1.2-3.1,1.8-5.2,1.8c-2.6,0-4.6-0.8-6.1-2.5c-1.5-1.6-2.2-3.8-2.2-6.4v-0.3c0-2.7,0.7-4.8,2.2-6.4
			s3.4-2.5,6.1-2.5c2.2,0,4,0.7,5.3,1.9c1.4,1.2,1.9,2.9,1.9,5v0.1h-5c0-0.8-0.1-1.5-0.5-2s-1-0.8-1.6-0.8c-1,0-1.8,0.4-2.2,1.2
			c-0.4,0.8-0.7,1.9-0.7,3.5v0.1h-0.2V336.8z"/>
		<path class="st1" d="M1558.1,337.2v-0.7c0-2.7,0.7-4.9,2.2-6.6c1.5-1.6,3.4-2.5,6-2.5c2.3,0,4.2,0.7,5.6,2.2c1.4,1.4,2,3.4,2,5.9
			v2.9h-10v0.1c0.1,1,0.5,1.6,1.1,2.2c0.5,0.5,1.5,0.8,2.5,0.8s1.8-0.1,2.5-0.3c0.5-0.1,1.4-0.4,2.5-0.8l1.2,3.3
			c-0.8,0.5-1.8,1.1-3,1.4c-1.2,0.4-2.5,0.5-3.8,0.5c-2.6,0-4.6-0.8-6.1-2.5C1558.9,341.7,1558.1,339.7,1558.1,337.2z M1568.5,334.5
			c0-1.8-0.8-2.7-2.3-2.7s-2.3,1.1-2.5,3.1v0.1h4.6v-0.5H1568.5z"/>
	</g>
	<g>
		<g>
			<path class="st1" d="M1101.3,303v16.2c0,2.3-0.7,4.2-2.3,5.6c-1.6,1.4-3.5,2.1-6.2,2.1c-2.5,0-4.6-0.7-6-1.9s-2.1-3-2.1-5.5v-0.2
				h5.3c0,1.1,0.2,1.9,0.7,2.5s1.2,0.7,1.9,0.7c0.9,0,1.6-0.4,2.1-0.9c0.5-0.7,0.7-1.4,0.7-2.6v-16.2h5.8L1101.3,303L1101.3,303z"/>
			<path class="st1" d="M1110.5,327.2c-1.9,0-3.4-0.5-4.4-1.8s-1.6-3-1.6-5.5v-10.8h5.5v10.8c0,1.9,0.7,3,2.1,3
				c1.2,0,2.1-0.4,2.6-1.1v-12.7h5.5v17.6h-4.8l-0.4-2.1C1114.2,326.3,1112.6,327.2,1110.5,327.2z"/>
			<path class="st1" d="M1129.2,301.4v25.4h-5.5v-25.4H1129.2z"/>
			<path class="st1" d="M1139.4,319.9L1139.4,319.9l3-10.1h5.8l-7.1,20.3c-0.7,1.8-1.6,3-2.6,3.7c-0.9,0.5-2.1,0.9-3.5,0.9h-0.4
				c-0.2,0-0.2,0-0.4,0c-0.2,0-0.2,0-0.4,0c0,0-0.2,0-0.4,0c-0.2,0-0.4,0-0.4,0s-0.2,0-0.4-0.2c-0.2,0-0.4-0.2-0.5-0.2l0.7-3.9
				c0.4,0,0.5,0.2,0.5,0.2c0.9,0,1.4-0.2,1.9-0.4c0.5-0.2,0.7-0.7,0.9-1.2l0.4-1.1l-6.2-17.8h5.8L1139.4,319.9L1139.4,319.9z"/>
			<path class="st1" d="M1170.8,326.8h-5.5v-18.2h-5.3v-3.9l10.8-1.6V326.8z"/>
			<path class="st1" d="M1190.1,326.8h-5.5v-18.2h-5.3v-3.9l10.8-1.6V326.8z"/>
			<path class="st1" d="M1217.9,313.4v4.2h-9.7v-4.2H1217.9z"/>
			<path class="st1" d="M1247.6,303v16.2c0,2.3-0.7,4.2-2.3,5.6c-1.6,1.4-3.5,2.1-6.2,2.1c-2.5,0-4.6-0.7-6-1.9
				c-1.4-1.2-2.1-3-2.1-5.5v-0.2h5.3c0,1.1,0.2,1.9,0.7,2.5s1.2,0.7,1.9,0.7c0.9,0,1.6-0.4,2.1-0.9c0.5-0.7,0.7-1.4,0.7-2.6v-16.2
				h5.8L1247.6,303L1247.6,303z"/>
			<path class="st1" d="M1256.5,327.2c-1.9,0-3.4-0.5-4.4-1.8s-1.6-3-1.6-5.5v-10.8h5.5v10.8c0,1.9,0.7,3,2.1,3
				c1.2,0,2.1-0.4,2.6-1.1v-12.7h5.5v17.6h-4.8l-0.4-2.1C1260.2,326.3,1258.7,327.2,1256.5,327.2z"/>
			<path class="st1" d="M1275.4,301.4v25.4h-5.5v-25.4H1275.4z"/>
			<path class="st1" d="M1304.7,322.6v4.2h-16.6v-3.5l7.6-7.9c1.9-2.1,2.8-3.9,2.8-5.3c0-0.9-0.2-1.8-0.7-2.3s-1.1-0.9-1.9-0.9
				c-0.9,0-1.6,0.4-1.9,1.1s-0.7,1.6-0.7,2.6h-5.3v-0.2c0-2.3,0.7-4.1,2.1-5.6c1.6-1.6,3.5-2.3,6-2.3s4.6,0.7,6,1.9s2.1,3,2.1,5.3
				c0,1.4-0.4,2.6-1.1,3.7s-2.1,2.8-4.4,5.3l-3.2,3.4v0.2h9.2V322.6z"/>
			<path class="st1" d="M1323.9,322.6v4.2h-16.6v-3.5l7.6-7.9c1.9-2.1,2.8-3.9,2.8-5.3c0-0.9-0.2-1.8-0.7-2.3s-1.1-0.9-1.9-0.9
				s-1.6,0.4-1.9,1.1s-0.7,1.6-0.7,2.6h-5.3v-0.2c0-2.3,0.7-4.1,2.1-5.6c1.6-1.6,3.5-2.3,6-2.3s4.6,0.7,6,1.9s2.1,3,2.1,5.3
				c0,1.4-0.4,2.6-1.1,3.7s-2.1,2.8-4.4,5.3l-3.2,3.4v0.2h9.2V322.6z"/>
		</g>
		<g>
			<path class="st1" d="M1101.3,366v3.2h-15.7v-2.7l7.8-8.5c1.2-1.4,2.1-2.5,2.6-3.4s0.7-1.8,0.7-2.8c0-0.9-0.4-1.8-0.9-2.5
				c-0.7-0.7-1.4-1.1-2.5-1.1c-1.4,0-2.5,0.4-3,1.2c-0.7,0.7-1.1,1.8-1.1,3.2h-3.9v-0.1c0-2.1,0.7-3.9,2.1-5.3s3.4-2.1,5.6-2.1
				c2.3,0,4.2,0.7,5.5,1.9c1.4,1.2,1.9,2.8,1.9,4.9c0,1.2-0.4,2.5-1.1,3.7s-1.9,2.8-3.7,4.6l-5.3,5.6v0.2h10.8v0H1101.3z"/>
			<path class="st1" d="M1120,354.5v5.5c0,3-0.7,5.5-2.1,7.1s-3.4,2.5-5.6,2.5c-2.5,0-4.4-0.9-5.6-2.5s-2.1-4.1-2.1-7.1v-5.5
				c0-3,0.7-5.3,2.1-7.1c1.4-1.6,3.4-2.5,5.6-2.5c2.5,0,4.4,0.9,5.6,2.5C1119.3,349.2,1120,351.5,1120,354.5z M1116.2,360.5V354
				c0-3.9-1.2-5.6-3.9-5.6c-2.5,0-3.9,1.9-3.9,5.6v6.5c0,3.9,1.2,5.8,3.9,5.8C1114.9,366.3,1116.2,364.4,1116.2,360.5z"/>
			<path class="st1" d="M1133.4,369.1h-3.9v-19.9h-4.8v-3l8.8-0.9L1133.4,369.1L1133.4,369.1z"/>
			<path class="st1" d="M1144.9,346.7c1.2-1.2,3-1.8,5.3-1.8s4.1,0.5,5.3,1.8c1.2,1.2,1.9,2.8,1.9,4.8c0,1.2-0.4,2.3-0.9,3.2
				s-1.6,1.6-2.6,2.1c1.4,0.5,2.3,1.2,3.2,2.3c0.7,1.1,1.1,2.1,1.1,3.5c0,2.1-0.7,3.9-2.1,5.1s-3.4,1.8-5.8,1.8s-4.4-0.5-5.8-1.8
				c-1.4-1.2-2.1-2.8-2.1-5.1c0-1.2,0.4-2.5,1.1-3.5c0.7-1.1,1.8-1.8,3.2-2.3c-1.1-0.5-2.1-1.2-2.6-2.1c-0.7-0.9-0.9-1.9-0.9-3.2
				C1143,349.6,1143.7,348,1144.9,346.7z M1146.3,362.4c0,1.2,0.4,2.1,1.1,2.8c0.7,0.7,1.6,1.1,2.8,1.1s2.1-0.4,2.8-1.1
				c0.7-0.7,1.1-1.6,1.1-2.8c0-1.2-0.4-2.1-1.1-2.8c-0.7-0.7-1.8-1.1-2.8-1.1c-1.2,0-2.1,0.4-2.8,1.1
				C1146.7,360.3,1146.3,361.2,1146.3,362.4z M1146.8,351.8c0,1.1,0.4,1.9,0.9,2.6s1.4,0.9,2.5,0.9s1.8-0.4,2.5-1.1
				c0.5-0.7,0.9-1.6,0.9-2.6c0-1.1-0.4-1.9-0.9-2.6s-1.4-1.1-2.5-1.1s-1.8,0.4-2.5,0.9C1147,349.4,1146.8,350.6,1146.8,351.8z"/>
		</g>
		<g>
			<path class="st1" d="M1098.2,267.7v3.4h-7.7v7.8h-4.5v-19.4h13.6v3.4h-9.1v4.7h7.7V267.7z"/>
			<path class="st1" d="M1105.5,278.9h-4.5v-14.4h4.3l0.1,2.1c0.6-1.6,1.6-2.4,2.9-2.4c0.5,0,0.9,0,1.3,0.1l-0.5,4h-1.6
				c-1,0-1.6,0.4-2,1v9.4h0V278.9z"/>
			<path class="st1" d="M1115,279.3c-1.4,0-2.5-0.4-3.3-1.1c-0.8-0.8-1.3-1.9-1.3-3.1c0-1.5,0.5-2.5,1.6-3.3s2.6-1.1,4.9-1.1h1.6v-1
				c0-1.3-0.6-1.9-1.8-1.9c-1,0-1.5,0.5-1.5,1.5h-4.3v-0.1c0-1.4,0.5-2.4,1.6-3.3s2.6-1.3,4.5-1.3s3.3,0.5,4.4,1.4s1.6,2.1,1.6,3.8
				v5.4c0,1.4,0.3,2.8,0.8,4h-4.4c-0.3-0.5-0.5-1-0.6-1.6C1117.8,278.5,1116.5,279.3,1115,279.3z M1115.4,273.4
				c-0.4,0.4-0.5,0.8-0.5,1.3s0.1,0.9,0.4,1.1c0.3,0.3,0.6,0.4,1.1,0.4c0.9,0,1.6-0.4,2.1-1v-2.3h-1.6
				C1116.2,272.9,1115.7,273,1115.4,273.4z"/>
			<path class="st1" d="M1125.3,264.6h4.2l0.1,2c1-1.5,2.4-2.3,4-2.3c3,0,4.5,1.9,4.5,5.7v8.9h-4.5V270c0-0.8-0.1-1.4-0.5-1.8
				s-0.9-0.5-1.6-0.5c-0.8,0-1.4,0.3-1.9,0.9v10.3h-4.5v-14.4L1125.3,264.6L1125.3,264.6z"/>
			<path class="st1" d="M1144.5,272c0,1.3,0.1,2.3,0.5,2.9s1,1,1.8,1c1.1,0,1.8-0.6,1.8-1.9h4.2v0.1c0,1.5-0.5,2.9-1.6,3.8
				s-2.5,1.5-4.3,1.5c-2.1,0-3.8-0.6-5-2c-1.3-1.4-1.8-3.1-1.8-5.3v-0.3c0-2.3,0.6-4,1.8-5.3c1.1-1.3,2.9-2,5-2
				c1.9,0,3.3,0.5,4.4,1.5s1.6,2.4,1.5,4.2v0.1h-4.2c0-0.8-0.1-1.3-0.5-1.6c-0.4-0.4-0.8-0.6-1.4-0.6c-0.9,0-1.4,0.4-1.8,1
				S1144.4,270.7,1144.5,272L1144.5,272L1144.5,272L1144.5,272z"/>
			<path class="st1" d="M1154.2,272.2v-0.5c0-2.3,0.6-4,1.8-5.4c1.1-1.4,2.8-2,4.9-2c1.9,0,3.5,0.6,4.5,1.8s1.6,2.8,1.6,4.8v2.4
				h-8.2v0.1c0.1,0.8,0.4,1.4,0.9,1.9s1.1,0.8,2,0.8s1.5,0,2-0.1s1.1-0.4,2-0.8l1,2.8c-0.6,0.5-1.5,0.9-2.5,1.1
				c-1,0.3-2,0.5-3.1,0.5c-2.1,0-3.8-0.6-5-2C1154.8,276.1,1154.2,274.2,1154.2,272.2z M1162.7,270c0-1.5-0.6-2.3-1.9-2.3
				s-1.9,0.9-2,2.5v0.1h3.9V270z"/>
		</g>
	</g>
	<g>
		<path class="st1" d="M349.3,230.1c0,3.3-0.1,6.7,0.1,9.9c0.1,2.4-0.8,2.9-3,2.9c-10.2-0.1-20.4,0-30.7-0.1c-2.4,0-3,0.6-2.9,3
			c0.1,3.9-0.1,7.8,0.1,11.7c0.3,3.1-1,3.7-3.8,3.7c-10.6-0.1-21.1,0-31.7-0.1c-2.4,0-3.3,0.6-3.3,3.1c0.1,10.7,0.1,21.4,0,32.1
			c0,2.5,0.8,3.1,3.1,3.1c20.4-0.1,40.9,0,61.3-0.1c2.6,0,3.7,0.5,3.7,3.5c-0.3,7.7-0.3,15.5,0,23.2c0.1,3-1,3.4-3.7,3.4
			c-20.3-0.1-40.4,0-60.7-0.1c-3.1,0-3.9,0.8-3.9,3.9c0.1,22,0.1,43.9,0.3,66c-11.2,0-22.4,0-33.5,0c-0.6-1.1-0.4-2.3-0.4-3.5
			c0-54,0-108,0-162c0-1.1-0.3-2.4,0.4-3.5C277.1,230.1,313.2,230.1,349.3,230.1z"/>
		<path class="st1" d="M679.5,399c0-12.3-0.1-24.7-0.1-37c0-31.5,0-62.9,0.1-94.5c0-3.1-0.8-4.2-3.9-3.9c-4.3,0.3-8.6-0.1-12.8,0.1
			c-2.8,0.1-3.3-0.9-3.3-3.4c0.1-10.1,0-20.1,0-30.3c17.9,0,35.6,0,53.5,0c0,1.3-0.1,2.6-0.1,3.9c0,53.8,0,107.5,0,161.3
			c0,1.3,0.1,2.6,0.1,3.9C701.9,399,690.7,399,679.5,399z"/>
		<path class="st1" d="M1006.3,313.4c-15.7,0-31.3,0.1-47.1,0c-3.1,0-4,0.6-4,3.9c0.1,14.6,0,29.2,0.1,43.8c0,2.6-0.4,3.8-3.4,3.7
			c-8.4-0.3-16.9-0.3-25.3,0c-2.8,0.1-3.3-0.8-3.3-3.4c0.1-14.7,0-29.5,0.1-44.2c0-2.9-0.6-4.3-3.7-3.7c-2.9,0.5-3.7-0.8-3.5-3.5
			c0.1-3,1.4-7-0.5-8.9s-5.9-0.5-8.9-0.5c-5-0.1-9.9,0.1-15-0.1c-3-0.1-3.7,1-3.4,3.7c0.3,2.3,0,4.5,0.1,6.8
			c0.1,1.9-0.3,2.8-2.5,2.8c-3.9-0.1-7.8-0.1-11.7,0c-1.6,0-2.3-0.5-2.3-2.3c0.1-9.2,0.1-18.3,0-27.4c0-2.6,1.3-2.5,3.1-2.5
			c14.9,0,29.7-0.1,44.6,0.1c3,0,3.9-0.8,3.7-3.8c-0.3-3.7,0-7.4-0.1-11.1c-0.1-2.1,0.6-2.6,2.6-2.5c3.9,0.1,7.8,0,11.7,0
			c1.3,2.5,3.4,3.4,6.2,3.1c2.6-0.1,5.2-0.1,7.8,0c4.2,0.1,4.9,1,5,5.2c0,0.9,0,1.6,0,2.5c0,4.9,0.3,5.2,5.3,5.2c13,0,25.8,0,38.8,0
			c1.9,0,3.8-0.3,5.4,1.1C1006.3,292,1006.3,302.7,1006.3,313.4z"/>
		<path class="st1" d="M309.4,399c7-20.4,14.2-40.7,21.3-61.1c0.9-2.4,1.9-3.1,4.4-3.1c24.9,0.1,49.9,0,74.8,0.1
			c2,0,4.3,0.5,3.7-2.9c-0.3-1.4,0.9-1.4,1.8-1.4c7.7,0,15.5,0,23.2,0c1.3,0,1.8,0.5,2.3,1.8c2.1,6.4,4.4,12.7,6.7,19.3
			c-1.3,0.8-2.4,0.4-3.5,0.4c-1.6,0-2.6,0-2.6,2.1s1.1,2.4,2.6,2.1c4.3-0.9,5.8,1.4,6.9,5.2c3.8,11.8,8.1,23.5,12.1,35.2
			c0.3,0.8,0.4,1.6,0.5,2.4c-11.7,0-23.3,0-35,0c-1.8-1-2.1-2.8-2.6-4.4c-2.8-8.7-5.5-17.4-8.2-26.2c-0.9-3-2.5-4-5.7-4
			c-17,0.1-34,0.1-51,0c-3.1,0-4.5,1.3-5.4,4.2c-2.6,8.8-5.4,17.5-8.2,26.2c-0.5,1.6-1,3.1-2.4,4.3C333.2,399,321.3,399,309.4,399z"
			/>
		<path class="st1" d="M422,277c-4.5,14.2-9.2,28.3-13.3,42.7c-1,3.7-2.5,4.8-6.3,4.5c-8.3-0.4-16.6-0.3-24.9,0
			c-3,0.1-3.3-0.6-2.4-3.3c10.4-29.7,20.6-59.4,31-89.3c0.3-0.5,0.3-1.1,0.4-1.8c12.6,0,25.2,0,37.8,0c2.4,7.2,4.9,14.4,7.3,21.4
			c1,0.6,1.5,1.5,1.8,2.5c2.1,6.7,4.4,13.3,6.9,20c0.4,1,0.6,2,0.3,3.1c3.7,11,7.4,22,11.1,33c2.3,6.7,4.7,13.3,7,20.4
			c-10.8,0-21.1,0-31.5,0c-2.1,0-2.1-1.5-2.5-2.8c-4.9-15.9-9.8-31.7-14.9-47.6c-0.4-1.1-0.9-2.1-1.3-3.3c-2.6-2.9-2.5-6.7-3.4-9.4
			C424.5,270.4,424.4,274,422,277z"/>
		<path class="st1" d="M845.1,230.1c-0.8,6.3-0.1,12.6-0.4,18.8c0,1.3,0.4,2.6-1.8,2.6c-16.4,0-32.7,0-49.6,0
			c4.4-7.4,8.4-14.4,12.6-21.4C818.9,230.1,832,230.1,845.1,230.1z"/>
		<path class="st2" d="M970.6,230.1c0,10.2,0,20.4,0,30.6c0,1.1,0.8,2.6-0.8,3.5c-1.3-1.5-1-3.4-1-5c0-7.7,0-15.5,0-23.2
			c0-3.8-0.4-4-4.2-4c-7,0-14,0-21,0c-1.8,0-3.7,0.3-5-1.1c0-0.3,0-0.5,0-0.8C949.2,230.1,959.9,230.1,970.6,230.1z"/>
		<path class="st1" d="M938.5,230.7c9.4,0,18.9,0,28.3-0.1c2.3,0,3,0.6,3,3c-0.1,10.2-0.1,20.4-0.1,30.5c-10.4,0-20.9,0-31.3,0.1
			C938.5,253.1,938.5,241.9,938.5,230.7z"/>
		<path class="st3" d="M902.7,311.3c1,0.5,3-0.8,2.9,1.1c-0.1,2.4-2.3,1-3.4,1.1c-0.9,0.1-2.9,0.9-2.8-1
			C899.5,310.2,901.7,312,902.7,311.3z"/>
		<path class="st4" d="M460.5,277.2c-3.4-8.4-6.2-17.1-8.9-25.7c11.3,0,22.8,0,34.1-0.1c2.1,0,2.9,0.4,2.8,2.6
			c-0.1,6.8-0.1,13.5,0,20.3c0,2.1-0.5,2.9-2.8,2.8C477.4,277,468.9,277.2,460.5,277.2z"/>
		<path class="st3" d="M335.4,251.5c3.9,0,7.8,0,11.7,0c1.6,0,2.4,0.3,2.4,2.1s-0.5,2.3-2.3,2.3c-7.8-0.1-15.6-0.1-23.5,0
			c-1.6,0-2.4-0.3-2.3-2.1c0-1.6,0.5-2.3,2.3-2.3C327.6,251.5,331.5,251.5,335.4,251.5z"/>
		<path class="st5" d="M422,277c1-3.5,2-6.9,3.1-11.2c1.6,4.2,2.8,7.7,3.5,11.2C426.4,277,424.2,277,422,277z"/>
		<g>
			<g>
				<path class="st1" d="M608.4,313.9c-1.6-1-1.1-1.8,0.1-2.6c1.6-1.1,3.3-2.4,4.7-3.9c11.2-12.1,13.6-26.4,10.2-42.2
					c-0.6-3.1-2.4-4.3-5.5-4.3c-5.3,0.1-10.7,0-16,0c-1.9,0-3.3-0.5-3.3-2.8c0-5.3,0-10.7,0-16c0-1.5,0.5-2.5,2.1-2.8
					c1-0.1,2.5-0.1,2.5-1.5c0-1-1.3-1.6-2.1-2.3c-0.9-0.6-1.9-1-2.8-1.5c-5.2-2.6-10.7-3.7-16.4-4.3h-76.4c0.1,1.1,0.3,2.4,0.3,3.5
					c0,54,0,108,0,162c0,1.1-0.3,2.4-0.3,3.5H584c0.4-0.4,0.9-0.4,1.3-0.4c14.1-1,25.1-7.7,33.1-19C633,359.3,629.1,326,608.4,313.9
					z M539.4,279.3c0-5.7,0-11.5,0-17.1c0-1.3-0.4-2.8,1.8-2.8c11.6,0.3,23.3-0.8,34.9,0.5c8.9,1,13.8,6.7,14.6,15.6
					c0.4,3.8,0.1,7.6-1,11.3c-2.4,7.4-8.2,12.1-16.5,12.3c-10.4,0.3-20.9,0-31.3,0.1c-2,0-2.3-0.9-2.3-2.5
					C539.6,290.9,539.4,285.1,539.4,279.3z M586.9,363.3c-4.4,3.8-9.7,4.9-15.2,5c-9.7,0.1-19.5,0-29.2,0.1c-2.4,0-3-0.8-3-3
					c0.1-5.7,0-11.5,0-17.1c0-5.5,0.1-11.2,0-16.7c0-2.1,0.4-3.1,2.9-3c10.3,0.1,20.6,0,31,0.1c9.2,0.1,16.1,4.8,18.8,12.2
					C594.9,348.9,592.8,358,586.9,363.3z"/>
			</g>
		</g>
		<g>
			<g>
				<path class="st1" d="M865.1,338.6c0-2.1-0.8-2.5-2.6-2.5c-4.5,0.1-9.1-0.1-13.6,0.1c-3.1,0.1-4.2-0.6-4.2-4
					c0.1-24.3,0-48.7,0.1-73c0-2.8-0.8-3.5-3.5-3.5c-15.9,0.1-31.8,0.1-47.7,0c-2.1,0-3.4,0.8-4.4,2.5c-12.8,21.8-25.3,43.8-39,65
					c-7.8,12-12.1,24.2-10.2,38.3c0,0.1,0,0.3,0,0.4c-0.5,2.6,0.8,3.1,3.1,3c18-0.1,35.9,0,53.9,0c4,0,8.1,0,12.1,0
					c1.4,0,2.3,0.1,2.3,1.9c-0.3,10.8,0.4,21.7-0.4,32.4h34.2c-0.8-10.8-0.1-21.5-0.4-32.4c0-2.1,1.3-1.9,2.6-1.9
					c5.2,0,10.2-0.1,15.4,0c1.8,0,2.5-0.4,2.4-2.4C865,354.6,865,346.7,865.1,338.6z M811.2,332.7c0,2.9-0.9,3.5-3.7,3.5
					c-10.2-0.1-20.4-0.1-30.7,0c-1.8,0-3.3,0.1-1.8-2.4c11.7-20.5,23.3-41,35-61.6c0.1-0.1,0.4-0.1,0.6-0.3c0.8,0.8,0.4,1.8,0.4,2.6
					C811.2,294,811.1,313.3,811.2,332.7z"/>
			</g>
		</g>
	</g>
</g>
</svg>
