<svg id="Layer_1" data-name="Layer 1" xmlns="http://www.w3.org/2000/svg" xmlns:xlink="http://www.w3.org/1999/xlink" viewBox="0 0 15 15"><defs><clipPath id="clip-path"><rect x="-2241" y="-13890" width="2560" height="14093" fill="none"/></clipPath><clipPath id="clip-path-2"><rect width="15" height="15" fill="none"/></clipPath><clipPath id="clip-path-3"><path d="M7.5,1.33a21.3,21.3,0,0,1,3,.09,3.75,3.75,0,0,1,1.42.25,2.9,2.9,0,0,1,1.41,1.41,3.75,3.75,0,0,1,.25,1.42c0,.75.09,1,.09,3a21.3,21.3,0,0,1-.09,3,3.75,3.75,0,0,1-.25,1.42,2.9,2.9,0,0,1-1.41,1.41,3.75,3.75,0,0,1-1.42.25c-.75,0-1,.09-3,.09a21.3,21.3,0,0,1-3-.09,3.75,3.75,0,0,1-1.42-.25,2.9,2.9,0,0,1-1.41-1.41,3.75,3.75,0,0,1-.25-1.42c0-.75-.09-1-.09-3a21.3,21.3,0,0,1,.09-3,3.75,3.75,0,0,1,.25-1.42,2.88,2.88,0,0,1,.58-.83,1.41,1.41,0,0,1,.83-.58A3.75,3.75,0,0,1,4.5,1.42a21.3,21.3,0,0,1,3-.09M7.5,0A25.57,25.57,0,0,0,4.42.08,5.07,5.07,0,0,0,2.58.42a3.16,3.16,0,0,0-1.33.83A3.16,3.16,0,0,0,.42,2.58,3.8,3.8,0,0,0,.08,4.42,25.57,25.57,0,0,0,0,7.5a25.57,25.57,0,0,0,.08,3.08,5.07,5.07,0,0,0,.34,1.84,3.16,3.16,0,0,0,.83,1.33,3.16,3.16,0,0,0,1.33.83,5.07,5.07,0,0,0,1.84.34c.83,0,1.08.08,3.08.08a25.57,25.57,0,0,0,3.08-.08,5.07,5.07,0,0,0,1.84-.34,3.48,3.48,0,0,0,2.16-2.16,5.07,5.07,0,0,0,.34-1.84c0-.83.08-1.08.08-3.08a25.57,25.57,0,0,0-.08-3.08,5.07,5.07,0,0,0-.34-1.84,3.16,3.16,0,0,0-.83-1.33A3.16,3.16,0,0,0,12.42.42,5.07,5.07,0,0,0,10.58.08,25.57,25.57,0,0,0,7.5,0" fill="none" clip-rule="evenodd"/></clipPath><clipPath id="clip-path-5"><path d="M7.5,3.75A3.74,3.74,0,0,0,3.75,7.5,3.79,3.79,0,0,0,7.5,11.25,3.79,3.79,0,0,0,11.25,7.5,3.74,3.74,0,0,0,7.5,3.75m0,6.19A2.4,2.4,0,0,1,5.05,7.5,2.4,2.4,0,0,1,7.5,5.05,2.4,2.4,0,0,1,10,7.5,2.4,2.4,0,0,1,7.5,9.94" fill="none" clip-rule="evenodd"/></clipPath><clipPath id="clip-path-7"><path d="M10.62,2.5a.63.63,0,1,1-.62.62.63.63,0,0,1,.62-.62" fill="none" clip-rule="evenodd"/></clipPath></defs><title>Artboard 1</title><g clip-path="url(#clip-path)"><g opacity="0.5" style="isolation:isolate"><g clip-path="url(#clip-path-2)"><g clip-path="url(#clip-path-3)"><g clip-path="url(#clip-path-2)"><rect x="-5" y="-5" width="25" height="25"/></g></g><g clip-path="url(#clip-path-5)"><g clip-path="url(#clip-path-2)"><rect x="-1.25" y="-1.25" width="17.5" height="17.5"/></g></g><g clip-path="url(#clip-path-7)"><g clip-path="url(#clip-path-2)"><rect x="5" y="-2.5" width="11.25" height="11.25"/></g></g><g clip-path="url(#clip-path-3)"><g clip-path="url(#clip-path-2)"><rect x="-5" y="-5" width="25" height="25"/></g></g><g clip-path="url(#clip-path-5)"><g clip-path="url(#clip-path-2)"><rect x="-1.25" y="-1.25" width="17.5" height="17.5"/></g></g></g></g></g></svg>