<svg width="102" height="51" fill="none" xmlns="http://www.w3.org/2000/svg"><path d="M22.078 23.654v-6.871a.399.399 0 0 0-.2-.346l-5.776-3.335a.4.4 0 0 0-.4 0l-5.776 3.335a.4.4 0 0 0-.2.346v6.87l5.975-3.45a.4.4 0 0 1 .4 0l5.977 3.45zM15.902 34.439l5.949 3.46a.4.4 0 0 0 .4 0l5.776-3.36a.402.402 0 0 0 .2-.347v-6.716a.402.402 0 0 0-.2-.348l-5.949-3.451v6.94a.402.402 0 0 1-.2.348l-5.976 3.474z" fill="#000"/><path d="m15.902 34.439-5.95 3.46a.4.4 0 0 1-.4 0l-5.775-3.36a.402.402 0 0 1-.2-.347v-6.716a.402.402 0 0 1 .2-.348l5.949-3.451v6.94a.4.4 0 0 0 .199.348l5.977 3.474zM43.925 24.87h-3.974v-1.728h4.664v-2.426H37.27v10.87h2.68v-4.29h3.974V24.87zM48.068 20.716l-3.582 10.87h2.736l.75-2.49h3.195l.751 2.49h2.795l-3.536-10.87h-3.11zm2.422 6.044h-1.864l.926-3.188.938 3.188zM64.083 27.172a2.459 2.459 0 0 0-1.447-1.284c.25-.095.476-.243.661-.435.206-.22.364-.48.465-.765.12-.35.178-.72.17-1.09 0-.86-.265-1.565-.786-2.091-.522-.527-1.254-.795-2.175-.795h-5.284v10.87h5.749c.403.002.8-.085 1.165-.255.35-.164.663-.397.92-.686.262-.3.466-.645.6-1.02.145-.395.218-.812.216-1.232.01-.42-.077-.836-.254-1.217zm-5.716.095h2.423a.797.797 0 0 1 .575.193.717.717 0 0 1 .2.55v.51a.72.72 0 0 1-.2.55.802.802 0 0 1-.574.192h-2.423v-1.995zm2.823-3.02a.683.683 0 0 1-.759.765h-2.064v-1.974h2.068a.682.682 0 0 1 .759.759l-.004.45zM71.162 31.74c-1.395 0-2.49-.471-3.284-1.413-.793-.942-1.192-2.308-1.195-4.099-.013-.8.09-1.597.305-2.366a4.846 4.846 0 0 1 .885-1.725 3.726 3.726 0 0 1 1.413-1.063 4.692 4.692 0 0 1 1.87-.358c.926 0 1.702.202 2.329.604a4.024 4.024 0 0 1 1.472 1.793l-1.45.794a2.635 2.635 0 0 0-.847-1.213c-.382-.301-.883-.451-1.504-.45-.825 0-1.471.28-1.939.842-.467.562-.701 1.339-.702 2.33v1.624c0 .99.234 1.767.702 2.33.469.562 1.117.845 1.945.848.64 0 1.162-.166 1.564-.497.406-.337.714-.777.892-1.274l1.389.84a4.295 4.295 0 0 1-1.496 1.808c-.642.43-1.425.645-2.35.645zM76.009 31.556v-1.402h1.451v-7.85h-1.451V20.9h4.641v1.403h-1.465v7.847h1.465v1.403l-4.641.002zM86.307 22.426v9.13h-1.725v-9.13h-3.176v-1.53h8.077v1.53h-3.176zM93.743 31.556v-4.198L90.08 20.9h1.969l2.595 4.748h.046l2.58-4.748h1.893l-3.698 6.427v4.23h-1.72z" fill="#000"/></svg>