<svg xmlns="http://www.w3.org/2000/svg" viewBox="0 0 107.36 28.28"><title>fabcitylogo</title><g id="Layer_6" data-name="Layer 6"><path d="M21.08,20.14V12l-7-4.07a.24.24,0,0,0-.23,0L6.87,12v8.14a.22.22,0,0,0,.12.19l7,4.08,7-4.06a.24.24,0,0,0,.11-.2"/><path d="M20.83,28.28a.65.65,0,0,1-.36-.1l-6.63-3.86.25-.43,6.63,3.86a.22.22,0,0,0,.22,0L27.33,24a.21.21,0,0,0,.11-.19V16.41a.23.23,0,0,0-.11-.19l-6.62-3.86.24-.43,6.63,3.86a.72.72,0,0,1,.35.62v7.44a.73.73,0,0,1-.36.62l-6.4,3.71a.64.64,0,0,1-.35.1"/><path d="M21.08,12.15h-.5V4.44a.21.21,0,0,0-.11-.19L14.09.53a.22.22,0,0,0-.22,0L7.47,4.24a.21.21,0,0,0-.11.19v7.7h-.5V4.43a.7.7,0,0,1,.36-.62L13.62.1a.71.71,0,0,1,.72,0l6.39,3.72a.71.71,0,0,1,.35.62Z"/><path d="M7.11,28.27a.75.75,0,0,1-.36-.1L.36,24.45A.73.73,0,0,1,0,23.82V16.39a.72.72,0,0,1,.35-.62L7,11.92l.24.43L.61,16.2a.21.21,0,0,0-.11.19v7.43A.26.26,0,0,0,.6,24L7,27.74a.22.22,0,0,0,.22,0l6.63-3.85.24.43L7.46,28.17a.74.74,0,0,1-.35.1"/><polygon points="37.9 19.79 37.9 8.48 45.35 8.48 45.35 10.67 40.34 10.67 40.34 12.97 44.61 12.97 44.61 15.16 40.34 15.16 40.34 19.79 37.9 19.79"/><path d="M52.84,19.8,52,17.1H48.28l-.8,2.7H45L48.7,8.48h3L55.38,19.8Zm-2.66-9.08H50.1L48.86,15h2.58Z"/><path d="M56.94,8.48H62.4a2.92,2.92,0,0,1,2.18.8,2.87,2.87,0,0,1,.78,2.1,3.28,3.28,0,0,1-.17,1.11,2,2,0,0,1-.45.74,1.68,1.68,0,0,1-.66.43,2.65,2.65,0,0,1-.81.15v.1a2.57,2.57,0,0,1,.84.15,2.31,2.31,0,0,1,.82.46,2.48,2.48,0,0,1,.61.82,2.67,2.67,0,0,1,.25,1.23,3.79,3.79,0,0,1-.21,1.26,3.26,3.26,0,0,1-.61,1,2.56,2.56,0,0,1-.91.69,2.66,2.66,0,0,1-1.16.25h-6Zm2.45,4.64h2.43a1,1,0,0,0,1-1v-.49a.94.94,0,0,0-1-1H59.39Zm0,4.6H62.2a1.06,1.06,0,0,0,.77-.27,1,1,0,0,0,.28-.75v-.55a1,1,0,0,0-.28-.76,1.1,1.1,0,0,0-.77-.26H59.39Z"/><path d="M76,20A5.56,5.56,0,0,1,74,19.63a4,4,0,0,1-1.56-1.09,4.9,4.9,0,0,1-1-1.8A8,8,0,0,1,71,14.22a8.24,8.24,0,0,1,.36-2.54,5.18,5.18,0,0,1,1-1.86A4,4,0,0,1,74,8.68,5.18,5.18,0,0,1,76,8.29a4.69,4.69,0,0,1,2.57.64,4.37,4.37,0,0,1,1.63,2l-2.11,1.1a2.43,2.43,0,0,0-.7-1.14A2,2,0,0,0,76,10.48a2.23,2.23,0,0,0-1.73.7,2.89,2.89,0,0,0-.66,2.05v1.82a2.9,2.9,0,0,0,.66,2.05,2.23,2.23,0,0,0,1.73.7,2,2,0,0,0,1.44-.49,3,3,0,0,0,.79-1.19l2,1.16a5.1,5.1,0,0,1-1.65,2A4.51,4.51,0,0,1,76,20"/><polygon points="81.52 19.79 81.52 17.83 82.97 17.83 82.97 10.44 81.52 10.44 81.52 8.48 86.87 8.48 86.87 10.44 85.42 10.44 85.42 17.83 86.87 17.83 86.87 19.79 81.52 19.79"/><polygon points="93.53 10.67 93.53 19.8 91.08 19.8 91.08 10.67 88.04 10.67 88.04 8.48 96.57 8.48 96.57 10.67 93.53 10.67"/><polygon points="101.05 19.79 101.05 15.37 97.2 8.48 99.94 8.48 102.35 12.99 102.39 12.99 104.7 8.48 107.36 8.48 103.51 15.35 103.51 19.79 101.05 19.79"/></g></svg>