<svg width="107" height="54" fill="none" xmlns="http://www.w3.org/2000/svg"><path d="M23.16 25.045V17.77a.425.425 0 0 0-.21-.366l-6.059-3.531a.417.417 0 0 0-.42 0l-6.059 3.531a.42.42 0 0 0-.21.366v7.275l6.27-3.653a.417.417 0 0 1 .42 0l6.268 3.653zM16.681 36.465l6.241 3.662a.417.417 0 0 0 .42 0l6.059-3.556a.422.422 0 0 0 .21-.368v-7.11a.428.428 0 0 0-.21-.369l-6.24-3.654v7.348a.428.428 0 0 1-.21.368l-6.27 3.679zM16.681 36.465l-6.24 3.662a.417.417 0 0 1-.42 0l-6.06-3.556a.423.423 0 0 1-.21-.368v-7.11a.428.428 0 0 1 .21-.369l6.242-3.654v7.348a.427.427 0 0 0 .208.368l6.27 3.679zM46.078 26.333H41.91v-1.83h4.893v-2.568h-7.704v11.509h2.811v-4.542h4.17v-2.569zM50.424 21.935l-3.757 11.509h2.87l.787-2.636h3.351l.788 2.636h2.932l-3.71-11.51h-3.261zm2.541 6.399H51.01l.97-3.375.985 3.375zM67.224 28.77a2.738 2.738 0 0 0-.658-.868 2.568 2.568 0 0 0-.86-.492c.262-.1.5-.257.694-.46.216-.233.382-.509.487-.81a3.35 3.35 0 0 0 .178-1.154c0-.912-.277-1.657-.824-2.214-.547-.558-1.315-.841-2.282-.841h-5.542V33.44h6.03c.423.002.84-.09 1.223-.27.367-.174.695-.42.964-.727.276-.317.49-.683.63-1.08.152-.418.229-.86.226-1.304a2.92 2.92 0 0 0-.266-1.29zm-5.996.101h2.541a.83.83 0 0 1 .604.204.76.76 0 0 1 .21.583v.54a.77.77 0 0 1-.209.582.836.836 0 0 1-.603.204H61.23l-.002-2.113zm2.961-3.198a.73.73 0 0 1-.202.6.716.716 0 0 1-.593.21h-2.166v-2.09h2.17a.71.71 0 0 1 .59.207.725.725 0 0 1 .205.596l-.004.477zM74.65 33.607c-1.463 0-2.611-.499-3.444-1.496-.833-.997-1.251-2.444-1.255-4.34a8.841 8.841 0 0 1 .321-2.506c.185-.666.5-1.287.928-1.826.398-.49.906-.875 1.483-1.125.621-.26 1.289-.39 1.962-.38.97 0 1.785.214 2.442.64a4.251 4.251 0 0 1 1.545 1.899l-1.521.84a2.791 2.791 0 0 0-.89-1.284c-.4-.319-.925-.478-1.576-.477-.866 0-1.544.297-2.035.892-.49.595-.736 1.418-.737 2.467v1.72c0 1.048.246 1.87.737 2.466.492.596 1.171.895 2.04.898.672 0 1.22-.175 1.641-.525.426-.358.75-.824.936-1.35l1.457.89a4.538 4.538 0 0 1-1.569 1.914c-.674.455-1.496.683-2.465.683zM79.735 33.413v-1.485h1.522v-8.312h-1.522V22.13h4.869v1.485h-1.537v8.309h1.537v1.485l-4.869.003zM90.538 23.745v9.668h-1.81v-9.668h-3.331v-1.62h8.473v1.62h-3.332zM98.338 33.413v-4.446l-3.844-6.838h2.066l2.723 5.028h.048l2.707-5.028h1.985l-3.879 6.806v4.478h-1.806z" fill="#fff"/></svg>