<svg xmlns="http://www.w3.org/2000/svg" viewBox="0 0 63.89 64.22"><defs><style>.cls-1{fill:#fefefe;}</style></defs><title>fabcitylogo</title><g id="Layer_6" data-name="Layer 6"><path d="M63.07,35.86l-14.88-8.6v0h0l0-17.13a1.66,1.66,0,0,0-.82-1.42L32.78.22a1.64,1.64,0,0,0-1.63,0L16.52,8.65a1.64,1.64,0,0,0-.82,1.41V27.25L.83,35.81A1.65,1.65,0,0,0,0,37.23V54.11a1.63,1.63,0,0,0,.81,1.41L15.43,64a1.57,1.57,0,0,0,.81.22,1.67,1.67,0,0,0,.82-.21L31.94,55.4,46.8,64a1.62,1.62,0,0,0,1.63,0l14.63-8.43a1.64,1.64,0,0,0,.82-1.41V37.28A1.65,1.65,0,0,0,63.07,35.86Zm-46-26.24L31.71,1.2a.5.5,0,0,1,.5,0L46.83,9.65a.52.52,0,0,1,.25.44l0,16.48L32.18,18a.53.53,0,0,0-.52,0l-14.84,8.6V10.06A.52.52,0,0,1,17.08,9.62ZM16.5,63A.52.52,0,0,1,16,63L1.38,54.54a.5.5,0,0,1-.25-.43V37.23a.51.51,0,0,1,.26-.44l14.28-8.23,0,17.18a.51.51,0,0,0,.26.45l14.86,8.55Zm46.25-8.84a.48.48,0,0,1-.26.43L47.87,63a.52.52,0,0,1-.51,0L33.09,54.76,48,46.15a.54.54,0,0,0,.26-.46l0-17.13,14.31,8.28a.52.52,0,0,1,.25.44Z"/><path class="cls-1" d="M22.54,35.22l0-7.74h5.14V29H24.21v1.58h2.94V32H24.22v3.18Z"/><path class="cls-1" d="M32.85,35.2l-.56-1.84H29.71l-.56,1.84H27.44L30,27.46h2.09L34.6,35.2ZM31,29H31l-.85,2.94h1.77Z"/><path class="cls-1" d="M35.67,27.46h3.76a2,2,0,0,1,1.51.54,2,2,0,0,1,.54,1.44,2.13,2.13,0,0,1-.12.76,1.62,1.62,0,0,1-.31.51,1.16,1.16,0,0,1-.46.29,2,2,0,0,1-.56.11v.06a2.15,2.15,0,0,1,.59.1,1.66,1.66,0,0,1,.56.32,1.62,1.62,0,0,1,.42.56,1.8,1.8,0,0,1,.18.84,2.47,2.47,0,0,1-.15.86,2,2,0,0,1-.42.7,2.11,2.11,0,0,1-.63.48,1.94,1.94,0,0,1-.8.17H35.67Zm1.69,3.17H39a.69.69,0,0,0,.52-.19.74.74,0,0,0,.19-.52v-.33a.74.74,0,0,0-.19-.53.73.73,0,0,0-.52-.18H37.36Zm0,3.15H39.3a.76.76,0,0,0,.53-.18.69.69,0,0,0,.19-.52V32.7a.66.66,0,0,0-.19-.51A.76.76,0,0,0,39.3,32H37.36Z"/><path class="cls-1" d="M23.62,45.66a2.8,2.8,0,0,1-2.3-1,4.53,4.53,0,0,1-.83-2.95,4.76,4.76,0,0,1,.82-3,2.74,2.74,0,0,1,2.29-1.06,2.93,2.93,0,0,1,1.64.44,2.89,2.89,0,0,1,1,1.24l-.76.46a2.09,2.09,0,0,0-.71-1,1.94,1.94,0,0,0-1.2-.36,2.11,2.11,0,0,0-.89.19,1.87,1.87,0,0,0-.67.55,2.58,2.58,0,0,0-.41.83,3.74,3.74,0,0,0-.14,1.09v1.16a2.91,2.91,0,0,0,.56,1.88,1.91,1.91,0,0,0,1.57.67,2,2,0,0,0,1.24-.38,2.31,2.31,0,0,0,.73-1l.74.46a2.81,2.81,0,0,1-2.71,1.76Z"/><path class="cls-1" d="M27.41,45.52v-.78H28.5l0-6.19H27.39v-.77H30.5v.78H29.41l0,6.19h1.08v.77Z"/><path class="cls-1" d="M34.74,38.58V45.5h-.93V38.58H31.34v-.82l5.86,0v.82Z"/><path class="cls-1" d="M40.32,45.49V42.43l-2.67-4.68h1.07l2.07,3.72h0l2.06-3.73h1.06l-2.68,4.65v3.1Z"/></g></svg>