<svg xmlns="http://www.w3.org/2000/svg" viewBox="0 0 63.89 64.22"><g data-name="Layer 6"><path d="m63.07 35.86-14.88-8.6V10.13a1.66 1.66 0 0 0-.82-1.42L32.78.22a1.64 1.64 0 0 0-1.63 0L16.52 8.65a1.64 1.64 0 0 0-.82 1.41v17.19L.83 35.81A1.65 1.65 0 0 0 0 37.23v16.88a1.63 1.63 0 0 0 .81 1.41L15.43 64a1.57 1.57 0 0 0 .81.22 1.67 1.67 0 0 0 .82-.21l14.88-8.61L46.8 64a1.62 1.62 0 0 0 1.63 0l14.63-8.43a1.64 1.64 0 0 0 .82-1.41V37.28a1.65 1.65 0 0 0-.81-1.42zm-46-26.24L31.71 1.2a.5.5 0 0 1 .5 0l14.62 8.45a.52.52 0 0 1 .25.44v16.48L32.18 18a.53.53 0 0 0-.52 0l-14.84 8.6V10.06a.52.52 0 0 1 .26-.44zM16.5 63a.52.52 0 0 1-.5 0L1.38 54.54a.5.5 0 0 1-.25-.43V37.23a.51.51 0 0 1 .26-.44l14.28-8.23v17.18a.51.51 0 0 0 .26.45l14.86 8.55zm46.25-8.84a.48.48 0 0 1-.26.43L47.87 63a.52.52 0 0 1-.51 0l-14.27-8.24L48 46.15a.54.54 0 0 0 .26-.46V28.56l14.31 8.28a.52.52 0 0 1 .25.44z" style="fill:#fff"/><path d="M22.54 35.22v-7.74h5.14V29h-3.47v1.58h2.94V32h-2.93v3.18zm10.31-.02-.56-1.84h-2.58l-.56 1.84h-1.71L30 27.46h2.09l2.51 7.74zM31 29l-.85 2.94h1.77zm4.67-1.54h3.76a2 2 0 0 1 1.51.54 2 2 0 0 1 .54 1.44 2.13 2.13 0 0 1-.12.76 1.62 1.62 0 0 1-.31.51 1.16 1.16 0 0 1-.46.29 2 2 0 0 1-.56.11v.06a2.15 2.15 0 0 1 .59.1 1.66 1.66 0 0 1 .56.32 1.62 1.62 0 0 1 .42.56 1.8 1.8 0 0 1 .18.84 2.47 2.47 0 0 1-.15.86 2 2 0 0 1-.42.7 2.11 2.11 0 0 1-.63.48 1.94 1.94 0 0 1-.8.17h-4.11zm1.69 3.17H39a.69.69 0 0 0 .52-.19.74.74 0 0 0 .19-.52v-.33a.74.74 0 0 0-.19-.53.73.73 0 0 0-.52-.18h-1.64zm0 3.15h1.94a.76.76 0 0 0 .53-.18.69.69 0 0 0 .19-.52v-.38a.66.66 0 0 0-.19-.51.76.76 0 0 0-.53-.19h-1.94zM23.62 45.66a2.8 2.8 0 0 1-2.3-1 4.53 4.53 0 0 1-.83-2.95 4.76 4.76 0 0 1 .82-3 2.74 2.74 0 0 1 2.29-1.06 2.93 2.93 0 0 1 1.64.44 2.89 2.89 0 0 1 1 1.24l-.76.46a2.09 2.09 0 0 0-.71-1 1.94 1.94 0 0 0-1.2-.36 2.11 2.11 0 0 0-.89.19 1.87 1.87 0 0 0-.67.55 2.58 2.58 0 0 0-.41.83 3.74 3.74 0 0 0-.14 1.09v1.16a2.91 2.91 0 0 0 .56 1.88 1.91 1.91 0 0 0 1.57.67 2 2 0 0 0 1.24-.38 2.31 2.31 0 0 0 .73-1l.74.46a2.81 2.81 0 0 1-2.71 1.76zm3.79-.14v-.78h1.09v-6.19h-1.11v-.77h3.11v.78h-1.09v6.19h1.08v.77zm7.33-6.94v6.92h-.93v-6.92h-2.47v-.82h5.86v.82zm5.58 6.91v-3.06l-2.67-4.68h1.07l2.07 3.72 2.06-3.73h1.06l-2.68 4.65v3.1z" style="fill:#010101"/></g></svg>