<svg version="1.1" id="Layer_1" xmlns="http://www.w3.org/2000/svg" x="0" y="0" viewBox="0 0 113.1 113.1" style="enable-background:new 0 0 113.1 113.1" xml:space="preserve"><style>.st0{fill:#fff}</style><path class="st0" d="M42.2 54.1v2.4c0 .2.2.4.4.4h4.9c.2 0 .4.2.4.4V59c0 .2-.2.4-.4.4h-4.9c-.2 0-.4.2-.4.4v4.3c0 .2-.2.4-.4.4h-1.9c-.2 0-.4-.2-.4-.4V51.6c0-.2.2-.4.4-.4h8.7c.2 0 .4.2.4.4v1.7c0 .2-.2.4-.4.4h-5.9c-.3 0-.5.2-.5.4M55.4 58.5h2.2c.2 0 .4-.2.4-.4v-.2l-1.4-3.6h-.1L55 57.9c-.1.2 0 .5.2.5.1.1.1.1.2.1m6.6 2.7v3c0 .2-.2.4-.4.4h-1.9c-.2 0-.4-.2-.4-.4v-2.6l-.2-.6H54l-.2.6v2.6c0 .2-.2.4-.4.4h-2c-.2 0-.4-.2-.4-.4v-3.1l4-9.6c.1-.2.2-.3.4-.3h2.3c.2 0 .3.1.4.3l4 9.6c-.1 0-.1 0-.1.1M70.3 62c.9 0 1.2-.3 1.2-1.1V60c0-.7-.3-1.1-1.2-1.1h-2.6c-.2 0-.4.2-.4.4v2.2c0 .2.2.4.4.4l2.6.1zm0-5.5c.9 0 1.2-.4 1.2-1.1v-.7c0-.7-.3-1-1.2-1h-2.6c-.2 0-.4.2-.4.4v2c0 .2.2.4.4.4h2.6zm-5.8-4.9c0-.2.2-.4.4-.4h5.7c2.2 0 3.6.9 3.6 3.1v1.2c0 .8-.3 1.5-.9 2-.2.1-.2.4-.1.5l.1.1c.6.5 1 1.2.9 2v1.4c0 2.2-1.3 3.1-3.6 3.1H65c-.2 0-.4-.2-.4-.4l-.1-12.6zM44.1 67.7h-2.7c-1.6 0-2.3.7-2.3 2.2v6c0 1.5.7 2.2 2.3 2.2h2.7c1.6 0 2.3-.7 2.3-2.2v-.6l-1.3-.4v.9c0 .8-.2 1-1.1 1h-2.4c-1 0-1.1-.3-1.1-1V70c0-.8.2-1.1 1.1-1.1H44c1 0 1.1.2 1.1 1.1v.8l1.3-.4v-.6c.1-1.4-.7-2.1-2.3-2.1M52.6 76.6v-7.4c0-.1.1-.2.2-.2h2.5v-1.2h-6.8V69H51c.1 0 .2.1.2.2v7.4c0 .1-.1.2-.2.2h-2.7v1.3h7.1v-1.3h-2.7s-.1-.1-.1-.2M57 69h3.3c.1 0 .2.1.2.2v8.9h1.3v-8.9c0-.1.1-.2.2-.2h3.3v-1.3H57V69zM72.9 67.7V70c0 .1 0 .1-.1.2l-2.3 2.2c-.1.1-.2.1-.3 0l-2.3-2.2s-.1-.1-.1-.2v-2.3h-1.3v2.6c0 .2.1.4.2.5l2.9 2.7s.1.1.1.2v4.4H71v-4.4c0-.1 0-.1.1-.2l2.9-2.7c.1-.1.2-.3.2-.5v-2.6h-1.3zM30.2 49.3v-1.1h-2.6v2.6z"/><path class="st0" d="M31.4 80.3c-.7-.4-1.1-1.2-1.1-2V52.5L27.6 54v24.3c0 1.8.9 3.4 2.5 4.3l26 15.1 1.3-2.3-26-15.1zM27.6 47.8v.7h2.6v-2.2z"/><g><path class="st0" d="M83 14.5 59 .7c-1.5-.9-3.5-.9-5 0L30 14.5c-1.5.9-2.5 2.5-2.5 4.3v25.9l2.6-1.5V18.8c0-.8.4-1.6 1.2-2L55.4 3c.7-.4 1.6-.4 2.3 0l24 13.8c.7.4 1.2 1.2 1.2 2v30h2.7v-30c-.1-1.8-1.1-3.4-2.6-4.3M51 98l-21 12.2c-.7.4-1.6.4-2.3 0l-24-13.8c-.7-.4-1.2-1.2-1.2-2V66.6c0-.8.4-1.6 1.2-2l26.1-15-1.3-2.3-26 15C.9 63.2 0 64.8 0 66.6v27.7c0 1.8.9 3.4 2.5 4.3l24 13.8c1.5.9 3.5.9 5 0l22.2-12.9L51 98z"/></g><path class="st0" d="m56.4 94.8-2.7 1.6 2.7 1.5 2.1-1.2.5-.3z"/><g><path class="st0" d="M85.4 47.4h-2.6v30.9c0 .8-.4 1.6-1.2 2l-22.5 13 2.7 1.5L83 82.6c1.5-.9 2.5-2.5 2.5-4.3l-.1-30.9z"/><path class="st0" d="M110.6 62.3 88.2 49.4v3l21.1 12.1c.7.4 1.2 1.2 1.2 2v27.7c0 .8-.4 1.6-1.2 2l-24 13.8c-.7.4-1.6.4-2.3 0L55.8 94.5l-1.3 2.3 27.2 15.6c1.5.9 3.5.9 5 0l24-13.8c1.5-.9 2.5-2.5 2.5-4.3V66.6c-.1-1.8-1-3.4-2.6-4.3"/></g><path class="st0" d="M82.8 46.3v3.1l2.6 1.5v-3zM80.1 44.8l-.6-.3-1.3 2.2 1.9 1.1z"/><g><path class="st0" d="M80.1 44.8 59 32.5c-1.5-.9-3.5-.9-5 0L30.3 46.2 28 47.5l1.3 2.3 2-1.2 24-13.8c.7-.4 1.6-.4 2.3 0l21.7 12.6.7-1.2v-1.4z"/></g></svg>