<svg xmlns="http://www.w3.org/2000/svg" viewBox="0 0 107.36 28.28"><g data-name="Layer 6"><path d="M21.08 20.14V12l-7-4.07a.24.24 0 0 0-.23 0L6.87 12v8.14a.22.22 0 0 0 .12.19l7 4.08 7-4.06a.24.24 0 0 0 .11-.2"/><path d="M20.83 28.28a.65.65 0 0 1-.36-.1l-6.63-3.86.25-.43 6.63 3.86a.22.22 0 0 0 .22 0L27.33 24a.21.21 0 0 0 .11-.19v-7.4a.23.23 0 0 0-.11-.19l-6.62-3.86.24-.43 6.63 3.86a.72.72 0 0 1 .35.62v7.44a.73.73 0 0 1-.36.62l-6.4 3.71a.64.64 0 0 1-.35.1"/><path d="M21.08 12.15h-.5V4.44a.21.21 0 0 0-.11-.19L14.09.53a.22.22 0 0 0-.22 0l-6.4 3.71a.21.21 0 0 0-.11.19v7.7h-.5v-7.7a.7.7 0 0 1 .36-.62L13.62.1a.71.71 0 0 1 .72 0l6.39 3.72a.71.71 0 0 1 .35.62z"/><path d="M7.11 28.27a.75.75 0 0 1-.36-.1L.36 24.45a.73.73 0 0 1-.36-.63v-7.43a.72.72 0 0 1 .35-.62L7 11.92l.24.43L.61 16.2a.21.21 0 0 0-.11.19v7.43a.26.26 0 0 0 .1.18L7 27.74a.22.22 0 0 0 .22 0l6.63-3.85.24.43-6.63 3.85a.74.74 0 0 1-.35.1m30.79-8.48V8.48h7.45v2.19h-5.01v2.3h4.27v2.19h-4.27v4.63H37.9zm14.94.01L52 17.1h-3.72l-.8 2.7H45l3.7-11.32h3l3.68 11.32zm-2.66-9.08h-.08L48.86 15h2.58zm6.76-2.24h5.46a2.92 2.92 0 0 1 2.18.8 2.87 2.87 0 0 1 .78 2.1 3.28 3.28 0 0 1-.17 1.11 2 2 0 0 1-.45.74 1.68 1.68 0 0 1-.66.43 2.65 2.65 0 0 1-.81.15v.1a2.57 2.57 0 0 1 .84.15 2.31 2.31 0 0 1 .82.46 2.48 2.48 0 0 1 .61.82 2.67 2.67 0 0 1 .25 1.23 3.79 3.79 0 0 1-.21 1.26 3.26 3.26 0 0 1-.61 1 2.56 2.56 0 0 1-.91.69 2.66 2.66 0 0 1-1.16.25h-6zm2.45 4.64h2.43a1 1 0 0 0 1-1v-.49a.94.94 0 0 0-1-1h-2.43zm0 4.6h2.81a1.06 1.06 0 0 0 .77-.27 1 1 0 0 0 .28-.75v-.55a1 1 0 0 0-.28-.76 1.1 1.1 0 0 0-.77-.26h-2.81zM76 20a5.56 5.56 0 0 1-2-.37 4 4 0 0 1-1.56-1.09 4.9 4.9 0 0 1-1-1.8 8 8 0 0 1-.44-2.52 8.24 8.24 0 0 1 .36-2.54 5.18 5.18 0 0 1 1-1.86A4 4 0 0 1 74 8.68a5.18 5.18 0 0 1 2-.39 4.69 4.69 0 0 1 2.57.64 4.37 4.37 0 0 1 1.63 2l-2.11 1.1a2.43 2.43 0 0 0-.7-1.14 2 2 0 0 0-1.39-.41 2.23 2.23 0 0 0-1.73.7 2.89 2.89 0 0 0-.66 2.05v1.82a2.9 2.9 0 0 0 .66 2.05 2.23 2.23 0 0 0 1.73.7 2 2 0 0 0 1.44-.49 3 3 0 0 0 .79-1.19l2 1.16a5.1 5.1 0 0 1-1.65 2A4.51 4.51 0 0 1 76 20m5.52-.21v-1.96h1.45v-7.39h-1.45V8.48h5.35v1.96h-1.45v7.39h1.45v1.96h-5.35zm12.01-9.12v9.13h-2.45v-9.13h-3.04V8.48h8.53v2.19h-3.04zm7.52 9.12v-4.42L97.2 8.48h2.74l2.41 4.51h.04l2.31-4.51h2.66l-3.85 6.87v4.44h-2.46z"/></g></svg>