<svg xmlns="http://www.w3.org/2000/svg" viewBox="0 0 512 512" style="enable-background:new 0 0 512 512" xml:space="preserve"><path fill="#fff" d="M407 0H105C47.103 0 0 47.103 0 105v302c0 57.897 47.103 105 105 105h302c57.897 0 105-47.103 105-105V105C512 47.103 464.897 0 407 0zm-98.442 340.537-9.273 74.185C297.408 429.734 284.646 441 269.517 441h-27.033c-15.13 0-27.892-11.266-29.768-26.279l-9.273-74.185C199.49 308.923 224.14 281 256 281c-24.813 0-45-20.187-45-45s20.187-45 45-45 45 20.187 45 45-20.187 45-45 45c31.86 0 56.51 27.923 52.558 59.537zM256 161c-46.869 0-85 38.131-85 85 0 16.893 4.974 32.637 13.505 45.883a83.039 83.039 0 0 0-11.076 34.072C153.368 305.245 141 277.042 141 246c0-63.411 51.589-115 115-115s115 51.589 115 115c0 31.042-12.368 59.245-32.428 79.956a83.049 83.049 0 0 0-11.076-34.072C336.026 278.637 341 262.893 341 246c0-46.869-38.131-85-85-85zm74.838 243.168 4.617-36.938C374.901 341.289 401 296.639 401 246c0-79.953-65.047-145-145-145s-145 65.047-145 145c0 50.639 26.099 95.289 65.545 121.23l4.617 36.938C122.004 376.063 81 315.734 81 246c0-96.495 78.505-175 175-175s175 78.505 175 175c0 69.734-41.004 130.063-100.162 158.168z"/></svg>