<svg width="42" height="41" fill="none" xmlns="http://www.w3.org/2000/svg"><path d="M22.826 0c1.13.15 2.265.263 3.375.542 4.42 1.11 8.107 3.388 11.029 6.876a20.104 20.104 0 0 1 4.376 9.07c.427 2.199.507 4.45.236 6.674a19.35 19.35 0 0 1-2.657 7.86c-2.633 4.388-6.344 7.477-11.219 9.143-.93.317-1.597-.168-1.603-1.176-.01-1.891 0-3.782-.008-5.672 0-1.265-.277-2.437-1.18-3.41-.302-.326.13-.287.252-.301a15.002 15.002 0 0 0 2.296-.43c1.987-.555 3.768-1.457 4.998-3.182.843-1.175 1.275-2.534 1.502-3.95.281-1.748.349-3.493-.236-5.205a7.094 7.094 0 0 0-1.415-2.46.674.674 0 0 1-.152-.759c.55-1.627.336-3.222-.248-4.795a.392.392 0 0 0-.397-.275 3.6 3.6 0 0 0-1.35.19 14.796 14.796 0 0 0-3.576 1.745.914.914 0 0 1-.826.138c-1.523-.434-3.092-.588-4.664-.6a17.166 17.166 0 0 0-4.706.572 1.159 1.159 0 0 1-1.047-.18 13.16 13.16 0 0 0-4.072-1.803c-.026-.007-.052-.016-.078-.02-.847-.178-1.002-.094-1.251.71-.46 1.484-.548 2.972-.018 4.46a.468.468 0 0 1-.11.512c-1.661 1.891-2.101 4.114-1.876 6.558.145 1.583.494 3.095 1.239 4.502.87 1.646 2.297 2.657 3.974 3.371 1.148.49 2.36.72 3.589.88.16.02.375 0 .439.144.072.162-.133.268-.236.387-.496.588-.759 1.293-.9 2.035-.032.179-.064.345-.253.425-1.28.541-3.359.823-4.637-.283a5.328 5.328 0 0 1-1.151-1.334c-.598-1.024-1.44-1.764-2.577-2.136a2.206 2.206 0 0 0-1.228-.073c-.299.07-.381.21-.195.483.136.217.32.4.537.537 1.173.672 1.851 1.741 2.325 2.94.44 1.111 1.154 1.917 2.27 2.366a5.91 5.91 0 0 0 1.85.362c.858.056 1.724.084 2.574-.1.307-.067.387.062.387.33 0 1.166.021 2.333 0 3.499-.013.834-.738 1.293-1.576 1.006-2.235-.76-4.303-1.828-6.149-3.305-3.241-2.586-5.558-5.835-6.9-9.757a19.21 19.21 0 0 1-.917-4.35c-.01-.105-.039-.209-.059-.313v-3.54c.118-.806.202-1.62.361-2.418a20.049 20.049 0 0 1 4.373-9.07C8.262 3.93 11.948 1.658 16.37.543c1.11-.28 2.242-.392 3.376-.542L22.825 0z" fill="#fff"/></svg>