<svg width="23" height="32" fill="none" xmlns="http://www.w3.org/2000/svg"><path d="M23.014 11.473a15.027 15.027 0 0 1-1.715 6.09 74.132 74.132 0 0 1-8.709 13.594c-.81 1.047-1.435 1.047-2.26 0a76.886 76.886 0 0 1-8.708-13.594c-1.715-3.52-2.326-7.082-.532-10.875a11.675 11.675 0 0 1 5.318-5.46 11.311 11.311 0 0 1 7.48-.941 11.499 11.499 0 0 1 6.452 3.981 11.955 11.955 0 0 1 2.674 7.205zm-6.648.313a5.114 5.114 0 0 0-.358-1.923 5.028 5.028 0 0 0-1.05-1.636 4.904 4.904 0 0 0-1.584-1.1 4.812 4.812 0 0 0-3.754-.032 4.898 4.898 0 0 0-1.6 1.074 5.023 5.023 0 0 0-1.077 1.619 5.113 5.113 0 0 0-.03 3.839c.241.61.598 1.167 1.05 1.636.452.47.99.844 1.583 1.1a4.815 4.815 0 0 0 3.755.032 4.898 4.898 0 0 0 1.6-1.074 5.023 5.023 0 0 0 1.076-1.619 5.112 5.112 0 0 0 .39-1.916z" fill="#000"/></svg>