<svg width="16" height="11" fill="none" xmlns="http://www.w3.org/2000/svg"><path d="M1.181.001C.955-.008.73.041.525.144L7.599 6.64a.71.71 0 0 0 .794 0L15.461.144A1.21 1.21 0 0 0 14.844 0H1.181zM.06.831C.021.99.001 1.156 0 1.32v8.36c-.001.2.027.4.085.591L5.12 5.477.059.83zm15.894 0-5.04 4.646 5.007 4.795c.056-.199.083-.405.079-.612V1.3a2.064 2.064 0 0 0-.04-.47h-.006zM5.71 6.04.63 10.905c.181.066.372.098.564.095h13.65c.184.003.366-.03.538-.095l-5.08-4.864c-.51.456-1.023.946-1.535 1.395a1.525 1.525 0 0 1-1.522 0c-.512-.456-1.024-.94-1.53-1.395H5.71z" fill="#000"/></svg>