<svg width="36" height="24" fill="none" xmlns="http://www.w3.org/2000/svg"><path d="M2.643 0a3.087 3.087 0 0 0-1.476.312l15.918 14.174a1.633 1.633 0 0 0 1.786 0L34.775.312A2.793 2.793 0 0 0 33.387 0H2.643zM.118 1.81c-.086.35-.13.71-.133 1.07v18.24c-.003.438.062.874.192 1.292l11.326-10.464L.118 1.811zm35.764 0-11.34 10.138 11.266 10.464c.126-.434.186-.884.178-1.336V2.835a4.374 4.374 0 0 0-.09-1.024h-.014zm-23.05 11.37L1.403 23.792c.408.145.838.215 1.27.208h30.714c.413.006.823-.064 1.21-.208L23.168 13.18c-1.151.994-2.303 2.063-3.455 3.043a3.515 3.515 0 0 1-3.426 0c-1.151-.995-2.303-2.049-3.44-3.043h-.015z" fill="#000"/></svg>