<svg version="1.1" id="Layer_1" xmlns="http://www.w3.org/2000/svg" x="0" y="0" viewBox="0 0 710.52 263.96" style="enable-background:new 0 0 710.52 263.96" xml:space="preserve"><style></style><path d="M50.68 28.86h-.46l-5.38 10.05-15.23 26.11-15.23-26.11L9 28.86h-.46v50.51H1.06V19.41h10.22l18.24 32.3h.46l18.33-32.3h9.85v59.96h-7.48V28.86zM110.42 79.37l-6.38-17.7H78.32l-6.38 17.7h-7.75l22.25-59.96h9.76l22.25 59.96h-8.03zM91.36 26.11h-.46L80.14 55.32h21.98L91.36 26.11zM142.34 79.37c-5.17 0-9.58-.93-13.22-2.79-3.65-1.86-6.75-4.42-9.3-7.69l5.65-4.47c2.25 2.81 4.74 4.94 7.48 6.4s5.96 2.19 9.67 2.19c4.56 0 8.04-1.03 10.44-3.09 2.4-2.06 3.6-4.81 3.6-8.25 0-2.86-.91-5.07-2.74-6.61-1.82-1.55-4.83-2.78-9.03-3.69l-5.2-1.12c-5.84-1.26-10.29-3.16-13.36-5.71-3.07-2.55-4.61-6.14-4.61-10.78 0-2.63.52-4.98 1.55-7.04 1.03-2.06 2.48-3.78 4.33-5.15 1.85-1.37 4.07-2.42 6.66-3.14 2.58-.72 5.43-1.07 8.53-1.07 4.8 0 8.92.83 12.36 2.49 3.43 1.66 6.34 4.1 8.71 7.3l-5.75 3.95a19.472 19.472 0 0 0-6.38-5.41c-2.49-1.32-5.59-1.98-9.3-1.98-4.07 0-7.28.82-9.62 2.45-2.34 1.63-3.51 4.08-3.51 7.34 0 2.86.99 5.03 2.96 6.49 1.98 1.46 4.97 2.62 8.98 3.48l5.2 1.12c6.26 1.32 10.79 3.32 13.59 6.01 2.8 2.69 4.2 6.27 4.2 10.74 0 2.75-.5 5.24-1.5 7.47-1 2.23-2.45 4.12-4.33 5.67-1.89 1.55-4.18 2.75-6.89 3.61-2.71.85-5.76 1.28-9.17 1.28zM193.15 25.76v53.6h-7.66v-53.6h-20.25V19.4h48.16v6.36h-20.25zM219.32 79.37V19.41h38.85v6.36h-31.19v20.1h29.37v6.36h-29.37v20.79h31.19v6.36h-38.85zM275.6 79.37h-7.66V19.41h25.36c5.59 0 9.96 1.46 13.09 4.38 3.13 2.92 4.7 7.13 4.7 12.63 0 4.41-1.08 8.03-3.24 10.87-2.16 2.83-5.34 4.71-9.53 5.63l14.59 26.46h-8.66L290.46 53.6H275.6v25.77zm17.69-31.96c3.04 0 5.4-.74 7.07-2.23s2.51-3.61 2.51-6.36v-4.47c0-2.75-.84-4.87-2.51-6.36-1.67-1.49-4.03-2.23-7.07-2.23H275.6v21.65h17.69zM336.65 79.37V19.41h7.66V79.36h-7.66zM370.4 42.77l-7.66-13.32h-.27v49.91h-7.48V19.41h8.85L387.09 56l7.66 13.32h.27V19.41h7.48v59.96h-8.85l-23.25-36.6zM431.87 19.41h21.34c3.95 0 7.54.63 10.76 1.89 3.22 1.26 5.97 3.14 8.25 5.63 2.28 2.49 4.03 5.61 5.24 9.36 1.22 3.75 1.82 8.12 1.82 13.1s-.61 9.35-1.82 13.1c-1.22 3.75-2.96 6.87-5.24 9.36-2.28 2.49-5.03 4.37-8.25 5.63-3.22 1.26-6.81 1.89-10.76 1.89h-21.34V19.41zm21.34 53.6c2.61 0 5.02-.42 7.21-1.25 2.19-.83 4.07-2.05 5.65-3.65s2.81-3.56 3.69-5.88c.88-2.32 1.32-4.97 1.32-7.95v-9.79c0-2.98-.44-5.63-1.32-7.95-.88-2.32-2.11-4.28-3.69-5.88-1.58-1.6-3.47-2.82-5.65-3.65-2.19-.83-4.59-1.25-7.21-1.25h-13.68v47.25h13.68zM488.51 79.37V19.41h38.85v6.36h-31.19v20.1h29.37v6.36h-29.37v20.79h31.19v6.36h-38.85zM555 79.37c-5.17 0-9.58-.93-13.23-2.79-3.65-1.86-6.75-4.42-9.3-7.69l5.65-4.47c2.25 2.81 4.74 4.94 7.48 6.4s5.96 2.19 9.67 2.19c4.56 0 8.04-1.03 10.44-3.09 2.4-2.06 3.6-4.81 3.6-8.25 0-2.86-.91-5.07-2.74-6.61-1.82-1.55-4.83-2.78-9.03-3.69l-5.2-1.12c-5.84-1.26-10.29-3.16-13.36-5.71-3.07-2.55-4.61-6.14-4.61-10.78 0-2.63.52-4.98 1.55-7.04 1.03-2.06 2.48-3.78 4.33-5.15 1.85-1.37 4.07-2.42 6.66-3.14 2.58-.72 5.43-1.07 8.53-1.07 4.8 0 8.92.83 12.36 2.49 3.43 1.66 6.34 4.1 8.71 7.3l-5.75 3.95a19.472 19.472 0 0 0-6.38-5.41c-2.49-1.32-5.59-1.98-9.3-1.98-4.07 0-7.28.82-9.62 2.45-2.34 1.63-3.51 4.08-3.51 7.34 0 2.86.99 5.03 2.96 6.49 1.98 1.46 4.97 2.62 8.98 3.48l5.2 1.12c6.26 1.32 10.79 3.32 13.59 6.01 2.8 2.69 4.2 6.27 4.2 10.74 0 2.75-.5 5.24-1.5 7.47-1 2.23-2.45 4.12-4.33 5.67-1.89 1.55-4.18 2.75-6.89 3.61-2.7.85-5.76 1.28-9.16 1.28zM645.4 69.66h-.27c-.79 2.78-2.72 5.1-5.79 6.94-3.07 1.85-7.04 2.77-11.9 2.77-3.89 0-7.47-.67-10.72-2.02-3.25-1.35-6.04-3.32-8.35-5.93-2.31-2.61-4.12-5.84-5.43-9.71-1.31-3.87-1.96-8.32-1.96-13.36 0-4.98.64-9.41 1.92-13.27 1.28-3.87 3.1-7.1 5.47-9.71 2.37-2.61 5.23-4.6 8.57-5.97s7.05-2.06 11.13-2.06c5.71 0 10.49 1.19 14.32 3.56 3.83 2.38 6.78 5.54 8.85 9.49L644.95 34c-1.46-3.21-3.63-5.73-6.52-7.56-2.89-1.83-6.34-2.75-10.35-2.75-2.8 0-5.35.48-7.66 1.42-2.31.95-4.3 2.28-5.97 4.01s-2.96 3.79-3.88 6.21c-.91 2.41-1.37 5.11-1.37 8.1v9.74c0 2.99.46 5.7 1.37 8.15.91 2.44 2.2 4.53 3.88 6.25 1.67 1.72 3.72 3.06 6.16 4.01 2.43.95 5.17 1.42 8.21 1.42 2.19 0 4.27-.27 6.25-.82 1.98-.55 3.71-1.37 5.2-2.46 1.49-1.09 2.66-2.46 3.51-4.1.85-1.64 1.28-3.58 1.28-5.83v-5.95h-14.05V47.5h21.53v30.84h-7.11v-8.68zM678.42 42.77l-7.66-13.32h-.27v49.91H663V19.41h8.85L695.11 56l7.66 13.32h.27V19.41h7.48v59.96h-8.85l-23.25-36.6zM178.69 103.03h21.34c3.95 0 7.54.63 10.76 1.89 3.22 1.26 5.97 3.14 8.25 5.63 2.28 2.49 4.03 5.61 5.24 9.36 1.22 3.75 1.82 8.12 1.82 13.1s-.61 9.35-1.82 13.1c-1.22 3.75-2.96 6.87-5.24 9.36-2.28 2.49-5.03 4.37-8.25 5.63-3.22 1.26-6.81 1.89-10.76 1.89h-21.34v-59.96zm21.35 53.61c2.61 0 5.02-.42 7.21-1.25 2.19-.83 4.07-2.05 5.65-3.65s2.81-3.56 3.69-5.88c.88-2.32 1.32-4.97 1.32-7.95v-9.79c0-2.98-.44-5.63-1.32-7.95-.88-2.32-2.11-4.28-3.69-5.88-1.58-1.6-3.47-2.82-5.65-3.65-2.19-.83-4.59-1.25-7.21-1.25h-13.68v47.25h13.68zM271.14 162.99c-5.17 0-9.58-.93-13.23-2.79-3.65-1.86-6.75-4.42-9.3-7.69l5.65-4.47c2.25 2.81 4.74 4.94 7.48 6.4s5.96 2.19 9.67 2.19c4.56 0 8.04-1.03 10.44-3.09 2.4-2.06 3.6-4.81 3.6-8.25 0-2.86-.91-5.07-2.74-6.61-1.82-1.55-4.83-2.78-9.03-3.69l-5.2-1.12c-5.84-1.26-10.29-3.16-13.36-5.71-3.07-2.55-4.61-6.14-4.61-10.78 0-2.63.52-4.98 1.55-7.04 1.03-2.06 2.48-3.78 4.33-5.15 1.85-1.37 4.07-2.42 6.66-3.14 2.58-.72 5.43-1.07 8.53-1.07 4.8 0 8.92.83 12.36 2.49 3.43 1.66 6.34 4.1 8.71 7.3l-5.75 3.95a19.472 19.472 0 0 0-6.38-5.41c-2.49-1.32-5.59-1.98-9.3-1.98-4.07 0-7.28.82-9.62 2.45-2.34 1.63-3.51 4.08-3.51 7.34 0 2.86.99 5.03 2.96 6.49 1.98 1.46 4.97 2.62 8.98 3.48l5.2 1.12c6.26 1.32 10.79 3.32 13.59 6.01 2.8 2.69 4.2 6.27 4.2 10.74 0 2.75-.5 5.24-1.5 7.47-1 2.23-2.45 4.12-4.33 5.67-1.89 1.55-4.18 2.75-6.89 3.61-2.7.85-5.75 1.28-9.16 1.28zM321.95 109.39v53.6h-7.66v-53.6h-20.25v-6.36h48.16v6.36h-20.25zM355.78 162.99h-7.66v-59.96h25.36c5.59 0 9.96 1.46 13.09 4.38 3.13 2.92 4.7 7.13 4.7 12.63 0 4.41-1.08 8.03-3.24 10.87-2.16 2.83-5.34 4.71-9.53 5.63L393.09 163h-8.66l-13.77-25.77h-14.87v25.76zm17.7-31.95c3.04 0 5.4-.74 7.07-2.23s2.51-3.61 2.51-6.36v-4.47c0-2.75-.84-4.87-2.51-6.36-1.67-1.49-4.03-2.23-7.07-2.23h-17.69v21.65h17.69zM422.18 103.03h26.18c5.29 0 9.44 1.4 12.45 4.21s4.51 6.56 4.51 11.25c0 2.23-.33 4.12-1 5.67-.67 1.55-1.52 2.82-2.55 3.82-1.03 1-2.16 1.75-3.37 2.23-1.22.49-2.34.82-3.37.99v.52c1.15.06 2.45.34 3.88.86 1.43.52 2.78 1.33 4.06 2.45 1.28 1.12 2.36 2.55 3.24 4.3.88 1.75 1.32 3.85 1.32 6.31 0 2.46-.41 4.75-1.23 6.87-.82 2.12-1.96 3.95-3.42 5.5-1.46 1.55-3.19 2.76-5.2 3.65-2.01.89-4.2 1.33-6.57 1.33H422.2v-59.96zm7.66 25.95h17.6c3.04 0 5.41-.72 7.11-2.15 1.7-1.43 2.55-3.49 2.55-6.19v-2.92c0-2.69-.85-4.75-2.55-6.19-1.7-1.43-4.07-2.15-7.11-2.15h-17.6v19.6zm0 27.66h18.88c3.28 0 5.87-.79 7.75-2.36 1.88-1.57 2.83-3.88 2.83-6.92v-2.92c0-3.03-.94-5.34-2.83-6.92-1.89-1.57-4.47-2.36-7.75-2.36h-18.88v21.48zM484.38 102v37.17c0 5.74 1.12 10.08 3.37 13.03 2.25 2.95 6.2 4.43 11.86 4.43 5.65 0 9.61-1.48 11.86-4.43 2.25-2.95 3.37-7.3 3.37-13.03V102h7.66v35.39c0 4.35-.41 8.13-1.23 11.34-.82 3.21-2.14 5.87-3.97 7.99-1.82 2.12-4.21 3.69-7.16 4.72-2.95 1.03-6.55 1.55-10.81 1.55-4.26 0-7.83-.52-10.72-1.55-2.89-1.03-5.21-2.61-6.98-4.72-1.76-2.12-3.03-4.78-3.79-7.99-.76-3.21-1.14-6.99-1.14-11.34V102h7.68zM555.89 109.39v53.6h-7.66v-53.6h-20.25v-6.36h48.16v6.36h-20.25zM582.07 162.99v-59.96h38.85v6.36h-31.19v20.1h29.37v6.36h-29.37v20.79h31.19V163h-38.85zM630.68 103.03h21.34c3.95 0 7.54.63 10.76 1.89 3.22 1.26 5.97 3.14 8.25 5.63 2.28 2.49 4.03 5.61 5.24 9.36 1.22 3.75 1.82 8.12 1.82 13.1s-.61 9.35-1.82 13.1c-1.22 3.75-2.96 6.87-5.24 9.36-2.28 2.49-5.03 4.37-8.25 5.63-3.22 1.26-6.81 1.89-10.76 1.89h-21.34v-59.96zm21.34 53.61c2.61 0 5.02-.42 7.21-1.25 2.19-.83 4.07-2.05 5.65-3.65s2.81-3.56 3.69-5.88c.88-2.32 1.32-4.97 1.32-7.95v-9.79c0-2.98-.44-5.63-1.32-7.95-.88-2.32-2.11-4.28-3.69-5.88-1.58-1.6-3.47-2.82-5.65-3.65-2.19-.83-4.59-1.25-7.21-1.25h-13.68v47.25h13.68zM38.82 210.02l-7.66-13.31h-.27v49.91h-7.48v-59.96h8.85l23.26 36.6 7.66 13.32h.27v-49.91h7.48v59.96h-8.85l-23.26-36.61zM98.75 210.02l-7.66-13.31h-.27v49.91h-7.48v-59.96h8.85l23.26 36.6 7.66 13.32h.27v-49.91h7.48v59.96H122l-23.25-36.61zM167.06 246.62c-4.14 0-7.86-.67-11.17-2.02-3.32-1.34-6.14-3.32-8.48-5.93-2.34-2.61-4.15-5.84-5.43-9.71-1.28-3.87-1.92-8.32-1.92-13.36 0-5.04.64-9.48 1.92-13.32 1.28-3.84 3.09-7.07 5.43-9.71 2.34-2.63 5.17-4.62 8.48-5.97 3.31-1.34 7.04-2.02 11.17-2.02 4.07 0 7.78.67 11.13 2.02 3.34 1.35 6.19 3.34 8.53 5.97 2.34 2.63 4.15 5.87 5.43 9.71 1.28 3.84 1.92 8.28 1.92 13.32 0 5.04-.64 9.49-1.92 13.36-1.28 3.87-3.09 7.1-5.43 9.71-2.34 2.61-5.18 4.58-8.53 5.93-3.35 1.34-7.06 2.02-11.13 2.02zm-10.17-53.26c-3.55 2.42-6.34 6.73-7.26 9.15-.91 2.41-1.37 5.12-1.37 8.1v10c0 2.99.46 5.69 1.37 8.1.91 2.41 2.2 4.48 3.88 6.21 1.67 1.72 3.66 3.05 5.97 3.97 2.31.92 4.83 1.38 7.57 1.38s5.26-.46 7.57-1.38c2.31-.92 4.3-2.24 5.97-3.97 1.67-1.72 2.96-3.79 3.88-6.21.91-2.41 1.37-5.11 1.37-8.1v-10c0-2.99-.46-5.69-1.37-8.1-.91-2.41-2.2-4.48-3.88-6.21a16.82 16.82 0 0 0-5.97-3.96c-2.31-.92-4.83-1.38-7.57-1.38.01-.01-6.63-.01-10.16 2.4zM216.68 246.62l-21.16-59.96h8.21l10.49 30.24 7.02 22.51h.46l7.21-22.51 10.58-30.24h7.94L226 246.62h-9.32zM289.28 246.62l-6.38-17.7h-25.72l-6.38 17.7h-7.75l22.25-59.96h9.76l22.25 59.96h-8.03zm-19.06-53.26h-.46L259 222.56h21.98l-10.76-29.2zM318.83 193.01v53.6h-7.66v-53.6h-20.25v-6.36h48.16v6.36h-20.25zM387.96 246.62c-4.14 0-7.86-.67-11.17-2.02-3.32-1.34-6.14-3.32-8.48-5.93-2.34-2.61-4.15-5.84-5.43-9.71-1.28-3.87-1.92-8.32-1.92-13.36 0-5.04.64-9.48 1.92-13.32 1.28-3.84 3.09-7.07 5.43-9.71 2.34-2.63 5.17-4.62 8.48-5.97 3.31-1.34 7.04-2.02 11.17-2.02 4.07 0 7.78.67 11.13 2.02 3.34 1.35 6.19 3.34 8.53 5.97 2.34 2.63 4.15 5.87 5.43 9.71 1.28 3.84 1.92 8.28 1.92 13.32 0 5.04-.64 9.49-1.92 13.36-1.28 3.87-3.09 7.1-5.43 9.71-2.34 2.61-5.18 4.58-8.53 5.93-3.34 1.34-7.05 2.02-11.13 2.02zm0-6.36c2.74 0 5.26-.46 7.57-1.38 2.31-.92 4.3-2.24 5.97-3.97 1.67-1.72 2.96-3.79 3.88-6.21.91-2.41 1.37-5.11 1.37-8.1v-10c0-2.99-.46-5.69-1.37-8.1-.91-2.41-2.2-4.48-3.88-6.21a16.82 16.82 0 0 0-5.97-3.96c-2.31-.92-4.83-1.38-7.57-1.38s-5.26.46-7.57 1.38c-2.31.92-4.3 2.24-5.97 3.96-1.67 1.73-2.96 3.79-3.88 6.21-.91 2.41-1.37 5.12-1.37 8.1v10c0 2.99.46 5.69 1.37 8.1.91 2.41 2.2 4.48 3.88 6.21 1.67 1.72 3.66 3.05 5.97 3.97 2.31.92 4.84 1.38 7.57 1.38zM439.59 210.02l-7.66-13.31h-.27v49.91h-7.48v-59.96h8.85l23.26 36.6 7.66 13.32h.27v-49.91h7.48v59.96h-8.85l-23.26-36.61zM236.01 162.99V103.04h7.66V162.99h-7.66zM401.21 162.99V103.04h7.66V162.99h-7.66zM346.74 246.62V186.67h7.66V246.62h-7.66zM1.06 246.62V186.67h7.66V246.62H1.06zM583.28 79.37V19.41h7.66V79.36h-7.66z"/><g><path style="fill:none" d="M493.47 197.51h217.05v44.62H493.47z"/><text transform="translate(493.47 232.291)" style="letter-spacing:-1;font-size:47px;font-family:'IBMPlexSans-Italic'">by Fab City</text></g><path d="M0 0h710.52v2H0zM0 261.96h710.52v2H0z"/><g><path d="M.33 162v-57.97h34.55v6.15H7.3v19.43h25.16v6.15H7.3V162H.33zM63.69 162.99c-3.77 0-7.16-.65-10.17-1.95-3.02-1.3-5.59-3.21-7.72-5.73-2.13-2.52-3.78-5.65-4.94-9.38-1.16-3.74-1.74-8.04-1.74-12.91 0-4.87.58-9.16 1.74-12.87 1.16-3.71 2.81-6.84 4.94-9.38 2.13-2.55 4.7-4.47 7.72-5.77 3.02-1.3 6.41-1.95 10.17-1.95 3.71 0 7.09.65 10.13 1.95 3.04 1.3 5.63 3.23 7.77 5.77 2.13 2.55 3.78 5.68 4.94 9.38 1.16 3.71 1.74 8 1.74 12.87 0 4.87-.58 9.18-1.74 12.91-1.16 3.74-2.81 6.87-4.94 9.38a20.62 20.62 0 0 1-7.77 5.73c-3.04 1.3-6.42 1.95-10.13 1.95zm0-6.14c2.49 0 4.79-.44 6.89-1.33 2.1-.89 3.92-2.17 5.44-3.83 1.52-1.67 2.7-3.67 3.53-6 .83-2.33 1.25-4.94 1.25-7.83v-9.67c0-2.89-.41-5.5-1.25-7.83-.83-2.33-2.01-4.33-3.53-6s-3.34-2.94-5.44-3.83c-2.1-.89-4.4-1.33-6.89-1.33-2.49 0-4.79.44-6.89 1.33s-3.92 2.17-5.44 3.83c-1.52 1.67-2.7 3.67-3.53 6-.83 2.33-1.25 4.95-1.25 7.83v9.67c0 2.89.42 5.5 1.25 7.83.83 2.33 2.01 4.33 3.53 6s3.34 2.95 5.44 3.83c2.1.88 4.4 1.33 6.89 1.33zM104.47 162h-6.98v-57.97h23.09c5.09 0 9.06 1.41 11.92 4.24 2.85 2.82 4.28 6.89 4.28 12.21 0 4.26-.98 7.77-2.95 10.51-1.97 2.74-4.86 4.55-8.68 5.44L138.44 162h-7.89l-12.54-24.91h-13.54V162zm16.11-30.9c2.77 0 4.91-.72 6.44-2.16 1.52-1.44 2.28-3.49 2.28-6.15v-4.32c0-2.66-.76-4.71-2.28-6.15-1.52-1.44-3.67-2.16-6.44-2.16h-16.11v20.93h16.11z"/></g></svg>