<svg id="Layer_1" data-name="Layer 1" xmlns="http://www.w3.org/2000/svg" xmlns:xlink="http://www.w3.org/1999/xlink" viewBox="0 0 113.06 113.06"><defs><clipPath id="clip-path"><rect width="113.06" height="113.06" fill="none"/></clipPath></defs><title>Artboard 1</title><g clip-path="url(#clip-path)"><path d="M42.19,54.13v2.38a.42.42,0,0,0,.42.42h4.87a.42.42,0,0,1,.42.42V59a.42.42,0,0,1-.42.42H42.61a.42.42,0,0,0-.42.42v4.3a.42.42,0,0,1-.42.42H39.86a.42.42,0,0,1-.42-.42V51.61a.42.42,0,0,1,.42-.42h8.65a.42.42,0,0,1,.42.42v1.68a.42.42,0,0,1-.42.42h-5.9a.42.42,0,0,0-.42.42"/><path d="M55.42,58.47h2.2a.42.42,0,0,0,.39-.58l-1.44-3.56h-.1L55,57.89a.42.42,0,0,0,.39.58m6.66,2.7v3a.42.42,0,0,1-.42.42h-1.9a.42.42,0,0,1-.42-.42V61.52l-.25-.61H54l-.25.61v2.61a.42.42,0,0,1-.42.42H51.38a.42.42,0,0,1-.42-.42v-3A.32.32,0,0,1,51,61l4-9.56a.4.4,0,0,1,.38-.26h2.28a.4.4,0,0,1,.38.26L62,61a.32.32,0,0,1,0,.16"/><path d="M70.28,62c.88,0,1.17-.33,1.17-1.06v-.87c0-.73-.31-1.06-1.17-1.06H67.69a.42.42,0,0,0-.42.42v2.15a.42.42,0,0,0,.42.42Zm0-5.47c.86,0,1.17-.37,1.17-1.09v-.67c0-.72-.29-1-1.17-1H67.69a.42.42,0,0,0-.42.42v2a.42.42,0,0,0,.42.42Zm-5.74-4.91a.42.42,0,0,1,.42-.42h5.69c2.25,0,3.56.92,3.56,3.08v1.18a2.38,2.38,0,0,1-.92,2,.39.39,0,0,0,0,.64,2.38,2.38,0,0,1,.92,2v1.4c0,2.17-1.31,3.09-3.56,3.09H65a.42.42,0,0,1-.42-.42Z"/><path d="M44.12,67.72H41.46c-1.61,0-2.33.66-2.33,2.16v6c0,1.49.72,2.16,2.33,2.16h2.66c1.61,0,2.33-.67,2.33-2.16v-.62l-1.33-.41v.89c0,.78-.16,1-1.12,1H41.58c-1,0-1.12-.26-1.12-1V70c0-.81.15-1.06,1.12-1.06H44c1,0,1.12.25,1.12,1.06v.82l1.33-.38v-.58c0-1.5-.72-2.16-2.33-2.16"/><path d="M52.62,76.61V69.17a.2.2,0,0,1,.2-.21h2.51V67.72H48.56V69h2.52a.21.21,0,0,1,.21.21v7.44a.21.21,0,0,1-.21.2H48.39v1.26H55.5V76.81H52.82a.2.2,0,0,1-.2-.2"/><path d="M57,69h3.31a.21.21,0,0,1,.21.21v8.9H61.8v-8.9A.21.21,0,0,1,62,69h3.3V67.72H57Z"/><path d="M72.86,67.72V70a.18.18,0,0,1-.07.15l-2.33,2.15a.21.21,0,0,1-.28,0l-2.34-2.15a.2.2,0,0,1-.06-.15V67.72H66.45v2.62a.61.61,0,0,0,.21.47l2.93,2.68a.22.22,0,0,1,.06.15v4.43H71V73.64a.23.23,0,0,1,.07-.15L74,70.81a.63.63,0,0,0,.2-.47V67.72Z"/></g><polygon points="30.25 49.32 30.25 48.19 27.6 48.19 27.6 50.85 30.25 49.32"/><g clip-path="url(#clip-path)"><path d="M31.4,80.34a2.33,2.33,0,0,1-1.15-2V52.45L27.6,54V78.33a5,5,0,0,0,2.48,4.3l26,15.14,1.33-2.29Z"/></g><polygon points="27.6 47.8 27.6 48.55 30.25 48.55 30.25 46.27 27.6 47.8"/><g clip-path="url(#clip-path)"><path d="M83,14.49,59,.66a5,5,0,0,0-5,0l-24,13.83a5,5,0,0,0-2.48,4.3V44.67l2.65-1.52V18.79a2.31,2.31,0,0,1,1.16-2L55.36,3a2.34,2.34,0,0,1,2.32,0l24,13.84a2.31,2.31,0,0,1,1.16,2V48.86h2.65V18.79A5,5,0,0,0,83,14.49"/><path d="M51,98l-21,12.15a2.29,2.29,0,0,1-2.32,0l-24-13.83a2.31,2.31,0,0,1-1.16-2V66.6a2.32,2.32,0,0,1,1.15-2l26.06-15-1.33-2.29-26,15A5,5,0,0,0,0,66.6V94.26a5,5,0,0,0,2.48,4.3l24,13.83a4.94,4.94,0,0,0,5,0L53.68,99.47Z"/></g><polygon points="56.38 94.85 53.74 96.38 56.38 97.91 58.5 96.68 59.03 96.37 56.38 94.85"/><g clip-path="url(#clip-path)"><path d="M85.45,47.42H82.8V78.33a2.31,2.31,0,0,1-1.16,2l-22.55,13,2.65,1.52L83,82.63a5,5,0,0,0,2.49-4.3Z"/><path d="M110.57,62.3,88.16,49.42v3l21.09,12.12a2.31,2.31,0,0,1,1.16,2V94.26a2.31,2.31,0,0,1-1.16,2l-24,13.83a2.29,2.29,0,0,1-2.32,0L55.77,94.51l-1.31,2.3,27.19,15.58a4.94,4.94,0,0,0,5,0l24-13.83a5,5,0,0,0,2.48-4.3V66.6a5,5,0,0,0-2.49-4.3"/></g><polygon points="82.8 46.34 82.8 49.39 85.45 50.92 85.45 47.87 82.8 46.34"/><polygon points="80.09 44.79 79.51 44.45 78.19 46.74 80.09 47.84 80.09 44.79"/><g clip-path="url(#clip-path)"><path d="M80.09,44.75,59,32.54a5,5,0,0,0-5,0L30.33,46.22h0l-2.27,1.31,1.33,2.29,2-1.16h0l24-13.83a2.29,2.29,0,0,1,2.32,0L79.38,47.4l.71-1.23Z"/></g></svg>