<?xml version="1.0" encoding="utf-8"?>
<!-- Generator: Adobe Illustrator 22.1.0, SVG Export Plug-In . SVG Version: 6.00 Build 0)  -->
<svg version="1.1" id="Layer_1" xmlns="http://www.w3.org/2000/svg" xmlns:xlink="http://www.w3.org/1999/xlink" x="0px" y="0px"
	 viewBox="0 0 1174.9 682" style="enable-background:new 0 0 1174.9 682;" xml:space="preserve">
<style type="text/css">
	.st0{fill-rule:evenodd;clip-rule:evenodd;fill:none;stroke:#000000;stroke-width:2.000000e-02;stroke-miterlimit:2.6131;}
</style>
<g>
	<path class="st0" d="M943.7,425C943.5,425.9,943.6,425.5,943.7,425C943.7,425,943.7,425,943.7,425z M711.4,523.4
		c11.8-2.2,17.7-25,17.8-36c1.3-0.3,0.7,1.9,1.9,1.6c0.6-4.9-0.4-10-2.1-14.1c-0.9,1.4-0.7,1.5-2.2,1.3c-0.5,2.7-2.5,4.6-2.4,4.4
		c-0.5,3.7,0.1,2.3-2.3,5.1c0,0.1,0.2-1.4-0.1-1.4c-0.6,1.5-0.6,1.9-1.4,3.2c-1.5-0.2,0.3-0.3-1.8,1.6c-8.5-3.8-12.8,17.5-11.1,26.2
		C706.3,518.9,707.9,521.7,711.4,523.4z M519.8,408.3 M504.6,335.1 M502,336.5C502.5,335.8,502.4,336,502,336.5L502,336.5z
		 M434.5,193.2c-2.7-0.5-2.9-3.6-4.1,0.2c-0.5-0.5,0.2-2,0.6-2.6c-0.4,0.1-1.4,1.2-1.6,1.8c-0.2-0.4,0.5-1.9,1-2.4
		c-1-0.5-1.9,2-1.1-0.5c-0.2-0.1-1.2,1-1.1,1.1c0.4-1.3-0.9-0.4-1.1-0.5c0.5-0.6,1.9-1.8,2.1-2.4c0,0-1.3,1-1.4,0.5
		c0.9-0.9,1.6-1.6,2-2.2c-0.2,0.1-2.2,2.3-2.7,1.8c1.2,0.1,0.6-2.1,0.6-2.4c-0.4,0.3-0.4,0.5,0,0.8c-2.1,0.8-4.4,1.3-6.1,1.9
		c-0.7-2.5,1.8-1.2-1.8-2.4c-0.2-1.9,1-0.9,1.1-2.1c-0.8-0.5-2.3,0.9-2.9,0.1c0.3-0.7,1.7-1.2,1.9-1.9c-0.8-0.8-1.2,0.5-2-0.1
		c0,0,1.8-1.4,2-1.7c-0.8-0.9-1.5,1.3-2.1,0.7c-0.6-4.6-0.6-4.4-2.5-7.4c0.3-0.2,2-0.4,2.2-0.8c-0.9-0.4-1.6,0.2-2.4-0.4
		c0.6-1.7,2.6,0.5,0.7-1.1c-0.1,0.1,1.9-0.4,2-0.4c-0.9-0.3-2.4,0.2-3.1,0.2c1-1.5,1.5-1.1,0.1-2.3c1.2-0.7,2.8-0.1,4.1-0.9
		c-1.2-0.1-2.9,1-4,0.4c1.5-0.7,2.7-0.9,4-1c0,0-1.3-0.8-1.3-1.2c0.3,0.1,0.5,0,0.6-0.2c0.2-0.1,1.1,1.3,1.6,1.3
		c-0.9-0.2-0.6-2-0.2-2.4c-3,1.3-2,1-5.5,2.8c-0.8-3.8,1.3-1.6,2.5-4.1c0.1,0.3-3.1-1-3.4-2.2c2.3-0.7,3.8-1.4,5.7-2.1
		c-2.1-0.3-2.8-0.4-5,1.3c-0.1-0.7-0.1-2.2-1.3-2.2c1.2-1.5,2.8-0.2,4-1.6c-1.5-0.7-3.5,1.3-4.7,0.4c2.7-1.5,5.8-3.2,8.1-4.8
		c-2.7,1.2-5.4,2.5-8.2,3.8c0.2-0.1-0.3-1.7,0.1-1.8c0.9-0.3,1.9,0.2,3-0.3c-0.7-0.9-2.3,0.2-2.1-1.2c0,0.4,2.8-0.6,3.2-0.8
		c-0.1-0.3-0.1-0.6-0.1-0.9c0.1,0.4-3.5-0.8-3.7-0.9c1.6,0,1.3,0,0.4-0.7c1.7-0.6,3.8,0.2,5.6-0.3c-1.7-0.7-3.7-0.5-5.5-0.2
		c5.5-1.4,4-1.9,10.8-0.7c0.1,0.9-3.5-1.8-2.7-1.7c0.5-0.4,2.3,0.5,2.5-0.7c0.3,0-2.2-0.9-1.1,0.1c-2.9,0-0.3-0.5-1-1.3
		c-2.4,0.8-3.8,0.9-7.4,2c1.1-3.3,2.3-1.7,4.5-2.2c-0.3-0.4-3.1-1.4-2.7-2.3c2.6,1,3.6,0.8,7.4,2.8c-2.3-1.6-2.1-2.2-0.7-3.8
		c-2.7,0.9-1.5,1.3-4.7,0.4c1.2-0.6,0-0.4-0.5-0.5c2.4-0.7,4.3-1.5,6.2-2.1c-1.9,1-0.7-1.9-0.2-2.5c0.8,0.7,0.5,1.8,2,1.6
		c0-0.3,0.5,0,0.7,0c0-1.5-0.5-1-2.3-1.9c2.1-1.5,3-3.3,3.5-4.7c-4.9-1.2-6.1-3.5-10.6-6.6c3.3,1.1,7.5,1.9,10.3,3.6
		c-0.3-0.4-0.5,0.3-0.8,0.1c0-0.1-1-1.3-1-1.4c0.3-0.9,1-0.6-0.8-3.3c0.4-0.2,2.4,0.7,2.4,0.3c0.1,0-2.5-1.1-2.3-0.8
		c-0.2-1,1.5-0.9,1.6-1.3c-1.1-0.8-1.4,0.3-2.7,0.8c1-1.1,1.6-1.4,2.7-2.3c-0.1-0.2-2.5,0.3-3.1,0.1c0.9-0.6,2.6-1.2,3.5-2
		c-0.6-0.4-2.8,0.7-3.3-0.5c0-0.7,1.5-1.7,1.5-2.1c-0.6-0.4-1.6,1.8-2.3,1.9c0.4-0.7,0.4-2.9-0.2-3.5c0.2-0.3,0.3-0.6,0.2-1
		c-2.5,7.1-1.3,3.9-5.8,6.2c0.1-0.1-0.2-2.1-0.4-2.2c2.2-1,2.8-1.1,4.6-3c0.5-0.1-4.2,2.7-3.3,1c0.8-1,1.8-1.7,2.6-2.6
		c0.1-0.9-1.7-0.3-2.2-0.5c3.6-3.8,1.8-1.8,1.3-5.6c0.8-3.5,1.1-4.3,1.5-9.4c-0.5-0.7-1.8,1.6-2.4,0.9c2.2-8,1-21.8-11.6-18.8
		c-1.4-1.7-0.8-2.4-3.2-0.3c0.2,0.1-2-2.4-2.7-3.2c-1.3,0.7-0.3,2.6-0.9,3.5c-1.6-2.1-3.6-4.3-5.1-5.9c1.2-0.9,3.2-0.4,3.9-1.5
		c-3.1-1.4-3-0.6-1.8-4c-0.4-0.1-2.2,1.3-2.9,1.4c2.7-3.9,2-3,10.8-1.8c-0.7-0.6-4.7-2.1-5.3-2.4c2.3-0.2,4.6,1.6,6.2,1.5
		c-0.4-0.5,0.6-2.5,0.7-2.6c-1.9-0.2-3.6-1.1-5.6-2c-1.2,0.3,0.5,1-3,0.5c0.2-0.3,2.1-1.1,1.9-1.2c-1-0.3-1.5,0.2-2.3-0.2
		c0.6,0.7,1.8-1.9,1.8-1.9c-1-0.3-1.4,1.5-2.8,0.9c-0.8-1.3-0.2-2.5-2.6-4.5c6.9-7.2,22.8-6.8,29.1-15c-0.2-0.2-0.3-0.4-0.1-0.8
		c-2.4,0.4-4.4,0.5-7.1,0.8c2.2-4.7,5.5-7.8,10.4-10.1c0,0.7,0.2,4.1,0.4,4.8c0.9-1.2,1-3.9,1.7-5.3c3.9,0.1,6.3-1.2,9-7.1
		c0.3,2.6,1.8,4.6,2.7,7c-2-8.5,0.5-9.2,7-6.9c1.8-2.2,0.6-1.9,2.9-0.6c0.6-0.4-0.3-2.1-0.3-2.5c0.2,0.3,3.1,0.1,3.3-0.1
		c-1.5,4.7-1.9,7.7-3.8,12c1.5-1.9,3.2-4,4.6-6.2c0.4,0.7,1.2,4.5,1.9,4.6c0.3-0.1,0.5,0,0.7,0.2c0.2-0.3,0.8-1.8,0-1.9
		c-0.2,0.3,3.6,1,3.5,0.9c0-3.2,0.6-6.3,0.7-9.2c3.1,6.6,5.9,13.7,12.1,13.5c-3.4-4.5-3.4-9-4.6-14.5c1.6-0.5,2.8,1.6,4.2,2
		c4-0.8,5.2-1.2,9,5.5c-3.6-5.1-5.6-8.8-6.8-13.1c1.5-0.3,2.1-0.6,4.6-1.5c1.2,2.4,2.3,1.7,3.8,6c0.5-0.5,0.3-2.8,0-3.4
		c1.2,1.1,2,2.4,3.6,2.7c0-0.8-1.5-2.2-1.6-3.6c2.3-2.2,4.2-2.3,6.5-2.5c5.1-2.8,13-0.1,19.7,4.3c-5.2,1.4-11.8,0.5-14-0.7
		c-1.8,1-5.7,3.7-7.8,6.2c2.6-1.8,0.4-1.7,1.9-0.4c4.9-3.8,17.7-3.6,22.1-0.2c-3.7,0.9-2.6,0.6-4.3,1.2c21.3-1.1,1.8,9-12.4,8.3
		c1.7-1.3-4.5,3.1-5.5,4c0.3-0.1,0.7,1.7,0.7,1.7c5-4.1,10.4-4.6,17.6-3c0,0.3,0.1,0.4,0.3,0.6c-1.5,1.8-2.8,1.3-4.5,2.5
		c-0.2,0-0.2,1.8-0.2,1.8c5.8-2.4,7.6-1.2,12.3-4.1c-3.1,7.9-9.1,10.2-12.9,17.2c4.8-5.3,10.9-7.7,16.2-12.7c0.1,0.8,0,3.1,0.4,3.7
		c4.9-12.8,24.4,8.1-3.2,8.4c3.8,0.6,6.6,0.1,9.2,2c-3.1,0.5-7.5,2.3-10.9,2.7c1.5-0.2,0.8,1.5,0.3,1.7c2.4-0.8,4.8-0.7,7.4-0.5
		c-5.1,5.4-7.4,12.5-8.7,19.1c-1.4-0.2-0.5-2.1-1.4-2c0,0-1,0.5-0.9,0.5c0.3,2,2,4,3.8,5.6c-0.8-0.2-1.5-0.2-2.5-1.3
		c2.4,2.8,1.3,3.9,3.1,9.5c-3.5-2.7-3.7-1.9-6.8-2.5c0.3-0.3,0.7,1.2-1.5,1.1c1.5,1.8-1.1,2.7-1.2,3c2.3,1.3,2.8,0.8,5.8,1.5
		c0,0,0,1.3,0.1,1.4c-1-0.2-3.2,0.2-4.5,0.1c6.2,4.9,1.9,1.1,3.2,8c-1.1-1.1-2.8-3.7-4.8-5.4c1.2,2.1,0,1.8-1.3,0.4
		c0.9,1.8,3,2.5,4.7,4.2c-0.4,0-3.6,1.3-3.6,0.2c0.2,0.1,0.1-1.2-0.4-0.8c1.9,1.5,0.6,1.3,3.5,1.5c2,3.1-2.2,1.4,3,3.2
		c1,0.1-1.3,4.2-1.4,3.5c-1.4-0.6-3.8-2.8-5.2-3.7c-0.9,3.1-1,3.4-0.3,7.2c0.5-0.1,0.3-2.7,0.4-2.7c1.1,1.7,1.7,1.2,3.4,1.2
		c-5.2,4.6-2.1,5.5-9.5,1.5c1.5-0.2,2.7,1.9,4,0.7c-1.2-0.6-3.6-0.7-4.3-2.1c0,0.1-0.7,2.5-0.8,2.7c-1.5-0.5-1.5-3.2-2.8-3.5
		c-0.2,1.1,1.7,2.3,1.8,3.5c-4,0.4-2.8,0-6.2-1.1c0.1,0.3,1.6,2.7,1.6,2.8c-0.8-0.3-2.3,0.6-3,0.6c0,0,0.6,0.6,0.6,0.6
		c2.5-0.1,3.3-0.4,6.3,0.4c-1.3,0.2-4.4,0.6-5.8,1c1.2,0.4,2.7,0.3,0.3,1.3c2,0.2,3.6,0.4,5.6,0.6c0.9-0.2-4.4,2.5-4,1.6
		c6.4,1.4,8.1,4.4,9.2,6.4c0.9,0.3,0.9,0.1,0,3.1c-0.4-0.5,1.2-1.7,1.6-1.9c-0.1,3.4-0.4,3.3-0.6,7.9c-0.2-0.1-0.4-0.1-0.6,0
		c-1.8,0-0.3-3-1.3-3.6c-4.3,3.8-6.9-4.9-12.8-9c0.2,0.5-0.3,1.7-1,1.7c3.5,1.6-0.2,1.5-0.3,1.8c2.2,0.6,4.1,1.1,6.9,2.4
		c-2.2,0.3-5.1,0.7-6.4,0.7c-1.3,1.3-1.6,2.4-4.7,5.3c2.3,0.1,6,0.6,8.1,0.6c-1.7,0.3-4.1,0.7-5.6,1.1c5.6-0.9,9.6-0.8,16.2,0.5
		c-5.3,4.6-22.1,17.6-29.4,8c-0.1,7.2-5.1,12.6-10.7,13.5c-2.3,3.1-1.3,2.5-4.2,1.3c-0.3-0.4-0.4,1.9-0.6,1.9
		c-0.3-1.3,0.2-2,0.1-2.9c-0.2,0.2-1.2-0.8-1.3-1c-2.8,5.2-5,6.1-10.1,6.7c0.1,1.6,0.5,3,0.6,4.7c0,0.1-2.6-0.2-2.9,0.3
		c0.4,0.6,2.4,0.8,2.6,1.2c-0.5,0.9-1,1.4-0.6,2.7c-1.1-0.1-1.6-1.2-2.6-1c0.2,0.7,1.9,0.7,2.4,1.5c-1.4,0.3-1.6-0.2-3-0.2
		c0,0,0.4,2.8,0.8,2.4c-0.7,0.3-1.3-1.1-2-1.1c-0.2,0.9,1.2,1,1.4,1.8c-1.4,0.4-0.9-1-1.9-1c-0.5,1.8,0.8,1.2,1.7,2.2
		c-0.1,0-0.7,0.7-0.7,0.7c-2.5-0.7-1.8-0.9-4.1-0.3c0.6,0.9,2.6,1,2.5,2.5c-1,0.7-1.6-1.6-2.6-1.1c1.8,5.3,1.2,1.2-0.5,3.8
		c-0.1,1.9,1.2,2.3-1.9,3.4c0.3,0.7,1.8,0.4,2.3,1c-0.4,0.2-2.8,0.4-2.8,0.4c0.5,1.8,1.5,1.4,1.9,2.2c-0.8-0.1-2.7-0.2-3.8-0.1
		C435.5,191.8,434.3,192.2,434.5,193.2L434.5,193.2z M433.8,193.4 M487.1,133.7c2.4-0.6,5.2,0,7.7-0.8c0.6,1.5-0.7-3.3-0.7-2.9
		C490.7,130.4,489.3,133,487.1,133.7z M436.1,188.9C437,188.9,437,188.9,436.1,188.9L436.1,188.9z M439.6,182.1
		C439.9,182.2,439.7,182.2,439.6,182.1L439.6,182.1z M439.9,181.2 M440.2,180.1 M439.6,178.6C441.1,179.2,441.4,179.3,439.6,178.6
		L439.6,178.6z M442.5,178.2 M442.2,174C443.9,175.4,443.8,175.3,442.2,174L442.2,174z M446.6,166.2 M449.8,164.2
		C450.4,164.6,450.3,164.6,449.8,164.2L449.8,164.2z M450.7,163.4 M456.2,162.9 M458.3,162.6c-0.3-0.2-0.3-0.5,0-0.7
		C457.8,162.3,457.8,162.6,458.3,162.6z M498.6,140 M491.4,134.2 M488.4,131.4 M494.6,129.7 M498.6,116.8c1.7,1.7,2.1,4.2,4.9,5.3
		c0.2-0.3,0-0.8,0.5-0.9c0.3-0.8-1.6-0.8-1.8-1.4c0.2-0.1,0.3-0.3,0.4-0.5c0.4-0.1,1.7,1.2,2,0.6C502.7,117.1,500.9,118,498.6,116.8
		z M497.1,117.1c0.3-0.3,0.4-0.6,0.6-1C496.8,116.3,496.5,116.6,497.1,117.1z M498.6,115.9c2.4,0.4,4.5,1.5,6.5,2.1
		c-0.2-0.6-0.2-0.8,0.3-1.3C504.6,116.2,498.6,114.6,498.6,115.9z M495.9,113.5c2.7,1,3.6,2.4,7.2,1.5c-0.9-0.6-3.6-1-5-1.6
		c0.2,0,3.4,0.7,3.4,0.7C498.4,110.9,498.1,113.4,495.9,113.5z M506.4,115.2 M506.9,105c0.8,0.7-0.6,3.1,2.9,2.4
		C510.8,104,508.3,106.1,506.9,105L506.9,105z M513.4,104.5 M510.5,100.7C511.5,103.4,511.2,102.6,510.5,100.7L510.5,100.7z
		 M514.7,98c1.4,1.4-0.2,3.5,2.8,3.6c0.1-0.4,0.3-0.7,0.6-0.9C517.7,98.4,515.8,99.2,514.7,98L514.7,98z M515.5,87.2
		c0.1,1.5-0.2,4.2,0.2,6.2C516.5,91.2,515.7,89.4,515.5,87.2z M510.4,88.9 M509.6,87.8 M514,76.5 M518.3,79.2 M516.4,75.3
		 M516.8,72.8C517.1,73.2,517.1,73.2,516.8,72.8L516.8,72.8z M519.8,65.5 M517.8,55.6 M524.7,36.7 M522.7,38.9 M521.5,36.9
		 M485.7,11.9 M485.8,13.1 M483,13.2 M481.2,13.8 M471,16.5c1.4,0.1,1.8,3.8,2.6,0.2C471.7,14.4,472.6,16.6,471,16.5L471,16.5z
		 M470.4,17.1 M467.1,16.9 M465,23.3 M466,29.8 M465.9,30.6C467.6,33.4,467.1,32.5,465.9,30.6L465.9,30.6z M456.5,24.1 M455,28.3
		c-0.1-1,0-5-0.4-7.4C452.7,24.2,454.7,24.9,455,28.3z M418.2,33.9C419.5,34.9,419.4,34.8,418.2,33.9L418.2,33.9z M395,63.5
		 M391.7,63.6 M417.8,91.9C418.3,92.6,418.1,92.3,417.8,91.9L417.8,91.9z M417.9,94.9 M418.8,95.9C419.3,96.1,419.2,96.1,418.8,95.9
		L418.8,95.9z M418.9,100.3 M418.3,101.9 M419.2,104.6 M420.1,105.3C420.4,105.6,420.3,105.5,420.1,105.3L420.1,105.3z M418.1,105.8
		 M419,105.6 M418.7,106.5 M419.2,107.6 M419.7,108.2 M417.6,109.9 M418.7,111 M419.8,110.8 M419.3,111.5 M418.4,111.8 M417.3,114.1
		 M416.7,116.1C417.6,116.8,417.5,116.7,416.7,116.1L416.7,116.1z M431.7,194.9C433.2,194.3,432.9,194.5,431.7,194.9L431.7,194.9z
		 M428.1,192.8 M425.6,188.3 M424.3,188.1C424.8,188.3,425,188.4,424.3,188.1L424.3,188.1z M420.6,188.5 M415.9,167.7 M415.9,166.9
		 M413,160C413.2,160.3,413.3,160.5,413,160L413,160z M412.6,159.1C413.5,159.3,413.6,159.3,412.6,159.1L412.6,159.1z M413.1,152.5
		C414.1,152.4,414,152.4,413.1,152.5L413.1,152.5z M413.4,151.8 M412.2,151.5C412.6,151.7,412.7,151.7,412.2,151.5L412.2,151.5z
		 M413.9,145.7 M419.4,143.3 M417.2,140.2C417.5,140.3,419.2,140.8,417.2,140.2L417.2,140.2z M419.9,140
		C420.9,140.1,421.3,140.2,419.9,140L419.9,140z M418.4,139.6 M424.4,126.3C425,127.1,425,127.1,424.4,126.3L424.4,126.3z
		 M423.9,124.7C425.2,126.1,424.6,124.7,423.9,124.7L423.9,124.7z M422.1,120.1 M422.1,122.7 M420,122.9 M415.9,126.1
		C416.4,127,416.6,127.5,415.9,126.1L415.9,126.1z M423.9,132.5 M415.8,134.8c2.2-0.5,3.7,1.6,6.6-0.7c-2.2-2.9-3.1-4.2-6.4-6.3
		c-2.6,4.7,0,3.5,2.5,5.6C417.4,133.9,416.5,134.4,415.8,134.8z M357.7,48c1.3-1,2.2-2.9,2.8-4.2c0.2,0.6-0.1,1.2-0.2,1.8
		c1.3-1.8,2.4-3.5,3.8-6.8c-0.9,1.6-1.4,3.3-1.1,5.4c1.6-1,2.6-3.7,3.5-5.1c4.1-0.2,3.4-0.1,5.7-5.2c-0.4,0.1-1.1,2.5-1.9,1.9
		c-1.3-3.6,2.2-2-2.5-2.6c4.9-5.5,2.9-4.1,5.5-9.2c0,0.1-2.2,3.4-2.5,3.6c-1.5-5.4,0.1-13-6.1-17.1c0.1,0.6-0.1,1.1-0.5,1.6
		c0.7,0.7,3.2,0,3.4,1.3c-5.6,3.5-3.5,0.9-5.3,6.6c-3.5-0.8-1.9-1.2-3.4,1c-0.9-0.5-1.5-1.5-2.7-1.8c0.7,2,1,3.7,1,3.8
		c2.2,0.2,3.7,1,2.6,2.9c-1.9-0.4-3.2-1.9-4.7-2.5c-1.4,4.9,0,2.8,1.2,6c-3.1,1.6-2.8-0.1-4.3,3.2c3.3,0.9,1.3-1.1,1.7,1.5
		c3.4,0.6,1.8,1.1,6.6,2.1c-1.8,0.5-2.6-0.7-3.9,0.1c-0.1,0.2,3.9,0.7,4.1,0.9c-6.6-1.2-7.6,0.8-9,1.4c-1.1,3.3,0.5,1.5,1.8,3.2
		c-1.8-0.2-3-0.1-1.7,1.3c1.1,2.4,3.5,4.1,4.8,4.5c0.4-2,1.5-3.7,2.1-5.6C357.4,43.8,357.2,46,357.7,48z M359.4,18 M359.8,47.7
		C361.1,46,361.2,45.9,359.8,47.7L359.8,47.7z M366.9,41.2 M418.2,1.1C419.2,0.7,419.3,0.6,418.2,1.1L418.2,1.1z M393.5,49.2
		 M381.3,56.8C382.3,57.1,382.2,57.1,381.3,56.8L381.3,56.8z M364,56.5C364.2,54.5,364.1,55.5,364,56.5L364,56.5z M359.2,66.7
		c2.3-1.4,2.6-3.2,2.7,0.9c0.6,0,1.6-2.8,2.2-3.4c0,1.2-0.5,2.8-0.4,4c0.4-0.3,0.8-0.2,1.1,0.1c1-1.8,0-2.6,0.7-4.7
		c0.1,4,1.6,3.9,1.7,6.9c0.3,0.1,0.5,0.4,0.5,0.7c2.8-0.7,3.7-1.2,6-2.9c0.6-0.1-0.6,2.2,0.1,1.9c1.4-2,2.2-3.2,3.3-5.3
		c-1.1-0.6-2,1.3-2.9,1c-0.5-1.1,1.5-2.2,1-4c-3.4-0.6-3-0.1-6.2-0.2c0.6-0.7,0.5-1.2-0.2-1.6c1.8-1.7,1-0.8,2.8-3.8
		c5.6,10,8.4,0.3,16.7-0.7c-0.5-0.7-2.4-0.7-2.9-2c2.4,0.1,2.8,0.9,5.1-0.4c0.3-1.4-2-1.5-2.4-2.5c5.3-1.4,4.2,0.7,2.2-3.2
		c-0.3-0.6,1.6-0.7,1.7-1c-2.5-1-3.5-1.9-5.3-2.6c0.5-0.2,4.6,1.3,5.3,1.4c-0.3-0.7-3.6-1.7-3.5-2c3.2,1.3,4,1.6,6.7,3.9
		c0.2,0.1,0.2-2.5,0.8-2.5c-3.1-1-5.2-1.9-7.2-3.1c0.1-0.1,2.9,0.6,1.9-0.7c1.2,0.6,1.1,1.2,2.8,2c1.7-0.2-2.4-2.6-2-2.7
		c3.4,1.9,4.9,1.7,8.2,2.1c-0.1-0.2-2.5-4.6-2.7-3.5c6.1,2.6,5.6,0.9,10.4-0.3c-1.1-0.9-2.8-0.3-3.4-1.2c0.5,0.1,0.8-0.1,0.8-0.6
		c5.4,0.7,1.5,0.6,4-2.5c4.2,0.9,12.3-3.5,18.6-8.2c-4.1,0.5-9.9,0.8-13,1.3c2.8-0.2,6.8-1.7,10.3-2.5c-0.6-0.2-4.5-1.2-4.3-1.6
		c1.4,0.1,2.2-0.1,0.6-1.6c2.8,2.2,3.4,1.4,6.4,2.4c-0.3-0.1-1.5-0.9-1.3-0.9c6.8,1.6,16.8-4,9.9-7.9c0.7-1.9,2.3-3.5,1.9-5.5
		c-3.2-0.2-1.1,2-2.1-0.9c-2.1,1.1-4.2,0.5-8.7,1.4c2.2-1.1,4.1-1.1,6.3-2.8c-3.3-2.1-4.4-2.1-7.1-2.4c-1.2-0.9,0.4-1.2-3.7-0.9
		c-2.1-1.9,0.4-2.4-4.6,0c-2.8-2.6-1.8-3-6.8-4.2c-0.3,1.8,0.4,3.1-0.3,4.8c-0.4-0.2-0.8-0.2-1.2,0c-0.3-0.8,0.6-2.7,0-3.6
		c-1.8-0.7-2.7,0.6-6.1-0.7c0.5,1.1,1.5,2.3,2.1,4.3c-0.4,0-0.6,0.1-0.7,0.4c-1.3-1.5-1.4-1.9-1.7-0.3c-0.4-0.5-2.2-3.9-2.5-4.5
		c-0.1,2.1,0.3,4.6,0,6.6c-0.7-2.2-0.5-4.5-2.8-5.2c-0.3,1.9,0.4,1.5,0.9,3.2c-1.8,1-2.1,0.5-3.6,2.9c-0.5-1.1-0.6-1.2-1.5,0
		c-1.8-3.2-2-3-3.7-5.1c-0.5,3.7,0.3,1.3-2.5,2.2c0.8,1.7,1.5,4,1.8,5.6c1.1,0.1-1.1-2.1-0.7-0.1c-0.7-0.6,0.2-1.2-0.3-1.7
		c-0.9-0.2-0.8,1.3-1.1,1.7c-0.7-1-0.4-2.1-0.9-3.3c-0.6,0.2-2.1,2.6-1.4,2.8c-0.7-1.4-0.6-3-1.3-4.5c-0.2,0.3-2.1,3.1-2.3,3.2
		c-1-0.3,1-1.6-1.3,0.5c0.5,0-4.7,0-6.9,0.2c0.3,0.2,0.7,1.8,0.4,2c1.3-0.8,2.7-2.1,3.5-2.1c0.5,1.1-0.7,1.2,0.9,1.3
		c-0.2,0.9-3,0.7-3.2,2.6c1.6-0.4,3.8-1.7,5.5-0.9c-3.8,0.9-3.3,1.9-3.7,2.8c-0.3,0.5-2.2-0.1-2.8,0c0.2,0.5,0.1,0.9-0.3,1.2
		c4.7,0.6,6.4,1.5,11.9,0.6c-3.4,0.1-7.6,1-12.1,0.9c2.3,5.6,7.9,3.9,15.4,2.9c-6.6-0.3-6.2,1.2-11.5,3.3c4.5,0.6,4.3,1.1,8.7,0
		c-1.2,1.7,1.1,1.2,2.8,0.6c-0.4,0.5-3.8,2.2-4.1,2.4c7.9,0.5,11.4-1.9,17.5-5.6c-1.9,1.7-5,3.9-7,5.4c2.1,0.5,3.5,0,5.1,1.6
		c-2.2,0.2-6.5,0.5-8.8,0.2c0,0,2.8,1.6,2.7,1.6c-3.4-1.1-7.3-0.5-11-1.4c-1.5,4.4,0.4,4.5,1.8,6.8c-1.9-3.6-8.5-13.2-9.9-3.1
		c-0.1,0.1-1.9-1.9-2.3-0.8c-0.3,2.9,0.2,7.7,0.1,9.8c-0.5-0.2-0.5-2.5-1.5-1.2c3.9,1.7,1.6,3.6,6.7,2.2c-0.1,0.1-0.4,1.9-0.3,1.9
		c-0.7,0.2-2-0.4-2.9,0.2c0.2,0.4,1.3,1.1,1.3,1.2c-0.8-0.2-1,0.2-0.6,1c-5.7-6.8-12.3-3.4-14.9,2.4c1.5,0,2.7-0.7,4.2-0.7
		c0.2-0.1-1.6,2-1.2,2.2c0.5-0.1,1.1-0.1,1.5,0.1c1.5-1.3,2.7-3.1,4.1-4.3c-3.6,4.5-1.6,3.1-5.3,5.8c0,0.6,2,0.5,2,0.4
		c-0.6,1.1-1,0.6-1.9,1.7c-0.1,0,2.2-0.1,2-0.1c0.3,0-1.3,1.6-1.3,1.9c3-1,4.4-1.5,7.5-3.4c-7.7,10.1-18.7-6.7-12.4,5.5
		c-6.8-0.6-7.7,0.3-11.4,5.8c2.9,0.2-0.3-1.4,2.9-3.1c0.4,2.3-2.8,3.2,0.4,4.3c0.1-0.9,0.3-1.5,0.8-2.3c0.2,0.9-1,2.7,0.6,3.1
		c0,0,1.1-2.1,1.1-2.1c-0.3-0.2-0.4-0.4-0.3-0.8c1.7,4.3,0.5,1.8,4.5,5C358.1,63.4,358.2,66.4,359.2,66.7z M1097,638.3 M904.2,414.5
		C905,415.8,904.9,415.6,904.2,414.5L904.2,414.5z M902.3,410.5 M900.2,407.2l0.1,0.7C900.5,407.6,900.5,407.3,900.2,407.2
		L900.2,407.2z M897.8,405.5 M1088.2,474.9 M1085.4,475C1087.5,476.1,1087.4,476,1085.4,475L1085.4,475z M377.6,167.9 M377,164.2
		C377.2,163.5,377.1,163.8,377,164.2L377,164.2z M375.9,162.1C377.4,160.9,376.8,161.4,375.9,162.1L375.9,162.1z M370.5,111.2
		C370.8,110.1,370.7,110.5,370.5,111.2L370.5,111.2z M371.4,111.8C371.7,110.5,371.7,110.7,371.4,111.8L371.4,111.8z M370.3,113.5
		C370.8,111.5,370.8,111.7,370.3,113.5L370.3,113.5z M380.6,128.7 M379.4,128.5 M377.4,135.5C378.2,135.7,378.2,135.7,377.4,135.5
		L377.4,135.5z M380.1,138.6 M385.4,143.8C386.2,142.2,385.8,142.9,385.4,143.8L385.4,143.8z M388.1,147 M1034.8,248.5
		C1036.2,247.7,1035.9,247.9,1034.8,248.5L1034.8,248.5z M956.8,348 M964.1,339.2C965,340,964.5,339.6,964.1,339.2L964.1,339.2z
		 M969.4,319.5C970.9,320.4,971.1,320.5,969.4,319.5L969.4,319.5z M965.7,312.8 M450.8,645.8c-0.5-1.9-2.7-2.1-1.6-2.8
		C452.4,644.6,450.8,645.8,450.8,645.8z M583.2,433.4C584,432.3,584,432.4,583.2,433.4L583.2,433.4z M589.6,422.3
		C592.2,420.3,591.2,421,589.6,422.3L589.6,422.3z M472.9,293.2 M470,293.2l0.6,0.4C470.5,293.3,470.3,293.1,470,293.2L470,293.2z
		 M468.8,293.8C469.6,294.4,470.2,294.8,468.8,293.8L468.8,293.8z M478.1,296.9C478.1,297.2,478.2,297.9,478.1,296.9L478.1,296.9z
		 M477,374.3 M478,374.8 M480.5,375.6 M481.7,375.5 M484.6,375.3 M484.4,377.6C484.9,376.7,484.9,376.7,484.4,377.6L484.4,377.6z
		 M483.6,380.7C483.8,380,483.7,380.3,483.6,380.7L483.6,380.7z M481.9,381.4C482.7,379.4,482.1,381,481.9,381.4L481.9,381.4z
		 M506.1,317.6 M502.8,333.5C503,330.6,503,333.5,502.8,333.5L502.8,333.5z M508,334.5 M509.4,334.6
		C510.5,335.9,510.8,336.2,509.4,334.6L509.4,334.6z M515.8,332.1C516.9,331.3,517.5,330.9,515.8,332.1L515.8,332.1z M513.8,334.9
		C516.2,332.9,515.8,333.2,513.8,334.9L513.8,334.9z M369.2,74.3C373.2,70.9,370.9,72.9,369.2,74.3L369.2,74.3z M365.9,71
		 M347.5,62.8c-0.2-1.3-1.5-2.4-0.5-3.7C348.3,60.7,347.3,61.7,347.5,62.8L347.5,62.8z M347.3,25.2c0.4-3-3-2.8,1.3-5.1
		c0.9,0.9-1.2,0.5,1,0.9C349.3,22.3,347.5,23.8,347.3,25.2z M338.5,45.6c-0.3-2.1-1.2-4.1,1.5-3c-0.2-4.5-1.1-4,2.7-8.1
		C347.6,41.7,345.6,46.4,338.5,45.6L338.5,45.6z M346.3,44.5 M348.9,54.9c1.2-0.8-0.2-4.1,2.6-1.4C351,56.7,349,54.8,348.9,54.9z
		 M348,55.2 M337.9,49.9c3.1-0.8,4.1-4,8.2,0.4c-0.1,0.3-0.1,0.5,0.1,0.7C342.8,52.1,341.3,50.4,337.9,49.9L337.9,49.9z M329.7,38.5
		 M330.2,42.5c6.5,0.4,8.8-8.8,6.5-14.5c-0.5-0.6-3,1.7-3.4,1.8c-1.6-5.8,0.8-2.8-3.4-6.4c-1.9,3-0.5,3.8-0.5,3.8
		c0,0-2.1,1.9-2.2,2.4c0.8,0.2,1.9-1.9,2.7-1.5c-0.5,2-1.9,2.1,0.4,3.1c-4.2,1.3-0.8,1.1-5.7,1.4c0.1,0.6-0.2,1.1-0.7,1.5
		c0.9,0.2,3.3,1.3,5.5,1.5C330.6,37.1,329.4,40.1,330.2,42.5z M326.6,37.5C328.3,36.2,328.3,36.2,326.6,37.5L326.6,37.5z
		 M325.2,41.2c1.1,0.7,3.2-1.6,3.4,2.4C325.8,44.1,326.7,42.1,325.2,41.2z M316.6,47 M316.1,46.1c0.7-2,0.6-4.5,1.9-6.7
		C319.4,43,316.9,44,316.1,46.1L316.1,46.1z M308.4,30.4c-1.2-1.6-0.8-2.9-3.6-1.9c-0.2,0.1,0.7-1.7,0.7-1.7c3-0.3,6.3-0.9,8.9-0.9
		C313.6,33.6,311.5,30.5,308.4,30.4z M298.9,35.7c4.1-2.4,6-5.1,11.5-2C307.2,38.8,303.3,41.2,298.9,35.7z M298.1,33.3
		c0.3-0.8,2.4-0.9,2.2-3.4C296.7,29.7,298.8,31.4,298.1,33.3z M355.6,83.6c0,1.8,6.9,0.7,7.6-2.8c0.6,0,1,2.4,2.4,1.3
		c1-2.2-1.5-1.4-2.1-2.1c9.4-6.5-9-9.1-11.6-5.9c-2.1-0.9-2.9-0.4-2.8-3.1c-2.2,0.4-1,1.4-2.6-1.3c-1.2-0.4-1.3,1.6-1.8,1.8
		c-0.9-2.6,0.1-2.6-0.1-4.6c-1.5-0.8-1.9,0.8-3.4,0.2c1.5-1.2,1.6-0.2,2.8-1c0.2-0.1-2.3-2.4-2.4-2.6c0.4,0,0.5-0.2,0.4-0.5
		c2.1,1,2.9,1.7,5.2,2.5c-0.6-2.3-2.5-2.6-3.7-4.5c0.3,0,2.2,0.2,2.2,1c-3.7-0.8-1.9-3.9-7.3-0.7c2-7.7-1.6-8.4-5.6-6.9
		c0,2,1.5,4.2,2.4,5.6c-0.2,0-2.2-0.6-1.9,0.8c2.7,0.2,3.7,0.9,6,0.9c-2.3,5.9-3.4,10.7-3.3,15.5c0.6-0.1,1-1.7,1.9-1.6
		c2.2,2.2,1.1,3.3,4.8,1.4c0.3,1.4-1.3,1.9-1.3,3.1c2.1,0.5,5.8,0.1,5.2-0.1c1.2,2.3,2.3,1.7,4.2,0.5c2,0.1,2.8,5.2,4.8-1
		C356.4,80.7,356,81.6,355.6,83.6z M332.2,52.7 M331,56.9c0.3-0.3,0.5-0.6,0.6-0.9C331.7,56.5,331.5,56.8,331,56.9L331,56.9z
		 M314.6,62.8 M325.3,52.5C326.2,54,326,53.7,325.3,52.5L325.3,52.5z M320.1,52.7 M314.9,54.5c-0.3-1.5-2.9-1.2-1.2-3.9
		c-0.9-0.3,1.8,0.3,1.4,0.4C315.5,51.9,314.6,53.2,314.9,54.5L314.9,54.5z M314,57 M311.5,57.9c1.9-0.1,2.9,0.7,4.1-0.4
		C314.2,57.4,312,57.9,311.5,57.9z M311.3,59.7c1.7-0.2,3-1.2,4.4-0.7C313.9,60,312.2,59.6,311.3,59.7z M295.2,39.2
		C295.4,38.9,296.1,37.9,295.2,39.2L295.2,39.2z M290.7,41.2 M266.7,42.5 M269.3,45.9 M270.5,44.8c2.1-0.6,2.7-3.8,1.1,1.4
		c0.4-0.1,0.9-0.9,0.8,0.2c2.6-1.2,2.1-2.4,3.8-4.1c0.2-0.1-0.1,2.6,0.3,2.7c2.6-3.6,3.8-4.6,6.7-7c-0.9,1.9-2,5-2.8,7
		c6.1-2.8,10.7-6.2,11.7-12.8c-2,0.2-1.8,2-2.9,2.4c-6.3-3-20,4.5-22.6,8.7C269.3,42.1,268.6,43.9,270.5,44.8z M335.4,83.1
		 M327.9,68.1c-3.8,1.8-4.5,4.8,2.1,7.7C333.3,68.2,330,69.4,327.9,68.1L327.9,68.1z M332.3,62.8C331.9,61.5,332.6,62.8,332.3,62.8
		L332.3,62.8z M331.5,66.3 M326.8,64.8C327.2,64.3,328,63.5,326.8,64.8L326.8,64.8z M325.6,65.6C325.9,65.2,326.3,64.7,325.6,65.6
		L325.6,65.6z M326.5,67.1C327.1,65.5,327,65.9,326.5,67.1L326.5,67.1z M325.2,67.7C325.7,66.1,325.8,65.7,325.2,67.7L325.2,67.7z
		 M323.4,68.1C323.7,67.4,323.7,67.4,323.4,68.1L323.4,68.1z M316.4,69c-1.1-2.4-1-1.7-1.2-4.1c0.3,0,3.9-0.9,2.1-0.6
		c0.9,0.6,4-1.4,3.7-1.1c-3-0.4-6.8-1.6-8.4-2c2.9-1.6,1.6-0.1,3.7,0.4c0.4-1.7,0.8-5.3,1-5.6c-0.2-0.2,1.5-1.1,1.5-1.1
		c0.4,1.8,1.3,4.4,1.9,6.1c0.3-4.8,0.8-8.9,4.5-4.2c1-0.5,2.6-2.7,2.6-2.7c0.2,3.8-1.4,8.6-3.9,12.2c-0.2,0.3-1.2,0.6-2.1,3
		c-0.8-0.2-3.3-1-3.9-1.3C317.1,68.3,316.8,68.6,316.4,69L316.4,69z M272.1,50.3c2.2-1.3,3.8-3.9,7.6-4.2
		C277,49.7,273.6,49.5,272.1,50.3L272.1,50.3z M304.9,64.3c1.2-0.6,1.1-2.6,2.8-1.7C307.6,66.4,306,63.7,304.9,64.3z M278.6,63.3
		c2.2-0.8,7-3.7,11.2-3.7c-2.2-0.5-4.4-0.2-7.5-0.4c-0.2,0,1-1.9,1.5-1.7c-5,2.2-6,1.3-9.9-2.2c2.2-0.7,4.4-1.7,7.9-2.4
		c-1-1.3-3.6,0.2-4.3-1.1c2.6-1.9,4.7-0.5,6.8-1.8c-0.8-1.2-2.9-0.3-3.8-1.7c3.1-2.3,2.4-0.8,5.5-0.7c0.3-0.4-1.5-1.5-1.4-2
		c6.1,0.6,7.2,2.6,5.7,7.6c1.1,2.2,1.8-0.4,1,3.7c1.5,0.4,3.5,0.8,5.3,1.3c-0.5-5.3,1.7-9.4,7.2-11.8c-0.9,2.4-2.1,5-3.2,7.5
		c0,0.1,2.3-0.7,2.1,0.2c-0.9,1.2-1.9,2.3-2.5,3.2c4.8-2.4,0.7-0.1,2.8,0.9c1.4-0.5,1.7-2.3,3.1-3.3
		C306.9,65.8,288.2,67.1,278.6,63.3z M238,84.6c-1.5-4.8,2.6-6.4-1.9-8.5c4.4-2.6,28.8-29.1,27.6-11.1c17.1-1.5-17.2,18.1-20.2,17.3
		C241.9,84.2,239.7,84.7,238,84.6z M324.8,74.4 M318.1,74.5C320,73.7,320,73.6,318.1,74.5L318.1,74.5z M311.6,78.2
		c2.3,0.2,3.3,1.7,6,0.4C315.5,77.4,314.2,78.4,311.6,78.2L311.6,78.2z M307.8,102C307.9,101.2,307.9,101.1,307.8,102L307.8,102z
		 M303.7,101.3c-2.3-5.6-8.7-23.4,1-12.6c1.1-3.5,1.2-2.9,3.3-3.4c-0.2-0.2-0.8-1.6-0.7-1.9c-0.6-0.5-1.2,0.1-2.4-2.1
		c0.3-0.3,1.3-0.3,1.1-0.9c0.3-0.6,1.1,2.5,1.2,2.2c0.2-6,4-5.3,10.1-2.4c0,0,0.1,1.2,0.2,1.3c-2.9,1.5-2.7,3.4-7.1,5.8
		c5.1,1.1,0.9-0.2,2.7,3.6c-0.3-0.6,1.4-1.4,1.8-1.3c-1.8,6.7-5.3,9.9-8.5,6.1C306.3,96.9,305.7,101.3,303.7,101.3L303.7,101.3z
		 M315.2,85.5C315.5,85.8,315.6,85.9,315.2,85.5L315.2,85.5z M314.7,88.3 M314.3,89.7 M288.2,75.1C289.1,75.5,290.1,76,288.2,75.1
		L288.2,75.1z M292.6,83.6 M317.1,97.6c-3.2-3,0.5-8.8,3.7-15.6c0.3-0.3,1.1,1.8,1.8,1.7c2.3-5.2,7.1-3.6,12.1,0.9
		c-3.9,5.6-9,9-15.1,6.5C320.8,92.5,318.3,98.5,317.1,97.6z M359,100.5c-2.2-3.6-3.4-5.8-0.4-9.8c5.6,2.7,7.4,4.3,8.5,9.7
		c-0.3,0.2-0.5,0.4-0.6,0.7C363.4,99.3,361.7,100.7,359,100.5L359,100.5z M355.1,101.6 M356.1,102.2
		C356.3,101.4,356.3,101.4,356.1,102.2L356.1,102.2z M357.9,102.2 M315.6,116.6C316.1,116.2,316.6,115.7,315.6,116.6L315.6,116.6z
		 M317.7,120 M317,120.1 M330.1,117.7 M337.6,120.7 M338.4,120.8 M339.5,121.1 M347.3,131.8C348.2,130.1,347.9,130.7,347.3,131.8
		L347.3,131.8z M346.7,133.8 M342,123.5 M341,123.6 M341.2,124.1 M345.6,122.3 M353.3,121.8C353.8,121,353.7,121.2,353.3,121.8
		L353.3,121.8z M350.6,124.9C352.9,123.5,353,123.4,350.6,124.9L350.6,124.9z M348.1,129.1c1.1-2.1,2.7-1.3,2.7-3.4
		C347.6,127.1,347.9,129.5,348.1,129.1z M353.6,128.5C355.2,126.2,355,126.6,353.6,128.5L353.6,128.5z M358,134 M358.6,133.5
		C359,131.7,358.7,133,358.6,133.5L358.6,133.5z M359.5,134.9 M357.3,136.3c1.3,0.8,0.4,2.9,3.2,1.7
		C359.3,135.5,358.5,137.1,357.3,136.3L357.3,136.3z M339.4,161.3 M329.4,144.8 M327.2,148.6c-0.4-1.7-2.2-2.9-1.1-3
		C328.3,147.2,327.2,148.6,327.2,148.6L327.2,148.6z M323.2,148.3C324,144.8,323.8,145.5,323.2,148.3L323.2,148.3z M322.9,132.2
		C323.6,132.6,324.7,133.3,322.9,132.2L322.9,132.2z M323.1,131.9C325.6,129.2,324.6,130.3,323.1,131.9L323.1,131.9z M290.3,125.2
		 M262.5,117.3 M260.2,118.4 M261.2,120.8C261.4,119.7,261.2,120.8,261.2,120.8L261.2,120.8z M261.2,121.1 M262.3,122.6
		C263.5,123,263.6,123,262.3,122.6L262.3,122.6z M261.4,126.7 M286.7,111.2C287.2,110.5,286.9,111,286.7,111.2L286.7,111.2z
		 M295.1,106.1C295.5,103.3,295.4,104.3,295.1,106.1L295.1,106.1z M285.7,116.3c-0.4-0.8,0.6-3.5,0.8-4c-1.6,0.2-2.2,0.2-4.1,1.4
		c0.4-1.8,1.6-1.8,1-4c1.9,3.1,1.8,0.3,3.9-0.9c0.1,0.8,0.4,0.8,0.9,0.1c0.9,1-1.1,4.4,1.8,0.3c0.1,0-1.2,2.1-0.5,2.4
		c0.4-0.1,0.7,0,0.9,0.3c1.2-4.8,1-4.9-1.4-10.1c-6.7-4.3,8.3-19.2-1.9-24.3c-2.4,4.4-4.9,10.8-5,14.6c-1.6-0.5-1.7,0.5-2.4,1.4
		c1.2-4.4,0.3-9.3,1.2-13.4c-0.5,0-0.9-0.3-1-0.9c-0.1,2.3-0.5,2.7-1.2,5c-0.6,0,0.1-1.8-0.6,0.2c-1.2,0-3.5-0.5-6.4-1.4
		c6.2-5.9,0.8-5.3-5.1-3.9c2.7-2.5,2.3-3.4,4.2-6.1c-9.4,1.2-16.2,5.1-20.1,11.1c0.8,0.8,1.8-0.3,3,0.7c0.7,0.7-2.2,0.7-2.2,0.7
		c2.2,0.4,5.1,1.8,8.8,2.3c-22.3-4.1,1,7.6,4.6,12.5c-0.2,0.2-0.2,0.3,0,0.6c-10.7-5.2-26,0.4-10.4,6.8c-1.2,2.1-1.5,3.8-2.2,5.5
		c7.3,1.7,15.5,0.8,21.3-3.7c0.2,0.1,0.4,0.2,0.6,0.1c0.2,4,1.8,2.7,1.5,5.4C279.2,116.4,281.9,116.8,285.7,116.3z M349.3,140.4
		 M288.8,114.2C289.9,112.2,289.7,112.6,288.8,114.2L288.8,114.2z M283.1,119.5 M289.9,118.3 M290.7,117.4 M303.3,117.6
		 M302.7,116.8 M302.3,122.7c0.4-2.2,1.3-0.5,1-3.8c-0.7,0.2-1.1,0.7-1.2,1.4c-0.3-4.6-0.5-4-1.9-5.2c-0.4-0.7,0.7-2.2,0.3-3.2
		c-4.1,3-3.3,2.3-8.3,5.8c0,0.6,0.3,1.2,0.8,1.6C294.1,120.5,298.2,122.5,302.3,122.7z M372,118 M370.4,177.7
		c-7.4-3.5-10.2-5.5-15.1-10.8c0.7-0.5,2.2-0.1,2.6-1.4c-2-0.5-2.9-0.9-2.3-2.4c-0.9-1.4-1.7-3-2.8-2.5c-1.3-2.3-1.8,1.3-1.3-2.3
		c-7.2,3.5-12.9,1.2-7.7-6.4c5,2.3,7.8,2.1,10.1,2.9c0.9-9.2,9.1-9.2,9.7-19.2c-2.2-1.1-0.7-1.5-2.9-3.6c0.2,0.1-0.5,1.4-1.1,1.5
		c-2.1-2.3,0-2.4,0.1-4.1c-2.2,1.1-2.4,0.6-5.2,1.7c0.1-0.2,0.5-1.2-0.1-1.3c0.3-0.8,2.2-0.9,3-1.7c-2.2-3.9-2.3-1.5-1.3-4.3
		c-0.4-0.9-3-0.6-2.7-0.3c0.1-1.6,1.7-2.9,1.7-4.5c-1.5-2-1.5-0.8-2.7-4.2c-0.6,4.7-0.8,6.6-7.6,4.9c-0.6-0.2,1.2,2.1,0.6,2.1
		c-1.2-1.8-3.8-3.3-5.2-5.1c0.1,0.2,2.5,3.9,2.6,3.9c-0.2-0.3-0.4-0.3-0.6,0.1c-4.2-2.2-4.6-3.2-5.8-4.6c-4.1-1-3.7,3.8-4-2.2
		c-5.4,2.1-5.4,0.3-6.7-6.3c2.4,1.3,3.7,1.6,6.3,1.9c-12.7-7.1,3.8-25.1,15.6-20.9c-9.3,4.9-10.4,14.9-10.9,19.9
		c2.4,0.7,0.5,1.2,0.6,3.2c1-4.6,4-5.2,1.4-10c2.1,0,1.7-0.1,3.2,0c0.1-0.9,1.3-2.3,2.2-2.5c-1.8-3.2-0.2,0.4-1.2-4.8
		c0.6,0.4,2.7,2.4,3.4,2.3c-0.3-0.4-2.9-2.9-2.9-2.9c2.3-0.3,1.9-0.3,4.1,1.2c-1.1-1.5-1.6-1.7-2-3.1c2-0.5,1.7,0.8,3.7,1.6
		c2.5-2.1,2.1-2.5,7.2-2.9c-1.4,5.5-0.3,7.1-4.4,11.4c0-0.5,2.4-1.1,2.7-1.4c-1.1,1.4-2.3,2.8-3,3.3c1.1-0.7-0.1,1.5,0,1.2
		c3.2-2.4,1.9-1.5,3.5-3.4c0.8,1.4,0.4,1.2,1.8,0.2c-0.1,0.5-1.3,3.3-1.4,3.8c1.2-0.6,2.2-1.5,2.6-0.1c1.6-1.5-0.8-4.6,3.9-0.3
		c0.1-0.6-2.5-2.4-2.9-2.7c8-1.4,8-0.3,5.1,4.6c3,0.2,2.3,0.1-0.5,2.6c1-0.4,3.6-2.3,4.4-2.8c0.2,0.3,0.4,0.4,0.8,0.3
		c-1.3,1.6-1.9,1.5-3.3,2.7c0.2,1.5,2.4-2-0.3,1c0.3,0,1.9-0.4,2-0.7c0,0.8-1.4,1.9-2.4,3c2.3-1.6,3.4-2.2,5.4-3.4
		c-1.6,1.9-2.5,1.8-2.9,3.8c0,0,1.8-2.2,2.4-2.3c-0.5,1.3-1.4,2.5-2,3.9c0.3-0.4,1.8-2,2.2-2c0.1,0.3,0.2,0.4,0.4,0.6
		c-0.6,0.4-1.3,1.7-1,2.4c1.4-1.1,2.5-3.9,3.5-5.5c0.2,0.5,2.1,3.9,2.5,4.2c-4.1,0.8-3.5,2-5.5,3.6c3.5-0.5,4.4,0.5,5.9-2.4
		c-1.4,1.8-2.5,4-4.6,5.6c0.8-0.5,1.2-1.5,2-1.9c0.1,0.2,0.2,0.3,0.4,0.2c-0.4,1-1.5,1.9-2,2.9c1.6-2.5,3.5-3.3,5.7-4.9
		c0.8,0.4-2.6,1.8-2,2.3c3.8-0.2,2.9-2.8,5.6,1.6c-1.1,0.3-4.2,1.3-6.8,2.5c0.6,0.3,0.8,0.9,4.6-0.8c-0.9,0.5-3.1,2.4-4.4,3.1
		c3.3-1.2,4.3-1.8,6.4-3.7c0.1,0.2,0.2,0.2,0.4,0c0.1,0.2,1.2,3.9,1.2,3.9c-1.4,0.1-4.4,0.2-6,1.1c3,1.2,4.9,0.4,6.3,3.6
		c-1.8-0.1-3.1-1-5.5-1.5c1,1.2,0.7,1.2-1.1,1.9c0.2,0,2.6-0.2,2.7-0.2c-0.1,0.1,0.5,0.7,0.5,0.7c-1,0.3-1.4-0.2-2.1,0
		c0.5-0.4,1.3,1.3,1.4,1.6c-1.4,0.1-2.8-0.7-4.2-0.7c0.6,0.4,3,0.7,2.7,1.6c-0.4-1.1-1.6-0.1-2,0.1c3.4,1.2,1.6,0.8,5.2,1.5
		c-0.1,0.3-0.2,0.5-0.3,0.8c-3.9-0.1-1.5-0.5-0.9,0.4c0.1,0.2,0.8,0.9,1,3c0.1,0,0.6-1.1,1.2-1.2c0.3,0.7-0.8,2.2-1,3
		c0.8-1.2,1.5-2,2.4-3.1c0.3,0.5-0.9,2.2-0.9,3.2c0.8-1,1.3-2,2.4-3.1c-0.1,0.7-1.4,2.2-1.3,2.6c3.2,0.2,1.4,1.3,1.5,2.3
		c0.1,1.2,0.1,0.6,1.1,2.2c3.5-1.6,2.4-0.9,0.2,1.7c1.8-1.8,1.9-2.2,1.4,0.6c2.3-0.6,0.7-0.7,2.9-1.9c3,3.3,0.9,2-0.6,3.1
		c1,1.4,0.4,0.2,1.5,1.5c-3.1-0.3-2.7,0.1-3.9-0.1c0.3,1.5,3.1,3.1-0.7,1.1c-0.1,0.3,1.3,1.3,0.8,2.4c-2.6-1,0.2-0.9-1.2,0.9
		c-1.4,0.5-0.9-1.5-1.9-2.1c-0.3,2.8-0.9,2.9-0.8,5.8c-0.4,0-0.7,0.1-0.8,0.5c-2.1-2-1.9-1.4-2.8-1.9c0.3-3.2-1-3.5-1-4.3
		c1.2-1,2.5-2.3,3.5-3.5c-1.6,0.7-3.2,1.5-4.7,2.1c0-0.6,2.7-2,2-2.6c-3.6-1.1-2,2.4-4-2.1c-0.1,1-0.7,1.3-1.6,0.4
		c0-0.1,1.7,1.2,1.1,1.6c-1.2,0.8-0.8-1-1.7-0.9c-0.4,0.6,1,2.6,1.2,3.4c-0.4-0.4-1.6-0.1-1.8,0.3c-0.8-1.5-0.9-2-2.1-3.1
		c0.3,0.3-1.8,0.3-1.7,0.3c4.7,2,1.1,2.6,1.4,5.2c2.2,1.2,4.3,3.2,5.8,4.6c1.2,5,2.3,6.8-0.1,6.5c-0.2,4.9,0.1,4.6-0.8,7.5
		c-3-3-2.8-2.4-4.3-6.1c0.9,0.5-0.9,2.8-2.6-1.5c-0.8-0.1-0.1,1.8,0,1.8c-0.9-0.6-2.1-2.4-2.6-3c-0.1,0.5-0.4,0.6-0.7,0.2
		C368.1,170.9,370.1,173.7,370.4,177.7z M313.5,160.9c2.6-1.5,3.1,0.4,2.4,3.1c2.8-2.3,6.8-3.3,8.9-5.9c3.6,5.1,0.9,2.4,7.3,3.4
		c-0.7-0.4-0.9-0.7-0.1-1.1c-0.4-0.1-0.6-0.3-0.7-0.7c-0.4-0.1-2.4,0.8-3.5,0c0.3-5.3-2-7.9-5.6-8.8c-0.2-2.2-0.2-2.9,0.1-4.6
		C318.6,150.5,315.4,156.1,313.5,160.9z M319,170.8c1.3-1.4,4.7-1.5,6.8-4.1C320.4,165.2,321.5,168.4,319,170.8z M374,175.2
		 M356.8,170.6C359.1,172.3,359.5,172.6,356.8,170.6L356.8,170.6z M373.3,179.6 M372.7,181.6C372,178.6,372.3,179.9,372.7,181.6
		L372.7,181.6z M355.7,191.9 M356.1,192 M356.5,191.9 M361,186.8C363.1,184.7,363.5,184.3,361,186.8L361,186.8z M346.1,170
		C348.4,171.2,348.5,171.2,346.1,170L346.1,170z M341,165.4 M337.5,167.1c0-1.1,3.3-1.1-0.3-3C334.6,164.7,337.5,165.3,337.5,167.1z
		 M336.9,170 M329.4,175.3c0.7-2.1,2.3-2.8,2.3-5.3c-0.6,0.1-0.7,0.1-1.2-0.3C327.2,172.3,330,173.4,329.4,175.3z M322.5,203.8
		C323,204.1,322.8,203.9,322.5,203.8L322.5,203.8z M322.9,206.7 M318.9,205.8c0.5-0.6,1.1-1.1,2-1.4
		C320.6,205.3,319.8,205.9,318.9,205.8z M321.7,207c1.7-3.9,0.2,0.6,0.4,0.1c0.3-0.4,0.6-0.8,1-1.2c0.7,0-0.9-1.9-0.8-1.8
		c-0.7,0.6-0.5,1.5-1.5,2.1c0,0,1.2-1.6,0.7-1.7c-0.7,0.9-1.5,2.7-2,3.3C319.7,207.7,321.8,207.2,321.7,207z M321,207
		c0-0.6,0.4-1.1,1-1.4C321.9,206.2,321.5,206.8,321,207L321,207z M367,253.7 M383.8,256.8C384,253.7,383.9,254.9,383.8,256.8
		L383.8,256.8z M384.4,257.1 M391,233.1 M389,238.1C389.6,238.5,389.6,238.5,389,238.1L389,238.1z M392.5,243.9 M390.9,243.7
		 M385.4,252.5C385.9,252.2,385.7,252.3,385.4,252.5L385.4,252.5z M392.6,250.5C393.1,250.7,394.1,251.2,392.6,250.5L392.6,250.5z
		 M385,237.5c-2.5,4-4.9,7.3-7.3,9.7c-0.8,0.5-0.3-0.2,0.1-0.9c-1.5,1.7-2.5,2.2,0.7,1.5c-1.3,1.8-2.5,3-3.3,4.4
		c4,0.6,7.6,0.1,10.5-1.1c0.4,0.3,0.8,0.9-0.5,1.9c0.1,0.4,3.9-0.2,4.4-0.4c-1.5,1.2-2.9,1.9-4.4,3.1c0.1,0.1,0.2,0.3,0.3,0.4
		c1.7-0.5,2.7-1.3,4.5-2.4l-0.4,0.2c2.5-0.8,3.1-3.3,1.1,2.6c0.4,0,2.4-1.7,2.2-2c0.1,0.3,0.3,0.4,0.6,0.2c-0.7-1.1-0.5,3-0.6,2.9
		c1.5-1.9,1.5-1.9,3.1-5.6c0.1,0-1.5,1.8-1.6,1.6c0.2-0.3,1.4-2.8,1.4-3c-2.1,2.3-3.1,0.7-3.6,0.8c0.7,0.1,1.1,0.1,0.1-0.4
		c0.3,0,0.6,0,0.9,0c-0.2,0.2,1.5-2.7,2.2-3.4c-0.1,0-0.8,1.1-0.9,0.5c-3.1,2.9-1.2,0-1.8-0.2c0.3-0.9-0.2-1-1.1-0.8
		c3.3-2.3,3.1-2.6-0.1-1.1c0.5-2.9-1.2-1.2-2.7,0.2c-0.2-1.7-1.3-2.5-2.3-2.8c2.2-1.1,3.1-1.9,0.2-1.7c1.4-0.8-1.5,0.6-2.4,1.7
		c0.8-2.3,2-4.3,3.4-6.2c0.3-0.4,0.9-1.1,2.2-2.8c-1,0-0.8,0.9-1.1-0.2C387.2,235.1,385.6,237.1,385,237.5z M627.6,53.1 M619,53.7
		 M602.7,48.5 M599.5,54.3C599.3,52.7,599.3,53,599.5,54.3L599.5,54.3z M602.6,59.5c1.5-0.1,3.2-1.2,4.7-1c-0.8,0.3-2,0.8-3.1,1.1
		c-0.1,0.1,2.1,0.5,1.6,1c-0.8,0.5-2.7-0.5-3.7-0.4c10.7,8,22.4-4.4,10.2-8.5c-2.1-0.2-0.4,1.3-2,2.5c-0.9-1.1-0.5-0.4-1,0.1
		c-0.2-2-0.8-2.6-1.4-3.9c0.1,1.3-0.4,2.5,0,5.7c-2.8-2.9-3.6-2.4-6.5-5.7c-0.1,0.1-0.4,3.9,0.3,3.6c-0.4,0-1.2-1-1.1-1.1
		c-0.1,0.1,0.2,2.4,0.2,2.8c-0.2-0.1-1.6-2.3-2.4-1.4C598.5,57.5,600.1,57.6,602.6,59.5z M621.8,67.1
		C625.4,65.4,625.6,65.4,621.8,67.1L621.8,67.1z M619.2,69.3C619.5,66.1,619.3,68.2,619.2,69.3L619.2,69.3z M607.1,75.1
		c1.4-0.6,3.2-2.2,4.8-3c2.1,3,2.1,2.1,4.4,4.7c-1.5,1.9-3.2,3.9-4.5,5.5c-0.8-0.5,1-3,0.3-3.6c-0.8,0.7-3.2,2.6-4.6,2.4
		C609.5,78,607.7,77.1,607.1,75.1z M604,65.2 M605.2,71.2c2.7,0.3,3.6,4.7,4.9-1.3C607.5,69,607.3,71.4,605.2,71.2z M586.3,74.3
		c-1.2-2.5-2.7-3.2-2.8-6.1C584.2,69,587.5,74,586.3,74.3z M599.1,89.7c-1.4-1.2-2.7-2-1.5-4.4c-3.2-1.9-3.5-1.9-6-5.3
		c1.7-0.3,2.8,0.3,4.8-0.2c0,0-2.5-0.9-2.7-0.8c1.3-0.5,2.9-1.1,4.4-1.2c-0.2,0,0.5-1.1,0.4-1.1c-2.5,0.6-5,1-7.5,1.7
		c0.1-0.1-0.3-2.5-0.1-2.5c1.8-1,4.9-3,7.6-4.5c-1-0.6-2.3,0.5-2.1-2.1c0.9,0.4-1.5,2.7-1.9,2.8c0-0.3,0.1-3.6-0.5-3.8
		c-0.9,3.1-0.2,1.2-1.8,1.2c-0.9,4.8-0.8,1.8-2.8,5.1c-1.9-2.7-2.8-3.7-4.6-7.5c0.6,0,1.6,1.8,2.1,0.7c-1.2-1.1-1.4-1.8-0.9-3.7
		c-0.3,0.4-0.6,0.3-0.8-0.1c-0.2-0.1-0.2,1.9-1,2c-0.4-3.1,0.7-4.3,0.4-6.8c1.1-0.1,0.5,2,1.6,1.6c1-1.5-0.2-2.4,3.8-1.5
		c-0.6,1.1-2.2,0.6-2.7,2.1c1.6-0.6,2.6,0.8,3.4,3.1c0.5-0.9-0.1-3.7,0.6-5.3c1.5,3.9,3,5.3,4.4,8c-1.3-4.4-0.7-7.3-0.8-11.1
		c2.4,3.3,2,2,3.5,7.1c0.2-0.1,0.6-3.7,0.9-3.5c3.4,2.8,3.7,5.2,8,7.8c0.3-0.2-0.3,1.6-0.3,1.6C601.2,73.2,601.3,81.5,599.1,89.7
		L599.1,89.7z M323.6,281.3c1.3-1,4.8-1.8,6.3-1.4c-2.1,0.7-4.3,1.3-6.6,1.7C323.4,281.5,323.5,281.4,323.6,281.3z M363.1,243.8
		c1.5-0.1,3.9,1.7,5.7,1.6C363,240.1,361.7,244.1,363.1,243.8z M363.3,259.3c-2.8-2.1-5.6-2.1-3.6-5.2
		C361.6,255.6,363.3,259.2,363.3,259.3L363.3,259.3z M368.3,261.6c0.2-2.5-1.7-4.2,2.6-6.7c1,1.8,1.1,3.2,1.5,3.8
		c0,0.4,0.1,0.7,0.3,1C370.8,260.2,369.2,260.9,368.3,261.6z M315.5,220.5C316.3,222.2,315.4,220.4,315.5,220.5L315.5,220.5z
		 M315.3,228.1C316.5,227.3,316.6,227.2,315.3,228.1L315.3,228.1z M309,222.7c2-0.2,2.1-3.1,4.1,0.4
		C310.9,223.7,310.4,222.6,309,222.7z M658.6,46.6c1.5-2.2-2.5-5.7,3.9-4.1c-7.3-0.6-3.8-0.3-8.7,2.9
		C656.4,45.7,657.1,46,658.6,46.6z M664,36.6 M662.5,50.2c-1.2-0.9-0.3-2.7-2.3-0.5c-0.6-2.8-0.2-2,1.2-3.7
		c-0.3-1.2-2.5-1.1-2.6-1.2c0,0,0.2-1.3,0.2-1.4c3.7-2.6,2.9-1.6,5.3-5c1.4,0.6-1.5,2.4,1.5-0.5c0.4,0.9-0.6,2.5-0.9,3.3
		c1.7,0.6,1.2-2.3,3.1,0.8C664.8,45.1,665.7,46.3,662.5,50.2L662.5,50.2z M667,48.9 M668,50.7 M676.8,26.6 M677.5,27.8 M677.6,30
		 M679.2,30.1C680.4,28.7,680.1,29.1,679.2,30.1L679.2,30.1z M676.5,33.6c-0.8-1.5,4.2-3.6-1.1-2.9C674.9,31.9,675,36.7,676.5,33.6z
		 M678.4,33.7 M680.4,35C679.2,31.9,680.2,34.5,680.4,35L680.4,35z M679.5,37c-1.1-1.2-2.4-2.1-4-2.4C680,34.1,678.8,36.3,679.5,37
		L679.5,37z M680,38.8c-2.3-1.2-3.3-3.7-7.5-3.2C674.5,37.6,676.8,37.3,680,38.8z M675,40C674.6,40.3,674.4,36.5,675,40L675,40z
		 M673.5,43.6 M674.2,43.4C673.8,40.3,674.1,42.7,674.2,43.4L674.2,43.4z M675.5,42.7 M675.3,44.4 M674.4,46.2 M675,45
		C675.7,46.5,675.6,46.4,675,45L675,45z M680.4,37.4 M676.3,44.8 M676.7,43.6C677.4,42.6,677.3,42.7,676.7,43.6L676.7,43.6z
		 M677.7,43 M677.8,40.3C677.5,41.3,678.7,37.4,677.8,40.3L677.8,40.3z M680.4,40C682.1,40,682.3,40,680.4,40L680.4,40z M681.9,46.4
		c-1.5-1.8,0.2-4.6-3.3-2.7C678.5,48,680.7,45,681.9,46.4z M683.7,45.9c0-0.1-2.4-2.9-2.4-4.4c1.6,0,2.6,0.5,4.3,1.1
		C683.7,43.4,683.5,44.4,683.7,45.9z M685.8,45.9 M685.6,47.3 M685.7,25.5 M687,35 M688.7,33.9c-2,3.9-7.5,6,1.7,6.5
		C688.7,36.5,689.4,37.5,688.7,33.9z M691.9,35.3c-0.3-3.1-4.3-2.9-1-7.6c1.6,1,2.1,2.2,3.8,3.5C693,32,692.1,33.3,691.9,35.3z
		 M503.3,179.2 M984.3,54.5C984.6,53.6,984.6,53.7,984.3,54.5L984.3,54.5z M981.8,53.9C982,53.5,982.3,53,981.8,53.9L981.8,53.9z
		 M979.2,54.8C979.4,53.5,979.3,54.1,979.2,54.8L979.2,54.8z M1038.3,127.2 M1037.4,125.9 M700.1,84.5C701,83.4,702,82.1,700.1,84.5
		L700.1,84.5z M695.9,106.4c5.2-0.8,9.6,0.5,6.3-5.4c1-0.3,1.8-0.1,2.1,1c-0.2-1.1-0.6-2.7-1.1-3.7c-0.2,0.3,1.6,2,1.8,1.5
		c0.1-1.6-1.1-3.1-1-4.4c0.2-0.1,19.2-15.7,18.1-22.3c-1.1-6.3-16.8,8.5-17.6,9c-2.4,1.7-5,7.6-9.1,8.7c2.5,3.4,0.1,1.9,3.7,3.4
		c-0.2,0.6-2.7,1-2.5,1.2c0.7,0.7,1.3,0.7,1.9,1.1c0,0.6-1.8,0.5-2.2,1.2c0.1,0.7,2,0.8,3.1,2.8c-4.1,1-2-0.3-5.4,2.8
		c0.4-0.1,4.4-0.1,4.8,0C697.7,103.3,694.5,105,695.9,106.4z M699,124.8C696.4,120.8,697.8,123,699,124.8L699,124.8z M711.2,124.7
		c-1.2,1.2-1.4,1.8-0.8,3c-2.8-1.1-2.3,0.1-5.8-2c0.6-0.5,2.2,1.9,0.9,1.8c-2.3-1.7-2-1.3-5.4-2.2c0-0.1,1.5-2.2,1.4-2.7
		c-3.6-0.8-3.4-1.5-4.3-3.9c-6.1,3.3-3.7-0.5-0.8-4.2c-2.3-1.2-0.2-2.5-2.7-1.9c1.5-5.1,1.8-5.7,9.1-5.7c-0.4,0.4-1.8,2.2-1.9,3.2
		C702,114.5,705.6,122.4,711.2,124.7z M738.9,391.6c0.5-0.3,1.1-0.3,1.6,0C739.9,391.8,739.4,391.7,738.9,391.6L738.9,391.6z
		 M743.1,390.5c1.3-0.2,1.8-1.3,4.1-0.5C745.8,391.7,744.6,390.2,743.1,390.5L743.1,390.5z M668.2,310c1.1-1,0.1-3.9,6.3-4
		C672.8,309.4,670.9,308.2,668.2,310L668.2,310z M638.4,306.9c1.5,0.4,4.8,2.3,8.7,0.1c-0.2,0.2-0.2,0.4-0.2,0.6
		C643.8,307,639.1,306.9,638.4,306.9L638.4,306.9z M624.7,289.7 M627.4,294.5C628.3,293.5,627.8,294,627.4,294.5L627.4,294.5z
		 M627.4,295.7 M628.7,298.1 M651.1,302.7C651.7,302.5,651.9,302.5,651.1,302.7L651.1,302.7z M649.9,305.6 M649.7,307.3
		C649.8,305.4,649.8,305.8,649.7,307.3L649.7,307.3z M651.5,305.3C653,303.4,653.7,302.6,651.5,305.3L651.5,305.3z M646.9,303
		 M646.9,298.2 M645.7,294.6 M644.8,292.6C647.2,291.3,646.5,291.7,644.8,292.6L644.8,292.6z M643.1,286.4 M643.6,287.4
		 M641.6,288.2 M640,285.2C640.5,285.9,640.7,286.1,640,285.2L640,285.2z M636.9,292.1C638,292.8,637.5,292.5,636.9,292.1
		L636.9,292.1z M636.3,292.1 M640.1,292.9C641.4,294.1,641,293.7,640.1,292.9L640.1,292.9z M645.7,299.4 M640.1,302.8
		C640.9,302.4,641,302.4,640.1,302.8L640.1,302.8z M640.3,300.7 M640.2,300.1C640.8,298.8,640.4,300.1,640.2,300.1L640.2,300.1z
		 M639.9,299.3C640.1,298.8,640.1,298.8,639.9,299.3L639.9,299.3z M643,301.3 M643.8,301.2C644.2,300.5,644.4,300.1,643.8,301.2
		L643.8,301.2z M643.6,299.7 M642.6,298.8C643.5,299.2,643.3,299.1,642.6,298.8L642.6,298.8z M641.1,297.5
		C642.2,298.7,642.5,299.1,641.1,297.5L641.1,297.5z M634.7,293.3c2.4,1.3,5,1.1,5.8,4.1C639.1,295.9,636.9,294.5,634.7,293.3
		L634.7,293.3z M635.7,303.4 M635.7,302.8 M586.7,284.3C587.2,283.3,587.1,283.4,586.7,284.3L586.7,284.3z M606.7,107.1 M660,167.4
		 M677.7,156.2C677.3,154.7,677.6,155.9,677.7,156.2L677.7,156.2z M691.4,141.4c-1.7-3.3-2.2-5.7,2.7-1.7
		C694.6,137,692.3,140.3,691.4,141.4L691.4,141.4z M697.5,142.6C698.8,142,699.4,141.7,697.5,142.6L697.5,142.6z M707.3,142.4
		 M706,142.6C706.9,142,706.8,142,706,142.6L706,142.6z M714.1,139.1C716.2,138.1,716.2,138.1,714.1,139.1L714.1,139.1z
		 M710.9,138.4 M708.8,138.3C710,138.5,710.6,138.7,708.8,138.3L708.8,138.3z M707.8,138.3 M780.6,116.2
		C781.2,117.5,781.1,117.1,780.6,116.2L780.6,116.2z M779.3,114.1C780,118,780,117.6,779.3,114.1L779.3,114.1z M778.4,112.8
		C779.5,113.8,779,113.4,778.4,112.8L778.4,112.8z M716.3,133.4C716.8,131.9,716.5,132.9,716.3,133.4L716.3,133.4z M719.6,136.1
		 M719,135.1 M720.8,131.8c-1.4-1.3-2.6-4.5-5.6-5.8c-0.6,2.2-0.4,1-1.1,1.8C717.2,131.2,717.8,130.2,720.8,131.8z M737,102.9
		c1.3-2.2-1.7-7.1,3.6-2C739.1,102.1,737.2,102.6,737,102.9L737,102.9z M739.1,131.5 M751.8,147.7 M749.5,102.5 M748.4,97.5
		 M751.3,98.3C753.9,99,753.6,98.9,751.3,98.3L751.3,98.3z M757.9,103.2 M760.4,97c0.4,2.2-2.6,3.3,1.2,4
		C762.5,99.2,760.7,98.9,760.4,97z M755.7,85.6 M757.7,77c-0.4-0.2,0.7-2.4,1,1.3C758.5,78.3,756.8,76.5,757.7,77z M756.7,73
		 M756.8,72.3 M764.5,88.7 M766.5,88.2 M769.5,88.6 M774.4,87.1C775.4,88.1,775.4,88.1,774.4,87.1L774.4,87.1z M771.6,86.6
		C772.4,85.9,772.8,85.5,771.6,86.6L771.6,86.6z M769.4,83.7 M771.2,83.2 M771.4,83.5 M769.4,81.5 M772.6,79.9
		C770.7,77,772.1,79.1,772.6,79.9L772.6,79.9z M770.2,50.6C770.2,49.5,770.2,50.1,770.2,50.6L770.2,50.6z M766.4,56.5 M781.5,55.3
		c2.6-2.9,4-4.1,1.5-0.1C783.4,54.1,782.2,54.9,781.5,55.3L781.5,55.3z M788.2,55.8 M789.2,57.3C789.3,55.2,789.2,56.9,789.2,57.3
		L789.2,57.3z M783.3,58.9 M786.7,59.1 M787,62.5c0.7-0.2,2-1.4,3.1-1.7C790.5,63.5,788.8,61.9,787,62.5L787,62.5z M725.8,42.3
		 M724.2,27.8 M745.4,16.9 M760.6,26.5c7.1-6.2,3-11.4-5.5-14.6c-1.9,4.5-2.3,9.2-1.5,13.8C756.1,25.2,757.2,26.6,760.6,26.5z
		 M757.4,31.2c0.1-1.6,6.6-3.7-3.1-3.1C757.9,29.9,757.8,32,757.4,31.2L757.4,31.2z M780.5,33.3c-5.3,4.2-13.9,1.3-17.6-0.5
		c-0.2-0.3-0.6-0.6-1-0.7c0.2-7.1,4.4-12.7,8.2-4c0.7-2.5,1.3-3.1,0.2-5.5c5.2,3.4,5.6,4.1,6.3,7.3
		C777.5,30.9,779.8,31.8,780.5,33.3z M905.2,14.2C907.4,11.7,906.9,12.3,905.2,14.2L905.2,14.2z M912.5,25.9
		C924,37,928.2,23.6,912.5,25.9L912.5,25.9z M886.2,37.6c-1.8-1.9-1.5-3.4-4.2-4.5C882.9,35.1,887.1,38.6,886.2,37.6z M899.6,39.1
		c-3.5,2.5-7.1,1.5-9.1-2.4c-4.2-4-4.1-4.6-2.1-10.4c2.8,2.3,5.7,2.9,8,4.6c-0.9-3.4-0.1-3.8-0.1-4.3c-0.2,0.2-1.8-2-1.6-1.6
		c4.7,3.8,6.9,6.9,13.5,9.7C905.4,36.1,898.6,39.4,899.6,39.1z M899.9,25.9c4.2,8.1,9,10.4,9.2,1.5C906,26.6,903,26,899.9,25.9
		L899.9,25.9z M786.5,43.5c-1.9-6.3-2.7-9.6-4.4-15.2c0.6-0.2,1.2,1.6,1.8,0.5c0.1-0.7-1-1.2-0.9-2.2c2.4,1.7,1,1.4,3.1,3.6
		c0.3-0.2,1.4-1.7,0.2-2.3C794.8,29.7,797.3,43.5,786.5,43.5z M799.7,36 M800.6,36 M807.5,42.5C809.2,44.9,808.4,43.8,807.5,42.5
		L807.5,42.5z M871,63.1 M862.5,72.6 M838.8,68.3C837.5,63.4,838,65.5,838.8,68.3L838.8,68.3z M908.2,47.7c-1.1-2.1-3.9-2.1-1.1-4.2
		C909.6,45.1,907.6,46.5,908.2,47.7z M910.2,52.8c1.2-7,3.6-8.8,9.9-2.5C917.1,50.6,912.8,52.4,910.2,52.8L910.2,52.8z M893.9,49.4
		c1.2,0.7,2.2,1.9,3.9,2.3C896.7,50,895.4,50.2,893.9,49.4z M915.6,71 M991.7,65.1C991.8,63.1,991.8,64.3,991.7,65.1L991.7,65.1z
		 M991.2,65.6 M990.7,65.9 M988.9,65.5C990.7,66.3,989.9,65.9,988.9,65.5L988.9,65.5z M1007.9,57.7
		C1006.4,51.9,1007.6,56.4,1007.9,57.7L1007.9,57.7z M1012.1,56.1 M1016.8,239c-7-15.2-12.2-41.2-18.2-48.3c1.1,0,1.7,0.4,1.4-1
		c2.2,2.8,4,5.5,6.3,8.5c-1.1,2.4,7.7,16.6,13.4,24.7c-2.2-1.5-3.9-2.1-5.8-3.2c-0.3,7,3.7,13.5,7,18.1c-2-3.2-1.3-1.7-3.8-3.3
		C1016.8,234.9,1016.9,238.9,1016.8,239z M982,190.7c1.3-1.4,0.2-3.4,2.7-2.2C984.1,191.4,983.3,189.4,982,190.7L982,190.7z
		 M979.8,190.2C981,188.3,980.8,188.7,979.8,190.2L979.8,190.2z M984.5,192.4 M983.7,191.6 M983.9,194.8 M1010,154.9
		C1010.9,153.7,1010.9,153.6,1010,154.9L1010,154.9z M1051.7,150.6c-0.1-1.8-1-3.8-2-4.2c0.9-0.7,1.5-2,2.3-2.7
		C1053.7,147.1,1051.6,147.3,1051.7,150.6L1051.7,150.6z M1123.2,186 M1121.6,188.4C1123.6,188.8,1125.9,189.3,1121.6,188.4
		L1121.6,188.4z M1119.6,187 M1120.3,186.4C1120.5,185.8,1120.6,185.6,1120.3,186.4L1120.3,186.4z M1118.3,186.3
		C1118.7,185.4,1118.6,185.8,1118.3,186.3L1118.3,186.3z M1116.2,187.9 M1101.9,186.4C1103.1,185.3,1103.3,185.1,1101.9,186.4
		L1101.9,186.4z M1097.4,182.8C1099.7,182.8,1101.4,182.9,1097.4,182.8L1097.4,182.8z M1076.2,172.1 M1069.2,170.4
		c1.9,0.8,3.2,2.2,5.1,3.1C1072.3,169.7,1070.3,170.9,1069.2,170.4z M1052.4,205.6C1052.6,203.9,1052.5,204.5,1052.4,205.6
		L1052.4,205.6z M1048.8,204.7 M1050.7,210.4c0.4-2.5,2.4-2.7,0.5-5.4C1049.7,207.7,1050.9,209.4,1050.7,210.4z M1050.1,214.6
		 M1050.2,215.9C1049.8,214.7,1050.1,215.6,1050.2,215.9L1050.2,215.9z M1049,216.9C1048.9,216.4,1048.9,216.6,1049,216.9
		L1049,216.9z M1049.5,218.5 M1048.6,222.7 M1048.4,225.1 M1048.2,225.6C1048.7,226.1,1048.4,225.8,1048.2,225.6L1048.2,225.6z
		 M1047.6,226.8 M1047,229.7 M1041.1,237.4c0.4-1.8,1.5-3.3,2.9-4.1C1043.5,235.1,1042.5,236.5,1041.1,237.4L1041.1,237.4z
		 M1034.8,244.9c1.6-3.5,0.6-5.4,4.6-6.9C1038,239.9,1036.2,242.5,1034.8,244.9L1034.8,244.9z M1001.1,290.9 M1001.7,291
		C1002.1,290.3,1002.2,290.1,1001.7,291L1001.7,291z M984.8,298.1 M980,300.6 M987.7,297 M990,301.4
		C990.6,300.6,990.7,300.4,990,301.4L990,301.4z M990.6,300 M980.3,344.6 M980.7,344 M983.9,341.7
		C984.5,342.7,984.6,342.9,983.9,341.7L983.9,341.7z M991.3,335.7C992.5,333,992.8,332.4,991.3,335.7L991.3,335.7z M994.4,328.8
		 M995.8,327.5 M1031.9,249.4c0.2-1.3-0.7-2.8,0.2-4.6c0.7,0.3,0.6,0.4,1.4,0.3C1032.7,246,1031.5,248,1031.9,249.4z M1013.5,259.8
		 M1017.6,263.2c-0.2-1.5,2.8-2.8,3.4-3c-0.6-0.6-4-2.8-4.3-2.9c3.2,1.1,5.4-0.2,10.3,2c1.9-2.2,4.7-6.2,6.5-9
		c-2-1.2-0.9-1.4-3.2-4.2c-6,1.9-7.6,0.1-13.5-4.8c0.1,0.4-0.7,1-0.8,0.9c3.3,8,3,8.5-0.8,11.3
		C1014.8,256.4,1015.8,259.4,1017.6,263.2z M1016.5,282C1016.7,279.9,1016.8,278.8,1016.5,282L1016.5,282z M991.4,305.1
		 M991.2,305.6C991.4,305.7,991.5,305.7,991.2,305.6L991.2,305.6z M990.8,306C991.1,306,991.5,306,990.8,306L990.8,306z
		 M990.4,306.3C990.6,306.4,991.1,306.8,990.4,306.3L990.4,306.3z M989.9,308C990.5,305.9,990,307.5,989.9,308L989.9,308z
		 M995.1,308.4C995.5,307.8,995.4,307.9,995.1,308.4L995.1,308.4z M994.5,309.5 M994.2,307.7C994.5,309.4,994.5,309.4,994.2,307.7
		L994.2,307.7z M1008.9,299.5C1009.2,297.2,1009.1,298.3,1008.9,299.5L1008.9,299.5z M1006.5,298.9
		C1007.6,298.6,1007.7,298.5,1006.5,298.9L1006.5,298.9z M1003.4,306 M980.9,305.1C982.5,304.2,984.3,303.2,980.9,305.1L980.9,305.1
		z M998.9,317.6 M999.5,316.8 M998.3,314.9c2.9-5.3,3-10.3-1.5-12.8c3.5-2.2,7.7-3.8,13.2-5.3c0.4,0.7,2,4.9,2.4,5.9
		c0.5-3.7,2.2-4.2,2.5-7.3c3.2,2.4,1.9-0.2,5.9-0.8c1.5-0.4,0,1.7,0.8,1.9c0.7-0.5,2.8-4.4,3.2-5c0.2,0.4,0,3.3,0.2,3.9
		c4.6-7.6,2.5-23.8-2.9-32.8c-0.6,0.2-1.2,0.3-1.8-0.2c0,3.4,0.8,0,1.2,2.6c-0.9,0-1.2-0.2-1.1,1c-0.5,0-1-1.5-0.9-1.8
		c-0.3,0.2-0.5,0.2-0.8-0.1c0,6.5,4.2,16.1-4.4,22.7c-0.4-0.8-0.5-3.6-0.6-3.6c-0.7,11.6-14.3,11.5-21.2,21.5
		c1.3,0.5,1.1,1.6,0.8,2.9c0.4-0.6,0.8-0.7,1.4-0.7c0.1,0.5-0.6,0.3,0.5,0.3c0.1-1.1-0.8-0.7-0.7-2.3c0.8,3.2,1.8,5.8,2.1,9.2
		c0.4-0.2,0.7-0.1,1,0.2C997.4,308.5,997.3,314.2,998.3,314.9z M861.1,356.4 M860.8,356.1 M859.8,356.3 M858.9,356.5 M870.4,353
		 M868.6,352.8 M868,352.3 M878.1,367.2 M916.5,397.4 M910.2,390.8 M903.5,399.2 M903.6,399.9 M878,390.3c0.2-1.5,1-2.6,0.7-4.5
		C877.9,387.4,878.3,388.6,878,390.3z M877.7,394.2 M875.8,393.5C877.2,393.5,876.4,393.5,875.8,393.5L875.8,393.5z M877.1,397.4
		 M879.1,401.5 M879.9,404.2 M881.7,404.7 M880.8,406.5 M882,408.2 M882.6,408.4 M1058.4,378.4c-0.8,0.3-0.9,0.8-0.1,1.5
		C1058.4,379.3,1058.5,378.9,1058.4,378.4z M1056.5,383.2C1057.6,383,1057.5,383.1,1056.5,383.2L1056.5,383.2z M1054.7,385.9
		 M1169.3,497.1c1.7-0.4,3.7-2.1,5.6-3c0,1.2-1,1.7-1.6,2.7c0.5,0.2,1.5-0.9,1.4-0.2C1172.4,497.7,1171.1,496.7,1169.3,497.1z
		 M1165.5,500.3c1.5,0.9,3.5-3.7,4.2,1.8C1165.6,503.7,1166,500.6,1165.5,500.3z M1118.9,509.7c2.6,2.4,6.4,6.6,8.9,9.9
		C1122.7,517.8,1121.7,514.5,1118.9,509.7z M1130.9,515.6 M1129.5,512.3C1129.5,514.2,1129.5,515,1129.5,512.3L1129.5,512.3z
		 M1127.3,511.4C1127.5,513.1,1127.3,512,1127.3,511.4L1127.3,511.4z M1127.8,473 M1136.8,506.9 M1136.4,503.8 M1134,499.6
		 M1134.9,488.7c0.5,0.7,0.5,1.3,0,1.9C1135.1,489.9,1135.1,489.3,1134.9,488.7z M1133.2,490.9 M1134.8,491.5 M1134.2,496.5
		 M1133.6,494.6 M1131.2,492.9 M1129.6,487.9c1,2-1.3,4.1,1.5,3.7C1131.7,489.2,1131.2,489.4,1129.6,487.9z M1063.9,441.2
		 M1108.5,475.4 M1113.1,470.9 M1108.3,467c1.6,1.4,3,0.6,3.2,2.7C1108.7,469.6,1109.1,467.7,1108.3,467z M1110.5,466.2
		 M1110.9,463.9c1.1,1.6,1.9,3.6,3.5,4.8C1113.8,466.8,1111.9,465.2,1110.9,463.9L1110.9,463.9z M1104,460.8
		c2.1,0.4,3.8,1.8,4.4,3.5C1107.2,463.9,1105.5,462.4,1104,460.8z M1102,464.5 M1099.8,464.4
		C1100.3,464.4,1100.8,464.3,1099.8,464.4L1099.8,464.4z M1099.9,463.5 M1098.9,462.2 M1097.8,461.1 M1097.8,456.4l-0.8,0.8
		C1097.5,457.1,1097.8,456.8,1097.8,456.4z M1097.6,457.3c0.9,0.8,1.2,2.7,3.5,2.9C1100,458.8,1098.7,458.3,1097.6,457.3
		L1097.6,457.3z M1096.2,458.1 M1091.6,453.5c0.8,1.4,3.1,2.4,4,4.3c-0.3,0-0.5,0.1-0.6,0.4C1091.5,457.9,1093,455.8,1091.6,453.5z
		 M1090.9,451.9C1091.3,453.2,1091.3,453.2,1090.9,451.9L1090.9,451.9z M1089.7,450.4 M1078.3,443.4c4,3.3,7.6,2.7,7.2,8.1
		C1084.2,447,1081.6,446.5,1078.3,443.4z M1073.7,438.3 M1075.7,443.3 M1075.3,451.6 M1069.8,453.3c5.4,5.1,13.4,2.9,13.2-4.3
		C1080,453.2,1075.9,454.9,1069.8,453.3z M1067.4,453.9 M1065.5,452.6 M1062.1,450.4 M1004.1,434.3 M1010.9,435.7
		c-2.2-0.3,0.5-0.1-2.7-0.1C1009.6,434.9,1011.5,434.1,1010.9,435.7L1010.9,435.7z M1009.7,437.7 M1010.2,437.2 M1010.1,437.7
		 M991.1,421.1 M995.3,418.6 M995.3,420.3 M1000.7,426.6C1001.8,427,1002.8,427.3,1000.7,426.6L1000.7,426.6z M1000.1,435.7
		c0.8,0.8,1.3,1.7,1,2.6c-1.7-4.9-4.6-6.4-1-11.6c0.2,1.6-1.1,3.6-0.9,4.7c0.8-0.4,2-3.3,3.3-2.6c-0.6,3.2-2.1,2.1,0.3,4.9
		C998.9,432.1,1001.1,434.3,1000.1,435.7z M997.4,437.2 M997.3,435.9 M997.9,436.2C999.1,437.6,999.5,437.9,997.9,436.2L997.9,436.2
		z M997.8,440.2 M1007.6,440.5 M1001.8,447.2 M1001.1,447.2 M999.4,447.6 M999.1,445.5 M999.9,444.8 M1000,446.7
		c2.5,0.3,5.4-0.5,9.4,1.4C1005,442.8,1002.9,445.9,1000,446.7z M993.3,445.6c1.7,1.2,3.1-1.2,4,1.9
		C993.4,448.9,994.2,446.3,993.3,445.6z M974.5,459.7 M973.8,454.9 M992.7,441.8 M990.8,441c1-0.2,2.2-0.2,3.3,0.1
		C992.9,441.7,991.6,441.8,990.8,441z M987.4,441 M981.4,453.6c1.1-1.4,0.6-4.7,1.9-2.4C983.2,452.7,981.6,453.3,981.4,453.6z
		 M979.8,452.9 M978.4,452.4C979.2,455.2,979,452.4,978.4,452.4L978.4,452.4z M983.3,441.2 M984,440.8 M984.9,440.1 M982.1,439.3
		 M978.5,436 M978,436.2 M973.7,433.2c6.3,1.3,12.2,0.3,16.9-3.4c-0.3-0.2-0.4-0.4-0.4-0.7c-7.7,2.6-18.3-1.5-18.5,8.9
		c-3.6,3.8-3.2,9.6-1.7,16.1c0.1-0.1,3.2,0.1,3.5,0.3c-0.3-4,1.2-7.6,1.6-10.2c1.5,6.5,2.2,8.2,8.6,5.1c-4.9-2.4-1.8-3.1-6.5-8
		c2.1-0.9,5.8-3.6,7.6-4.4C978.2,439.7,973.2,440.6,973.7,433.2z M969.8,354c2.3-4.1,3.2-10,1.1-14.5
		C966.5,344.5,966.9,349,969.8,354z M973.3,365.6h0.9C973.8,366,973.5,366,973.3,365.6z M972.8,364.2 M974.3,363.2 M975.8,364.9
		 M976.1,382.3c3.6,0.2,5.4,1.3,8.3,2.5c-0.1-0.3,0.8,1.8,1.4,2.9c-0.3-0.1-0.4,1.9-0.5,1.7c-1.2-1.6-3.3-2.9-5.9-5.5
		c-0.2,0.1,0.9,2.8,0.8,2.7c-4-1.7-5.2-2.4-7.3-1.9c-1-1.6,0.3-2.8,0.1-3.8c-5.7-1.2-3.9-12,3.8-14.3
		C977.6,373.7,977,376.1,976.1,382.3z M977.3,382.5 M976.7,379.9 M970.7,384.2C971.8,385.1,972,385.2,970.7,384.2L970.7,384.2z
		 M971.9,385.7c1.3,1.1,2.3,3.3,3.5,4.8C977.7,386.2,974,387.6,971.9,385.7L971.9,385.7z M985.4,383.3 M977.1,386.1 M978.5,388.7
		 M980.1,389.3C980.2,389.7,980.4,390.3,980.1,389.3L980.1,389.3z M982.2,387.6 M983.5,388.9C984.7,390,984.5,389.8,983.5,388.9
		L983.5,388.9z M982.3,391.3c2-1.7,2.3,1.6,2.8-0.7C981.6,387.5,983.5,390.3,982.3,391.3z M979,396.3c-0.1,0.3-1.1-4.1-1.3-4.8
		c1.1,0.1,4,0.7,4.5,0.9C982.2,394.8,979.4,394.9,979,396.3z M980.7,395.8 M986.5,395.7 M983.5,400.2c0.8-2.4,2-3.5,2-6.1
		C984.4,395.9,984.1,398.3,983.5,400.2z M982.8,399.9c-0.6-1.8,0.7-3.5,0.4-4.9c-0.2,0.3-0.5,0.3-0.8,0
		C979.9,400.7,983.1,400.9,982.8,399.9z M984.5,401 M986.6,397.8 M989.7,397.9 M987.8,400.7 M987.3,392.5 M988.7,393.5
		c0.7,0.7,1.6,1,2.5,1c-1.8-3.3-0.7-5.9-5.2-5.5C987.1,390.6,988.5,392.6,988.7,393.5z M988.1,393.6c0,0.8-2,1.4,0.6,4.6
		c-0.1-1.1,0-1.2,0.4-0.4C989.7,396.2,988.1,395.7,988.1,393.6z M991.5,395.2 M991.6,395.9 M991.5,399.2 M992.2,399.4 M992.7,397.9
		 M979.4,409.8c1.2-4.8,2.8-7.6,5.1-3.8c3.4-4,5.6-2.1,5.9-6.8c0.3,0.1,0.5,0.2,0.8,0.1c3.1,3.1,3.3,5.8,3.3,10.5
		c-1.1-0.6-0.8,1-0.6,2.3c1.1-0.6-2.1-3.8-1.9-3.7c-0.5,2-0.9,4.1-1.2,6c-2.8-1-3.3-3.6-3.8-5.4
		C983.9,406.2,981.5,406.3,979.4,409.8z M978.4,410.7C979.6,411,980.8,411.2,978.4,410.7L978.4,410.7z M974.4,411.1 M975.2,413.4
		 M970.6,391C971,390.7,972.1,389.6,970.6,391L970.6,391z M970.2,391.3 M970.6,396.5 M962.3,404.1c5.4-4.6,8.7-8.1,6.1-8.8
		C967.4,397.8,964.8,401.5,962.3,404.1z M962.4,404.4 M962.7,404.6 M961.8,405.3 M961.7,408.2l-0.9,0.5
		C961.3,408.8,961.6,408.6,961.7,408.2z M962.6,408.2C962.2,409.7,962.5,408.6,962.6,408.2L962.6,408.2z M970.1,416.9
		c-0.2,0.4-0.2,0.7,0.2,1C970.3,417.6,970.2,417.2,970.1,416.9z M971.3,416.2 M964.2,419.9 M964.3,419.5
		C964.7,419.8,965.5,420.5,964.3,419.5L964.3,419.5z M964.7,421.4l-0.7,0.2C964.3,421.9,964.6,421.8,964.7,421.4z M963.9,422.1
		 M959.7,446.7 M959.4,446.8 M935.8,436 M936.1,437.5 M936.8,438.5 M943.7,426.1 M944.2,425.9 M944.5,424.9 M935.2,430.4
		c-0.8,4.1,0.5,6.2,4.6,5.1c-4.2,4.3-1.3,9,4.7,8.5c13.5,7.2,13.4-0.2,20.7-13.1c1.7-0.2,1.7,0.8,3.4,0.2c-6.8-6.7-6.8-12.7,1.1-15
		c-6.2-3.3-3.1-2.3-7.6-6.6c-0.5,0.7-5.1,6.4-5.2,6.8c-3.1,1.5-9,6.4-11.6,9.8C941.2,428,939.2,428.9,935.2,430.4z M1023.5,437.7
		 M1025,439.9h-0.9C1024.4,440.1,1024.7,440.1,1025,439.9z M1025.5,440.1c1.6,0.3,3,0.4,4.7,0.5
		C1029.7,440.8,1025.5,441.5,1025.5,440.1z M1025.5,436.8 M1015.6,453.9 M1017.4,453.2 M1022.8,457.8 M1020.8,456.6
		c0.9,2.4,0.3,1.5,0.3,1.4C1020.6,457.3,1020.3,456.7,1020.8,456.6z M1022,456.8 M1021.1,455.8 M1022.3,455.3
		C1022.1,456.8,1022.1,456.7,1022.3,455.3L1022.3,455.3z M1021,454.5 M1022.1,453.6 M1021.9,453.8c0.3,1.2,0.3,1.8-0.2,0.9
		C1020.9,454.5,1021.1,454.2,1021.9,453.8z M1013,459.2 M1012.4,459.4c0.4-0.1,0.7,0.1,0.9,0.4L1012.4,459.4L1012.4,459.4z
		 M1009.5,460.9 M1010.4,460.5l-0.9,0.1C1009.8,460.8,1010.1,460.8,1010.4,460.5z M1010.4,463 M1011.5,460.2 M1006.3,456.8
		 M1004.8,457.9 M1006,463l-0.7,0.4C1005.7,463.5,1005.9,463.4,1006,463z M1004.9,462 M1001.2,459.7 M1002,463.7
		C1003.2,463.8,1002.8,463.8,1002,463.7L1002,463.7z M996.7,461.3 M998.5,463.2 M997.6,463.5C998.2,463.6,998.3,463.6,997.6,463.5
		L997.6,463.5z M996,463.3 M983.3,470.5c2.5-0.5,9.1-3.1,13-5.6C990,464.7,986.3,467.8,983.3,470.5z M982.6,471.2 M982.7,471.7
		 M977.6,471.6 M967.8,467.9c2.9,0.9,4.4-1.2,6.5,2.5C971.1,470.6,970.1,468.7,967.8,467.9z M957.2,460.1 M955.3,459.1 M991.9,462.5
		 M990.8,463.5 M987.7,463.4C987.9,463.8,988.6,465.2,987.7,463.4L987.7,463.4z M985.2,464.7C987.2,464.1,986.5,464.3,985.2,464.7
		L985.2,464.7z M983.1,464.8 M982.6,464.6c-0.6-0.1-0.9,0.1-0.9,0.7C981.8,465,982.2,464.8,982.6,464.6z M982.9,463.6 M970.8,465.1
		c0.2,0.3,10.8-1.8,11.3-1.9C978.4,467,975.3,465.2,970.8,465.1z M970.4,465 M970,464.6 M935.5,357.8 M935.6,361.2 M960.3,465.1
		c2.6,0.6,6,1.6,8.4-0.3c0,0-0.8,0.1-0.4-0.8c-0.7-0.1-2.8,0-4.4-0.4c0,0,1.8,1.5,1.9,1.4C963.6,464.1,962.4,465.1,960.3,465.1z
		 M958.3,464.3 M956.1,465.4 M952.9,463.2c1.7,0.7,1.6,2.7,3.9,1.1C955.8,462,954.7,464,952.9,463.2L952.9,463.2z M1083.7,466
		 M1078.6,464C1079.1,465.6,1079.1,465.3,1078.6,464L1078.6,464z M1077.2,468.9 M1076.6,467.9 M1075.2,467.2 M1058.1,461.6
		 M1056.7,461.7 M1055.7,461.5 M1056.5,461.8 M1054,461.7 M1052.9,464.4 M1052.8,464.8 M1052.1,464.4
		C1052.5,464.5,1053.1,464.6,1052.1,464.4L1052.1,464.4z M1051.8,464.7c0.6,0.1,1.1,0.4,1.4,0.9
		C1052.7,465.3,1052.3,465,1051.8,464.7z M1052.8,463.1 M1053.6,462.9C1053.7,461.3,1054,462.9,1053.6,462.9L1053.6,462.9z
		 M1035.6,463.7C1036.9,463.3,1037,463.3,1035.6,463.7L1035.6,463.7z M1032.3,463.9c1.6-1.6,3.9,0.4,4.8-2.7
		c-0.3-0.2-0.5-0.4-0.7-0.6C1033.4,461,1034.8,462.5,1032.3,463.9z M1027,445.2c-6.6-0.3-6.2-14.6-16.6-5.5c3.2,0.8,7.4,3.3,9.8,3.7
		c-1.7,0.6-4.1,1.1-6.6,1.3c1.4,2.3,2.4,2,3.5,4.5c1-0.8,1.8-4,2.8-4.6c1.2,5.1,5.9,6.2,13.5,7.8c-0.7,1,0,1,1.1,0.8
		c-0.1,2.6,1.3,5.3,3.9,6.5c-1,1.1-1.8,0.7-1.8,3.2c1.8,0.8,2.8-0.5,4.2-0.9c3.1,3.7,5.5,6.6,11.2,4.4c-2.1-1.5-3.9-3.9-6.1-5.7
		c2.9,2.7,5.8,5.2,5.3,1.4c0.8-0.8,3.2,1.9,1.7-1.8c3.1-0.4,1.1,2.9,2.5-0.2c6.2,4.1,12.9,11.9,21,12.1c-1.1-2-0.9-0.3,0.9-1.6
		c-3.9-1.5-2.7-2.2-2.4-1.8c-5.6-2.8-9.6-7.1-7.3-12.3C1059.7,451.3,1034.5,432.2,1027,445.2z M1078.1,541.3l0.2-1.2
		C1078.7,540.5,1078.6,540.9,1078.1,541.3z M1078.4,532.7c0.4-1.7,0.1-3.5,1.2-4.7C1079.4,529.6,1078.6,532,1078.4,532.7
		L1078.4,532.7z M1072.7,522.6 M1071.9,517.8 M1058.9,502.7 M1047.7,470.4 M1047.2,472.1 M1036.2,496.7
		C1036.7,496.7,1037.2,496.8,1036.2,496.7L1036.2,496.7z M1035.4,495.2 M1028.5,491.9 M1026.3,484.6 M1027.2,485.4 M1027.6,474.9
		 M1026.9,475.5C1027.5,475.6,1027.3,475.5,1026.9,475.5L1026.9,475.5z M1026.4,475.8C1026.7,475.9,1026.9,476,1026.4,475.8
		L1026.4,475.8z M1025.1,476.4 M1024.3,477.4 M1023.2,477.7C1023.6,477.6,1024.9,477.5,1023.2,477.7L1023.2,477.7z M1014.5,474.9
		 M1007,474.5c1.8,0.6,0.2,4.2,3.5,1.3c0-0.3,0.1-0.5,0.4-0.6C1009.7,475,1007.7,474.8,1007,474.5z M1006.7,474.7 M985,489.4
		 M985.1,491.7 M988,486.7 M951.8,510.1 M941.7,527.8l0.3-1.5C942.2,526.9,942.1,527.4,941.7,527.8z M941.6,530.5 M1017.2,574.7
		c-0.5,0.8,1.9,2.4-3.3,1.8C1013.4,574.1,1016.3,576.1,1017.2,574.7z M258.2,437.4C257.7,439.1,258.1,437.9,258.2,437.4L258.2,437.4
		z M255.1,436.8 M254.2,435.1 M251.6,435.9 M251.9,434.9c1.2,2.1-0.1,2.8,1.7,3.1C253.5,436,251.5,434.2,251.9,434.9z M361.7,387.1
		 M357,395.2C358.2,395.1,357.6,395.1,357,395.2L357,395.2z M356.6,395.7c-1.8,1.8-2.8,0.2-3.5,3C357.6,399.3,355,397.4,356.6,395.7
		z M344.6,395.5 M330.9,390.8 M328.7,390.5 M325.4,389.7C326.6,390.5,326.5,390.4,325.4,389.7L325.4,389.7z M354.9,391.5
		 M355.2,389.9 M355.8,386.9c0.5,0.6,0.4,1.2-0.2,1.8C355.7,388.1,355.7,387.5,355.8,386.9z M356.8,384.5 M355.3,381.6 M355.4,379
		 M356.2,377.6 M355.9,375.4 M354.6,376.1 M352.7,374.6 M353.6,373 M354.1,371 M350.8,372.1 M349.2,369.9 M344.7,371
		c0.7,0.5,0.4,0.6-0.7,0.5C344.2,371.3,344.5,371.1,344.7,371z M341.7,370.7C342.7,370.4,344.1,370.1,341.7,370.7L341.7,370.7z
		 M331.4,369.6 M317.1,362.9 M317,357.7 M314.7,360.1 M316.7,354.4 M314.8,352.8 M312.8,352.2 M310.2,349.5 M307.7,349.2 M313,347.8
		 M309.3,345.9 M306.6,343 M303,337.1c1.4,1.8,3.9,1.3,1.4,4.2C305.3,338.9,304.2,338.6,303,337.1L303,337.1z M298.9,337.8
		 M303.1,344.3C304.9,344.2,305,344.2,303.1,344.3L303.1,344.3z M302.2,347.5 M301.5,347.7C302,347.7,302,347.7,301.5,347.7
		L301.5,347.7z M301.7,346.8 M302.6,347.7 M288.8,365.6 M283.4,356.4 M299.1,368.8c2.2,1.1,4.5-0.4,6.7,1.8
		C301.6,372.2,300.6,369.6,299.1,368.8z M341,368.9c-1.7,0.7-3.5-0.4-5.2,0.6c0.1,0.3,0.1,0.5,0,0.8
		C339.5,371.8,340.3,369.2,341,368.9z M315.8,367.1 M315.3,364c2,0,3.4,3.3,3.8,4.6c-2.7,0-5.7,0.3-7.6,0.1c2.5,1.2,7.2,2.7,9.9,3.5
		c4.4-2,3.5-2.1,10.4-2.8c0-0.2,0.8-1,0.9-1.1c-1.9-1.3-4-1.5-6.1-2.5C331.4,362.4,320.7,363.6,315.3,364z M377.3,631.9
		C378,631.9,380,632.2,377.3,631.9L377.3,631.9z M376.2,632.1C376.6,632.4,377.5,633.1,376.2,632.1L376.2,632.1z M373.8,635.1
		 M378.6,636.1c2.1-0.5,2,0.4,5.2-2c-0.7-1.2-0.4-0.2,0.2-0.9c-1.8-1-1.4,0.4-3.3-1.2C381,634,380.4,634.6,378.6,636.1z
		 M377.8,632.7c0.2-0.6,0.4,2.8-1.3,4.1c-0.2-0.3-1.5-0.5-1.8-0.5C376.3,633,376.2,634.9,377.8,632.7z M278.6,354.8
		c-3.5,3.3,4.6,0.2,9.5-0.9c-0.2-0.1-1.4,0.6-1.7,0.6c6.7,0.8,12.2,3.2,16.9,6.8c0.3,0.3-2,1.7-2.1,2.5c4.3,0.2,8-0.2,11.6-1.6
		C305.6,358.1,289.3,346.3,278.6,354.8z M21.9,353.4 M25,352.8 M30.5,355.2 M33.4,356.4 M34.8,358.1
		C33.8,354.8,34.9,358.3,34.8,358.1L34.8,358.1z M35.7,362.3c1-0.1,0.3,4.9,4.1,0.4C37,358.4,37.2,362.1,35.7,362.3z M173.7,233.5
		 M169.5,225.5 M168.3,223.9 M164.6,220.7C166.2,221,165.6,220.8,164.6,220.7L164.6,220.7z M158.9,218.2c0.2,2.8,0.8,4.1,3.8,5.4
		c0.2,2.9,3.1,5.2,7.7,9.9c0.3-0.3,0.6-0.4,1-0.2C170.5,225.5,165.6,220,158.9,218.2L158.9,218.2z M165,219.7 M164.4,219.1
		C165.1,218.8,165.2,218.8,164.4,219.1L164.4,219.1z M160.5,204.1 M162.3,211.1C162.7,210.3,162.7,210.4,162.3,211.1L162.3,211.1z
		 M162.1,213.3 M162.7,212.5 M163.3,211.8C166.1,209.7,166.3,209.6,163.3,211.8L163.3,211.8z M162.8,208.1 M161.4,207.9
		C162.6,207.9,162.8,207.9,161.4,207.9L161.4,207.9z M160.4,205.9 M161,205.3c0.2,0.8,0.5,1.4,1.6,0.5
		C162.7,205.8,163.6,205.8,161,205.3z M161,203.8 M162.2,202.7 M158.1,200.7 M159.4,200 M158.2,199.1 M151,199.5
		c1.7-1.4,0.7-3.3,3.1-2.2c-0.2,2.1-1,0.8-1.9,2.3c0.3,0.1,0.5,0.4,0.5,0.7c0.9-0.9,1.9-2.4,3.4-2.7c-1.2,2.4-2.4,3.9-4.1,5.5
		c-0.1-0.3,1.3,3.9,1.6,6.1C150.5,204.4,151.3,203.5,151,199.5z M154.7,191.9 M159.2,196 M158.4,193.1 M158.7,191.2
		C159.5,192.7,159.1,192,158.7,191.2L158.7,191.2z M158.5,189.7 M159.2,189.6c1.7-0.6,0.5-3.5,2.6-1.8c-0.3,1.1-0.6,1.4-0.9,2.6
		C159.1,190.3,161.2,188.9,159.2,189.6z M153.2,191.7C154.4,194.4,153.9,193.2,153.2,191.7L153.2,191.7z M153.3,190.8 M153,190.1
		C154,189.7,153.3,190,153,190.1L153,190.1z M152.5,189C153,190.6,152.6,189.3,152.5,189L152.5,189z M152.2,185.9 M153.9,186.7
		 M154.1,185.7C155.9,184.8,155.6,185,154.1,185.7L154.1,185.7z M155.6,186.2c-0.4,3.7-1.5,3.7,0.4,7.7
		C157.3,189.8,158.3,184.9,155.6,186.2z M159.7,185.5 M158.3,186.4C159.7,185.3,159.1,185.7,158.3,186.4L158.3,186.4z M157.9,185.6
		 M157.2,183.9 M158.1,182.2 M155.9,183.2c1.1-2.2,2.7-0.4,2.3-3.8c-0.6-0.3-1.7-0.4-2.2-0.7C156.4,180,156.7,181.5,155.9,183.2z
		 M154.2,182.2c0.2,0.1-2.4,2.2-0.7,2.5c1.3-2.8,1.2-3.6,1.6-5.4C154.6,179.5,152.8,181.4,154.2,182.2z M153.7,176.3
		C154.4,176.8,154.1,176.6,153.7,176.3L153.7,176.3z M152.1,176.4c0-0.4,1.4,4.1-0.3,7C151.6,179.5,151.9,180.2,152.1,176.4z
		 M150.8,176.6 M154.1,178.2c1.4-2.9,2.1-3.8,2.6-8.1c1.2,4-0.2,6.9,0.9,2.4C157.6,175.9,156.4,177.9,154.1,178.2z M152.4,170.4
		c-0.4,1.6-2.1,2.4-0.1,5.5c1.2-0.9-0.6-1.9,0.1-2.9c1.7,0.7,0,2.5,1.9,2.8c-0.2-0.6-0.1-1,0.4-1.3c0,0-1.9-2-1.9-2.5
		c0.2,0,1.7,2.1,2.2,1.1c-0.4-0.4-0.2-0.6,0.4-0.6C154.1,170.9,153.8,171.7,152.4,170.4L152.4,170.4z M152.5,169.7
		C154,169.2,153.1,169.5,152.5,169.7L152.5,169.7z M50.5,127.6C50.8,126.9,50.8,127,50.5,127.6L50.5,127.6z M50.5,128 M85.9,116.5
		c0.3-0.1-0.8-2.7-2.9,1C85.9,119.7,84.3,117.2,85.9,116.5z M86.4,116.5 M93,112.2 M127.8,145.1
		C128.6,144.9,128.7,144.9,127.8,145.1L127.8,145.1z M124.5,155.3C125.1,155.1,126.3,154.8,124.5,155.3L124.5,155.3z M131.9,153.4
		C131.9,153.4,134.4,153.4,131.9,153.4L131.9,153.4z M126.5,146.5C127,146.2,127.4,146,126.5,146.5L126.5,146.5z M127.4,149.2
		C128.7,148.1,128.8,148,127.4,149.2L127.4,149.2z M121.9,151.9c1.5-0.9,3.1-2.2,4.3-3.6c-0.1,0.3,0,0.9,0.3,1
		C124.7,151.6,123.1,151.3,121.9,151.9z M121.7,150.6 M123.5,149 M124.5,144.6 M228.6,92 M222.1,85.5 M198.1,87.5 M198,88.7
		C198.2,88.2,198.2,88.1,198,88.7L198,88.7z M196.8,90.8c0,0,1.2,3.4,5.2-1.4c-0.6-0.1-1.4,0.6-0.9-1.3
		C198.7,90.1,199,90.2,196.8,90.8z M194.3,92.9 M194.5,93.3c0.9-1.5,0.3-2.4,1.6-3.5C197.1,93.4,195.1,92.4,194.5,93.3L194.5,93.3z
		 M195.5,96.8c-0.8-1.7,0.8-2.9-2-3.6C193.9,95.8,194.1,93.8,195.5,96.8z M187.9,84.4 M83.4,97.2 M70.2,111.5
		c-1.5-2.4,0.4-4.7-3.9-4.9c0.3-0.2,1.9-3,2.1-3.6c2.2,1.5,3.9,4.1,6.1,7.7C73.5,110.6,71,110.8,70.2,111.5L70.2,111.5z M65.6,134.6
		c2.5,1.2,2.2,5.3,5.4,1.2c-0.3-0.4-0.8-1.2-0.8-1.6C69,134.7,67.1,135.2,65.6,134.6L65.6,134.6z M110.8,145
		C112.8,144,112.5,144.2,110.8,145L110.8,145z M103.7,149.9C104.8,150,104.9,150,103.7,149.9L103.7,149.9z M103.7,155.7
		C104.4,156.4,104.5,156.5,103.7,155.7L103.7,155.7z M101,159c1.1-0.3,2.3,0.8,3.8,0.2c-0.3-1-0.2-0.8-0.3-1.9
		C102.6,157.1,102.7,158.5,101,159z M93.9,166.1c0,0.1,2-1.6-0.3,1.8c5.6-3.9,5.4-3.8,9.3-6.5c-2.2-0.7-1.3-0.1-2.6-1.5
		c-0.6,0.2-0.2,1.7-1.6,1.9c-0.6-0.3,1.2-1.7-0.6-1.8c-1,0.7-0.1,1.8-1.1,3.1C92.1,161.7,94.3,164.5,93.9,166.1z M92.5,168.7
		C92.9,168.9,93.2,169,92.5,168.7L92.5,168.7z M90.6,169.5c0.3-0.9,0.9-1.4,1.9-1.4C92.1,169.1,91.4,169.5,90.6,169.5L90.6,169.5z
		 M86,173.4C86,173.2,86.5,172.1,86,173.4L86,173.4z M83.4,167.2C84.7,167.7,84.5,167.7,83.4,167.2L83.4,167.2z M70.2,173.3
		 M69.4,173.5C69.9,174.2,69.7,173.9,69.4,173.5L69.4,173.5z M72.5,176 M71.8,175.8l0.4-0.8C72.4,175.4,72.2,175.7,71.8,175.8z
		 M69.1,176.6 M68.2,174.5C68.8,173,68.7,173.2,68.2,174.5L68.2,174.5z M64.8,174.1C65.7,174.8,65.5,174.7,64.8,174.1L64.8,174.1z
		 M62.6,175.8 M60.1,177.4 M0,189.1 M0.5,187.7C0.6,188.6,0.6,188.4,0.5,187.7L0.5,187.7z M1.3,186.1C2.1,186.2,2,186.2,1.3,186.1
		L1.3,186.1z M5.7,186.6 M6,187.9 M9.6,187.5 M17.8,187.2 M18.9,187.4 M24.5,186.6 M28.3,186.3 M30.8,185.2 M32.5,185.1 M32.8,184.1
		 M32.9,184.5C33.9,184.5,34.3,184.6,32.9,184.5L32.9,184.5z M40.8,180.8c-0.9,0.8-2,3.6-5.3,4.2C36.3,184.2,40.8,180.8,40.8,180.8z
		 M46.5,178.5c-1.6,1.7-1.9,2.8-5.4,4C47,183,45.3,180.7,46.5,178.5z M48.7,179.5 M52.1,179 M51,179.1C51.4,179,52.2,178.8,51,179.1
		L51,179.1z M50.5,178.5C51.1,177.1,50.9,177.6,50.5,178.5L50.5,178.5z M49.5,177.8 M80.9,150.1C81.1,149.9,81.5,149.3,80.9,150.1
		L80.9,150.1z M79.6,150.4 M53.5,176.3c2.2-0.6,2.5-2.8,5.7-2.6c0.1,1,0.5,1.6,1,2.4C58.2,176.6,54.3,176.1,53.5,176.3z M357.7,657
		 M326.9,595.2c-1.6,0.5,0.9,1.8-2.8,3c0-2.5,0.4-4.8,0.4-6.8c1.5,0.6,3.1,2.2,1.3,2.8C326.4,594.3,326.8,594.7,326.9,595.2z
		 M327.3,593.5C328.5,593.8,328.1,593.7,327.3,593.5L327.3,593.5z M323.3,599.9 M328,600.7 M327,600.6
		C327.3,601.4,327.5,602,327,600.6L327,600.6z M325.5,600.4 M325.7,601.7 M324.8,602.5 M324.3,603.6 M327.5,603.4 M326.4,603.2
		C327.7,603.6,327,603.4,326.4,603.2L326.4,603.2z M324.9,608.5C325.5,609.5,325.1,608.8,324.9,608.5L324.9,608.5z M325,604.1
		C325.7,603,325.7,603,325,604.1L325,604.1z M323.6,605.2 M326,607.5C327.2,608.1,326.5,607.7,326,607.5L326,607.5z M326.9,608.3
		C327.4,608.4,327.9,608.7,326.9,608.3L326.9,608.3z M328.1,602.3 M329.2,602.9C329.4,605.9,329.3,605.4,329.2,602.9L329.2,602.9z
		 M325.4,604.9 M326.2,606.2 M326.5,606.7 M325.5,608.5 M327.3,621.7c0,1.6,1.1-0.7-0.1-2.9C325.2,620.3,327.3,620.3,327.3,621.7z
		 M324.8,620.4 M324.9,621.5 M326.2,625.6 M327.1,628.1 M328.8,627.8c-0.4,2.6,0.9-1.6,0.1-4.5c-2.2,0.4-1.5,2.1-0.9,1.7
		C327.1,626.9,327,628.3,328.8,627.8z M328.3,631.3C328.5,629,328.4,629.7,328.3,631.3L328.3,631.3z M327.9,632.3 M329.2,631.9
		 M329.7,631.6 M329.7,632.7 M330.3,636.1 M331.2,639 M331.3,637.8 M332.5,638.2C333.2,638.9,333.6,639.2,332.5,638.2L332.5,638.2z
		 M332.2,640.4 M334.1,638.7C332.5,636.4,333,637.1,334.1,638.7L334.1,638.7z M334,639.7C333.8,638.4,334,639.4,334,639.7L334,639.7
		z M334.3,641 M335.1,642.6 M337.1,646c-1.9-1.2-3.5-0.3-4.1-3C334.3,643.6,339.7,647.6,337.1,646L337.1,646z M334.9,646.3
		c-0.5,0.3-0.4,0.4,0.4,0.4C335.2,646.6,335.1,646.4,334.9,646.3z M339.6,649.4 M341.4,649.7c-0.9-1,0.2-3.4-4.8-3.1
		C338,648.2,340.3,648.6,341.4,649.7z M342.2,649.5 M346,648.9c-1.6,0.2-2.7-1.1-3.1,0.3C344.6,650.5,345,649,346,648.9z
		 M347.9,648.7 M345.4,653.7 M345.6,653.1 M366.2,650.9 M358.9,656.7C359.2,655,359,655.7,358.9,656.7L358.9,656.7z M350.5,653.3
		c0.4,1.1-0.1,0.8,0.8,1.3c2.1,0.6,1.4,0.6,5,1.5c0.7-1.2-2.5-2.1-3-2.5c2.5-0.2,3.6,0.3,5.8-0.2c-0.3-0.2-0.5-0.5-0.5-0.9
		C355.8,652.3,353.2,653,350.5,653.3L350.5,653.3z M348,647.4c-0.1-0.1,0.8-3.1-1.8-4.9c4.8-3.5,3.7-0.8,5.6,1.5
		c3.9,1.8,7.9,5.5,12.4,6.7c-4.7,0.8-10.7,2.2-16.1,2.1c-0.1,0,0.8,1.5,0.8,2c-2-1.6-3.5-1.8-5.2-3.4c0.7-0.6,1.4,0.4,1.1-0.5
		c1.1-0.7,3-0.1,3.1-0.2c-0.7,0.2,1.3-0.7,0.6-0.3c0.1,0-2.3-1-1.7-1.4c3.1,0.7,6.3,0.6,10.1,1.1C352.8,650.8,351.1,648.6,348,647.4
		z M392.5,427.1C391.8,423.7,392.7,427.1,392.5,427.1L392.5,427.1z M289.8,445.1 M191.1,343.7 M191.7,345.2
		C192.1,345.8,191.9,345.6,191.7,345.2L191.7,345.2z M238.4,332.9c0.3-0.8,0.8-1.3,1.5-1.7C239.5,331.8,238.9,332.4,238.4,332.9z
		 M237.6,334.7l0.5-1.3C238.2,333.9,238,334.4,237.6,334.7z M237.3,339.3c-0.4-1.4-0.4-2.9,0.2-4.3
		C237.4,335.1,235.9,339.3,237.3,339.3L237.3,339.3z M235.3,344.2 M235.2,345 M234.8,346.5l0.3-1.1
		C235.2,345.8,235.1,346.2,234.8,346.5z M389.4,420.4c-0.5-2-1.1-1.9-2-0.2c-0.3-3.6-3.5-5.8-8.2-5.4c-1.6-2.4-5.9-2.7-9.7-1
		c-1-3.1-2.8-4.6-5.1-2.4c-0.7-6-4.6-8.6-10.7-7.7c-0.2-2.3,1.5-4.3-4.2-6.3c0.9-0.3,3.2-0.2,3.5-1.3c-11,2.3-22.1,2.3-27.7-4.8
		c-1.1,4.1,0-0.1,1.4,2.4c-3.9,3.4-4,3.5-7,8.5c0.6-4.6,0.1-6.3,2.4-10.9c-3.5,0.3-10.9,3.8-11.1,4c-4.1,2.7-7.7,5.7-8.8,10.7
		c-7.7-12.1-22.4,3.4-23.1-13.8c0.1,1.7-0.1-1.5,0.5-2.7c-0.3,0.4-0.3,1.4,0,1.5c2.3-6.8,2.4-9.3-2.5-11.2c0.3-1.3,1.5-0.4,2.4-0.5
		c-5.8-1.9-11.7-1.7-17.5-1.6c0.2-0.6,2.2-9.4,1.9-8.7c0.1,0,1.7-1.4,1.7-1.5c0.3,0.2-0.7,1.8,0.7,2.3c5.8-17.6-6.9-14.5-13-0.2
		c-7.3-0.1-16.5-0.9-19.7-13.8c0.7,0.6,1,1.3,0.9,2.2c-0.7-5.2,0.1-10.9,0.6-15.8c0.8-0.4,0.1,0.1,2-2.7c0,0.1-1.3,1.8-1.3,1.8
		c0.9-10.8,5.1-11.5,9.9-16.2c0.7,0.8,1.1,0.5,1.4-0.5c5,0.4,14,2.5,17.7,4.3c-0.9-1.9,0.5-3.4-1.9-3.6c5.5-2.8,7-3.2,12.8-2.6
		c-2.1,0.4,0.2,0.5,1.6,1.3c0.3-0.1,0.7,0.2,1.3,1.9c6.6-0.6,7.7,0.1,7.5,8c0-0.1,0.7-1,0.7-1.2c-0.7,3.7,1.3,3,2.1,3.9
		c4.2,21.1,2.4-13.8,3.5-17.1c2.6-7.4,18.5-10.3,16.9-14.4c1.6-0.9,1.3-0.7,1.8-2c1.4,0.1,2.4,1.1,2.6-1.7c-0.9,1.1-1.1,0.6-3.3,0.3
		c0.2-0.5,0.2-0.9,0.1-1.4c5.8-0.5,1.3-1.8,0.1-4.8c1.1,0.6,3.2,1.9,1.6-0.1c1-1.4,0.4-3.2-1.5-6.3c2.2,4.5,2.9-0.2,3.7-3.5
		c-1.1,3-0.8,5.7,1.2,7c-0.3,1.4-1.6,2.5-1,2.9c1.7-2.9,2.7-7.5,3.7-11c0.3,1.5-1.2,2.6,0.2,4.1c0.3-0.5,0.5-0.5,0.6-0.2
		c1.8-6.4,8.3-11.1,12.9-12.3c2.6,1.3,2.4,2.1,4.7-1.3c-3.1-2.2-0.1-7.8,5.9-10.7c1.4,0.4,3.6,1.1,6.9,0c-0.1-1.3-0.9-0.5-2-2.5
		c1.9,1,3.5,0.7,4.9-1c-0.6,0.1,2.4,0.7,4.6-1.6c0,0.5,0.1,0.5,0.5,0.1c-0.6,0.5-1.3,1.6-2.1,2.1c1.3-0.2,3.2-0.4,4.8,0
		c-2.5,0.6-15.1,6.3-7.1,7.7c1.4,0.2,10.5-6.5,15-6.9c-4.9-1.4-13.7-4.1-10-11.8c-2.6,0.1-3.4-0.5-6.4-0.9c4.2-0.6,10-2.4,7.9-4
		c-6.8-5.5-19.5,5.7-25,9.2c5.6-4.2,12.2-11.7,17.6-14c6.3-2.6,10.8,0.2,17.5-1c8-1.4,21.8-6.2,18.4-11c2.3-2.7,4-4.5-1.5-3.7
		c-0.1-0.6-0.4-0.8-1.1-0.6c0.1-1.1,3.2-1,1.2-2.9c0.4-0.2-3.2,0-3.1,0.1c0,0,1.2,0.3,1.3,0.4c-2.2,1.6-6.1,2.3-8.2,3.9
		c0.3-1.3-0.2-2.2-1.1-3.8c2.5,0.6,3.3,2,7.2-0.4c0.5-0.2-3.3,0.2-3.1,0.3c2.4-0.7,5-1.7,7.5-2.3c-2.2-1.3-2.1-0.4-1.3-1.9
		c-3.5-1.1-1.5-0.5-3-1.6c-4.8,0.2,0.9,0.6-0.5,0c-0.9,0-1.4,1.3-2.4,1.4c1.3-2.3,0.8-0.4,0.8-2.2c-0.7,0.4-1.3,1.1-2,1.6
		c1.2-2.3-0.6-0.8-2.5-0.5c1.2-1,2.9-1.2,2.8-3.1c-0.7-0.6-2.7-2-5.7-2.5c1.5-1.1,3-0.8,0.2-2.9c3-1.5,1,0.7,4.1-1.9
		c-1.4-1.6-1.7-0.8-3.4-2.4c3.4-1.8,0.9-1-0.2-1.8c2-2,1.2-2.2-1.5-1.3c1.1-1.9,4.5-3.2-0.3-1.8c0.3-0.3,0.3-0.7,0.1-1
		c1-1,1.8,0.7,2.4-1.7c-1.4-0.8,0.1,0.1-2.9-1.1c0.5-0.8,2.2,0.2,2.2-1.3c-0.9-1.4-2-5.4-2.2-7.1c-2.2,2.4-4,5.4-6.5,10.7
		c-1.5-1.8-3.7-0.5-6.3,2.7c0.9-3.9,0.2-4.2-2.2-0.6c0.7-3.9,2.1-5.2-1.6-6.2c2.3-1.5-0.2-3.1-2.4-6.4c3.7-0.8,5.5,0.4,5.7-5.6
		c-1.9,0.2-3.4-0.7-6.1-0.8c0.2-0.7-0.1-1.2-0.8-1.5c0.1-0.4,1.8-0.4,1.6-0.6c-1.7-4.3-5.4-6.5-11.4-5.5c-7-6.1-8.2,5.8-7.3,9.5
		c-0.9,2.1-1.1,3.2-1.3,5.8c-5.8,1.6-4.1,10.2-3.2,18.1c0,0.2,0.8-1.3,0.9-1.1c-0.1,0.7,0.1,1.2,0.7,1.6
		c-13.7,5.2-15.1,14.4-13.2,26.4c-0.6-1.2-2.5-1.7-2.4-3.9c-2.3,3.6-2.4,0.7-5.5,2.8c-1.2-5.7-2.9-14,0.9-21.5
		c-13.2,0.4-17.1-17.1-31.3-12.5c2.6-3.3,5.3-4.7,3.8-10.6c-2.6,0.6-4.6,2-7.1,3.9c4.4-6.6,9-17.2,12.4-23.5c2,0,2.8-0.5,3.9-0.5
		c1.5-2.5,0.2-1.2,1.1-3.3c0.5-0.4,1.4-0.1,0-4.1c7.3,3.3,6.4,1.7,2-1.2c0-0.2,0-0.4-0.1-0.6c0.3,0.5,2.5-0.1,1.9-0.8
		c-2.5-1.6-2.7-1.1-2.9-1.2c-0.6-0.3-0.9-0.8-1-1.5c0.7,0.4,0.9,0.1,0.6-0.9c2.2,2.2,4.8,4,7.1,5.9c0.4-0.7,3.1-4.3,2.8-2.8
		c2.6,0.8,7-1.4,11.4-6.7c-3.2-1.9-5.3-5.1-6.1-5.8c-1.6-0.6-3.7-1-4.4-1.3c6.9,6.2,14.3,7.7,15-2c3.1,2.3,3.2,0.4,5.5,3.2
		c0-0.1-0.4-2-0.1-1.7c-0.2,0.8,1.8,1.8,2.1,2.2c-1.1-2.4-2.1-4-2.7-4.9c2.8-1.3,2,0.3,3.8,0.3c0.4,0.8-1.1,2.6-0.2,4
		c8.5-2.6,10.3-9.8,7.4-13.9c0.3-0.1,0.4-0.4,0.3-0.7c4.9,1.2,4.2-2.4,3.2-1.9c1.9-2.6,2.5-3.2-1.1-5.1c0.6,1.1,1.7-0.1,1.3-0.8
		c-2.5-1.4-5-2.1-7.7-2.9c0.1,2.1-0.5,3.7,0.2,6.6c-2.8,0.9-9.3,8.6-11.5,11.4c-0.2-7-0.3-9.7-0.7-16.2c-1.9,3.7-3.3,4.2-5.5,7
		c1.1-3.3,0.2-4.9,0.5-8.3c0.5,1.2,2,0.6,2.7-0.6c-1.8-0.8-3.4-1.8-5.6-1.9c2.5-1.3,1.8-3,1.8-3.4c0.2-0.1,1.6-1.2,1.7-1.3
		c-0.9,0.9,0.5,1.6,1.1,1.5c0.4-7,2.3-17.6-6.4-14.3c0.2-0.4,0.5,2,0,3.2c0.3,0-0.3-2.2-0.4-2c-2.5,2.8-2.6,5.7-2.6,6
		c-5.1,4.7-2.9,5.8-0.5,8.2c0.7,3.3,3.9,1.1,1.6,4.6c-0.6-0.3,0.2-1.4,0.4-1.2c0.2-0.3-3.4,2.9-4,3.2c1.7,1.3,1.5-1.1,2.7-0.8
		c-4.9,4.8-10.3,9-7.2,11.6c-3.2,1.3-4.5,2.2-5.7,4.6c1.5-2.3-1.7-5.4,2.7-2.9c0-0.5,0.2-1,0.4-1.4c0.1,0.3-2-0.1,0-1
		c-0.1-0.2-1.9,0.7-1.9,0.7c1.1-1.8,1.2-3.5,3.9-7.1c-0.3,0.1-3.1,1.3-3.2,1.2c0.8-1.4,0.1-2.5-1-2.8c-0.8-0.4-1.2-0.8-2.9-1.2
		c-1.1,2.5-0.5,3.1,0.8,6.8c-0.5-1.5-1.9-3.1-2.6-4.3c-0.2,0.2,0.2,2.6,0.2,2.8c-13.6-0.5-16.3-16.3-26.4-10.8
		c1.1,0.1,1.4,0.3,0.7,1.4c0.6-0.2,0.9,0,1.1,0.4c2.4-1.4,2.6-0.7,6.7-2.5c0.1,0.3,0.3,0.4,0.7,0.2c-0.5,0.2-0.6,0.5-0.2,0.9
		c-2.8,0.1-2.1,1.3-3.2,3.2c-4.8-0.9-7.1,1.3-7.1,8.2c-0.1-0.2-0.9,0-0.9-0.1c0.2,0.4-0.1-2.1-0.1-1.3c-1.2,2.6-0.2,4-0.7,6.7
		c-0.3-4.7-1.6-6.8-0.4-11.7c-0.2-0.3-0.9,1.9-1,1.7c-0.5-2.6-0.2-3-1.1-5.5c-5.7,2.6-10.9,1.6-15.6-2.8c5.9-1.9,8.3-4,2.3-8.4
		c0,0,1.2,2.2,0.5,2.3c-7.2-5.1-11.1-15.6-20.3-11.1c1.8-3,0.9-2.6,2.7-5.8c-2.4,3.6-3.9,3.1-5.2,5.8c-0.3-3.7-1.1-8-0.7-12.7
		c-2,4.4-3,2.5-6.5,6.5c-1.4-0.4,0.2-1.7,0.5-1.9c-3.2,0.8-5.3,2.5-8,3.8c-0.5-0.5,1.3-2,0.5-2c-3.5,0.8-7.3,4-8.3,4.8
		c1.5-4.2,8.8-6.2,15.3-8.3c-0.2,0-0.5-1.6-0.8-1.3c-7.7,1.7-16.8,3-21.3,11.9c-3.4-12.8-20.7-29.4-31.1-27c0.9-1.4,2.4-1.9,2.9-3.6
		c-3-1.7-4-0.2-6.5,1.3c1.5-5.3,1-8.9-5-8.3c0.1-0.7,1.1-3.4,0.7-4.2c-2.2,1.1-3,2.2-3.9,4.1c0.7-1.5-1.5-2.5-2-2.6
		c5-3.2,2.1-1.6,3.7-4.7c-4.9,1.2-10.5,1.1-10.8,1.1c-2.3,3.4-4.3,2.2-6,6.7c0-0.7,0.5-3.2,1.1-3.4c-2.1-0.3-3.1,1.4-5-0.4
		c-4.2,4.8-40.9,14.7-21.1,26.6c1.3,2.4-1.2,2.2-0.2,5.4c0.4,0.4,4,0.2,5.2,0.9c-0.8-0.2-1.1,1.6-0.9,1.9c-3.8-3.1-2-2.1-4.7-6.4
		c0,0.4-1.6,4-1.9,5.1c1.5,1.3,0.6-1.4,1.7,2.4c-3.1,0.7-7.1,0.2-6.4-5.6c-4.6-0.5-4.3-0.4-6.2,1.5c-8.3-1-14.3,1.8-4.8,8.2
		c-2.4-1-3.4-1.4-4.2-2.1c-3.2,7.4,2.3,9.9,7.2,8.4c0.2,0.3,0.7,2.2,0,2.1c3.1-2,5.9-2,8.5-3.5c-0.9,2-1.7,2.8-3.9,3.1
		c0,0.9-40.7,32.5-19.5,22.8c-2.1,0.7-2.8,2.5-2.1,4.1c-6.5-1.5-6.2-0.2-5.7,5.8c4.8,1,7-0.6,10.1-4.1c-3.2,4.2-5.6,8.3-4.1,11.5
		c-1.3,1.1-2,1.5-3.4,2.7c2.1-0.1,3.7-0.6,6-1.7c0.1,1.7,0.6,3.3,2.5,5.6c0.2-3,1.7-3,3.6-4.2c-2.7,4.1,1.1,2.5,4.4,1.1
		c-2.8,1.5-4.7,3.7-4.1,6.3c-5.2,5.8-12.9,8.6-18.5,14.4c-3.8-0.1-6.4,0.8-10.3,4.2c1-0.4,0.1-0.5,0.6-1c3.5-0.5,2.3,0.1,7.2-3
		c0.4,0.4,0.3,1.9-0.4,2.1c2.9-0.7,2.6-1.5,6.4-2.4c0.4,0.1-1.3,1.7-0.9,2c2-1.3,4.9-2.3,5.1-2.4c1.6-2.2-0.4-0.9-0.1-1.8
		c14-4.7,27-16.6,29.1-22.9c4.5-1.5,8.3-5,13-7.5c-0.2,3.1,1.9,1.8,4.1,0.1c-2.1,2.1-4.2,2-2.8,5.4c-6.7-1.4-5.9,0.4-11.2,5.9
		c-0.8,2.5,2.4,0.1,2.6,0.6c-1.9,1.5-2.8,1.8-4.7,2.5c3.6,0.7,4.6,0.6,9.2-2.5c0.2,0.1-0.2,1.4-0.4,1.5c1.1-0.3,1.3-2,2-2.7
		c3,1,2.7,0.7,3.4-2.5c1.6-2.5,1.2,1.1,0.4-2.1c1.9-0.2,2.5-0.6,4.5-1.3c-1.9-1-1,2.5-1,2.6c1.7-0.8,1.3-2,5.5-1.9
		c-2.5,1.9-2.3,0.7-0.4,2.9c0.1,0-1.6-0.6-2.3,0.1c1.3,0.8,1.8,0.5,0.9,2.4c2.4,1.4,2.6,0.9,4.4,2.3c-0.5-0.4,0.8-1.3,1.3-1.3
		c0.4,0.8-1.7,3-1.7,2.7c3.4,0.9,6.3,1.5,9,1.9c1.2,0.8,1.1,1.2,5.1,1.7c-1.3,2.1-1.8,1.7-2.7,2.6c1.8,4.6,2.2,1.3,4.6,1.3
		c0.1,4.4-2.3,6.8,2.5,9c-0.1-0.9-0.2-0.3,0.6-0.2c-0.2-1.8-1.2-2.2-0.9-4.7c0.9,2.4,2.6,3.9,3.8,6.5c0.2-4.9,2.8-7.9,3.1-8.8
		c-0.7,5.6-3.2,9,2.4,10.4c-3.8,3.7-2.5,5.5-0.1,9.6c-0.8,1.5-1.8,2.2,1.1,3c-2.6,1-2.6,2.6-3.9,4.3c1.3-0.6,2.8-1.9,4-2.6
		c-1.3,3.7-0.8,5.2-2.1,7.8c1.4-1.8,2.9-3.8,4.4-6.1c0.3,0.9-1.4,3.9-1.9,5c-0.1,0.3,2.3-2.7,2.3-2.7c0,0.3,0.2,0.5,0.6,0.4
		c-5.4,4.2-4.2,4.6-4.4,11.4c0.2-0.2,3-2.5,3.5-2.5c-1.5,2.2-0.7,2.9,1.4,4c-3,1.5-3,3.9-2.1,5.4c-1.9,1.3,2.9-1,4-2.1
		c-3.1,3.1-0.1,1.8,0.3,3c-2.9,1.8-0.9,0.6-5.6,3.2c0.1,0.3,0.1,0.6,0,1c1.4,0.2,1.4-0.9,3.3-0.4c-1.2,0.9-2.7,0.5-3.7,1.5
		c0,0.1,1.9,0.2,2,0.3c-1,0.5-1.4,0.2-2.2,0.8c0.4,0.7,2.2-0.2,2.8,0.3c-2,1.7-1.2-0.8,0,0.6c-0.3,0.3-2.1,0.5-2.3,0.2
		c2.7,2.4,3.5,0.9,6.1,0.3c-0.8,1.3-1.7,2.4-3,3c3.5-1.5,0.9,1.4,4.9-2.2c-1.2,5.3,0.3,3.7,1.3,8c-0.1,0-0.9-0.8-0.9-0.7
		c-0.2,0.6,0,1.2,0.6,1.6c0.3,0.2,1.7-1.2,2-1.1c0.8,6.2,0.9,9.2-3,12.8c0.9-0.9,2-0.5,2.3-3.1c-0.2-0.3-1.7,1.6-1.8,1.1
		c-1-2.9,1.6-1.2-4.3-4.8c-2,7.4-0.8,10.4,2.6,13.9c-9-2-18,38.7-6.7,39.3c-1.9-0.1-2.1,0.8-1,2.5c-3.7,5.6,25.2,41,16,43.2
		c8.2,4.1,7.9,12.3,15.1,19.8c-1.4-9.7-13.3-23.2-12.1-37.3c7.4,5.5,9.9,17.8,16.6,24c-1,13.3,20.2,45.8,44.7,39.5
		c-0.1-0.3-1.6-0.3-1.2-0.6c1.6-0.8,1.9,0.5,4.2,1.7c0.4-0.5-2-1.7-1.9-1.7c6.5,7.7,17.5,11.5,23.7,10.6c1.5,3.4,5.3,9.9,7.8,13
		c0.9-0.1-0.6-2.3-0.6-2.6c1.5,2.6,4.5,5.2,6,7.1c0.8-0.4-0.4-1.8-0.3-1.7c3.7,2.3,7,3,9.7,5.4c0.4-0.9,0.9-1.2,1.8-1.1
		c2-5.5,0.9-3.9,6.8-3.7c3.1,11.3-10.3,38.9-6.9,39.4c-6.8,7.7,7.5,39.4,20,44.7c26.8,19.7,13.5,58,11.2,85
		c-0.6,7.7,1.9,17.5,7.3,17.6c-0.5,1.3-1.1,2.5,0.2,3.9c-0.7,2.5,0.8,11.9-1.9,18.9c-1.7-3.5,1.5-1-2-2.1c1.1-0.1,0.9-1.3,0.8-1.9
		c-0.4,0.2-2.5,0.6-2.8,0.3c-0.3,1.7,0,4.5-0.1,5.4c4.1-1.2,2.5,0.7,3.3,2c-0.4-0.1,4.2,1.7,3.8,1.3c-0.3,0.2-0.3,0.5-0.1,0.7
		c-0.2,0.3-2.5,0.7-2.8,0.8c1.1,2,2.3,3.9,2.6,7.3c0,0.1,0.1-3.2,0.8-2.7c0.3,0.3,0.2,0.4-0.1,0.3c-1.2,6.9,1.2,9.1,3.7,14.4
		c0.6-2.2-0.5-1.5,1.2-0.4c1.2-1.7-0.7-1.8-0.6-2.1c0.3,0.1,2.2,0.8,2.5,0.6c0,0-2.1-1.7-2.1-1.3c2,2.5,1.7,1.3,2.1,4.4
		c1,0-0.5-2.5-0.7-2.3c-1,2.3,0.2,0.9-2.9,1.7c1.4,3.3,1.5,1.8,1.6,3.9c0.7-0.1,1.2,0.1,1.7,0.6c0.3-0.5,1.1-2.6-0.4-2.2
		c-0.7-0.2,5.4-0.7,5.1-0.5c-2,1.7-2.8,1.8-4.2,3.8c0.1,0,1.9,0.8,1.9,1c1.2-2,0.6-2,2.8-4.1c-0.1,0.3,0.8,0.5,1,0.4
		c-0.2,0.5-2.2,3.4-2.1,3.7c-0.1-0.2,1-1.5,0.1-1.5c0.1,0.3-1.1,0.8-1.3,0.9c-0.7,0.1,4,2.5,3.9,2.4c3.1-7.2,2.1-5.3,7.2-8.7
		c-4.5-4.1-2.3-6.6-3.3-12c9.7-6.8,0.8-10.1,1.3-15.2c0.7-6.4,6.5-11.6,4.3-17.8c1.9-0.5,2.6-0.5,4.4,0c0,0-0.6-3.4-0.6-3.4
		c-2.7-0.1-0.6,1-3,1.5c-0.9-1.1-1.3-4.5-2-7.1c8.3,2.9,10.4-1.6,8.1-9.1c24.2,8.5,12-14.7,9.5-22c10.4,18.4,21.5-4.7,22.7-14
		c-0.3,2.6,3.1,4.8-2.2,8.2c9.4-7.8,6-16,9.7-22.3c1.5-2.6,10.7-9.3,12.5-12c0.4,0.1,3.1-0.6,3.5-0.9c0.4,0.5-1.8,1-1.9,1.1
		c14.9,1.6,19.7-25.3,15.9-37.1c0.2,0,0.4-0.2,0.4-0.4c1,0.8,1,0.9,1.9,0.1c1.1-0.3-0.4,2-0.4,1.9c11.7-14.6,18.4-23.1-0.7-33.2
		c-7.9-4.2-16.7-4.8-19.8,0.1c0.4-9.8-14.6-13.8-17.3,0c-1-1.5-0.2-3.9,0.5-5.3c-0.5,0.7-3.4-0.2-3.9-0.1c4.4-1.9,4.2-3,7.6-5.3
		c-5.8-1.3-7.7,0.4-11.1,4c1.5-3.5,0.5-2.5-1.3-0.1C393.4,433.3,395.3,426.9,389.4,420.4z M947.7,458.7 M922,457.6
		C922.4,458,922.3,457.9,922,457.6L922,457.6z M922.5,458.1c6.9-5.3,26.5-0.5,30.2,7.5C942.3,463.3,928.7,462,922.5,458.1z
		 M931.3,419.7 M925.7,423.9 M925.6,422.5 M925.7,422.8 M923.6,423.4C924.2,423.9,924.6,424.1,923.6,423.4L923.6,423.4z
		 M917.7,430.9 M919.4,430.3C921.2,431.8,920.4,431.2,919.4,430.3L919.4,430.3z M934.5,440.5 M930.1,443.7c1.1,1.5-1.5,0.7,0.8,2.5
		C934.4,445,931.3,445.4,930.1,443.7L930.1,443.7z M927.9,444.9 M923,440.6c0.7,0.8,2,3.7,3.9,5.2
		C926.3,441.1,923.8,441.5,923,440.6L923,440.6z M919.7,436.4C920.2,437.1,920.5,437.6,919.7,436.4L919.7,436.4z M920.2,434.9
		C920.7,435.5,922.2,437.5,920.2,434.9L920.2,434.9z M913.4,430.4C914.4,431.7,915.6,433.5,913.4,430.4L913.4,430.4z M911.5,429.3
		 M909.1,427.6C910.6,428.2,910.8,428.3,909.1,427.6L909.1,427.6z M911.5,453.2C913.4,453.8,912,453.4,911.5,453.2L911.5,453.2z
		 M905.2,444.6 M904.2,443.9 M902.9,441.8 M899.2,438.7 M898.8,436.1C899.2,437.4,899.1,437.3,898.8,436.1L898.8,436.1z
		 M899.2,434.3 M894.4,429.7 M894.3,427.1C895.9,427.2,894.8,427.2,894.3,427.1L894.3,427.1z M889.7,424.1 M887.7,414.5
		c10.6,1.1,23.1,14,25.6,19.5c3.5-0.8,5-0.5,1.8,2.2c3.7,2.7,11.9,7.7,8.5,18.6c-0.7,0.2-4.3,0.7-4.1,0.6
		C906.8,443.7,896.7,428.1,887.7,414.5z M540.8,189.4l0.5,1.3C541.5,190.1,541.3,189.6,540.8,189.4L540.8,189.4z M541.2,187.8
		 M539.6,185.9 M541.6,185.2l0.4,0.5C542,185.3,541.9,185.1,541.6,185.2L541.6,185.2z M540.5,185.2 M540.3,185.3 M556.6,198.1
		 M557.9,194c-0.3-0.3-0.2-0.6,0.3-0.8C558,193.5,557.9,193.8,557.9,194z M556.4,195.6 M557.2,195.1 M556.9,197.1
		C556.6,195.2,556.6,195.4,556.9,197.1L556.9,197.1z M501.7,176.2c8.1,4.1,23-4.4,18.8-9.8c0-2.7-1.7-2.7,0-5.2
		c-5.2-0.3-8.1,0.3-10.7,5.1c-0.8-1.4-0.1-3.1-1.3-4.4c-1.9,0.7-1.1,1.7-1.8,3.1c0,0-1.5-2.9-1.6-3c-0.8,4.5-1.4,2.9-2.8,6.1
		c-0.8-4.3,0.5-5.9-5.1-7.8c0.5,0.5,0.1,0.3,0.7,0.4c0-0.2,1.4,0.5,1.4,0.5c-2.4,1.1-0.5-0.5,0,2.2c-0.5-0.3-2.6-2-3.3-1.7
		c-1.1,1.3,1.8,0-0.6,0.2c0,0.8,0.4,2.7,0.9,2.3c-2.3,0.9-1.3,0.3-3.3,1.2c3,0.7,3.7,0.1,5.7-0.1c0.7,0.5,1.2,1,1.8,1.4
		c-0.8,0.3-1.7,0.8-2.4,1c0.3,0,2.2-0.4,2.4-0.3c-2.9,0.6-3.1,1.3-6.9,1.5c4.9,1.8,4.8,3.4,7.5,4.2c-1.9,0.6-2.8,0.4-4.1,0.6
		c0.1,0.3,0,0.4-0.3,0.3c0.1,0.4,0.8,1.8,0.1,2.2C498.4,175.8,500.3,175.9,501.7,176.2z M576.3,202.7 M574.7,198.9 M575.9,197.6
		 M575.3,197.2 M574.1,194.7 M573.9,195.2C574.3,195.4,574.6,195.5,573.9,195.2L573.9,195.2z M575.2,195.8 M574.2,196.7
		 M573.8,192.7 M573.5,188C573.8,188.2,574.8,189,573.5,188L573.5,188z M573.8,186.8 M575.7,185.4 M576.3,185
		C577,186.1,576.8,185.8,576.3,185L576.3,185z M582.3,180.8 M582.5,179.6 M583.2,178.2 M583.4,179.5
		C585.4,178.5,585.8,178.3,583.4,179.5L583.4,179.5z M592.2,169.8 M591.5,171.5c-1.2-0.8-0.3-1.1,1.1-1.3
		C592.3,170.7,591.9,171.1,591.5,171.5z M593.2,165.7 M594.4,164.4 M594,163.2 M598.2,157.1 M594.1,153.6 M595.3,151.9 M595.8,151.3
		 M597.7,149.8 M598.8,148.4 M599.7,148.6 M600.2,145.3 M600.9,145.7 M603.1,146.1c-0.2,0.4-1.5,3-1.3-0.8c-0.6,1.8-1.5,2.8-1.3,4.1
		C602.3,149.2,602.2,147.7,603.1,146.1z M603,145.3C602.7,145.3,605.6,145.2,603,145.3L603,145.3z M604.9,146.3 M607.2,142.7
		c-1.4,0.4-1,2.7-2.8,1.6C604.5,140.1,605.8,143.1,607.2,142.7z M607.2,140.7C609.9,140.5,610.4,140.4,607.2,140.7L607.2,140.7z
		 M610,136.9 M608.7,138.2C610.2,136.4,609.6,138.2,608.7,138.2L608.7,138.2z M611,139.4C611.8,137.9,611.2,139,611,139.4L611,139.4
		z M610.7,139.2 M612.5,137.6 M614.3,138.7 M619.5,136.1 M620.3,135.5 M618.9,134.2 M621,132.8C623.4,134,622.4,132.4,621,132.8
		L621,132.8z M622.8,131.2 M624.3,130.1 M625.2,130.5 M629.6,168.8 M620,178.5 M619.7,178.9 M643.2,194.7 M626.7,196.8 M625.8,196
		 M624.4,195.4 M623,194.2 M621.5,194.5 M617,195.5 M613.4,201.1 M593.8,208 M628,202.6 M626.8,204.2 M628,204.7 M625,208.6
		c0.6-1.2,0.1-2.7-0.1-3.5c1.3-0.1,1.9-0.1,3.7,0.6C627.6,206.3,625.5,207.6,625,208.6L625,208.6z M616.4,205.8 M616.6,209
		 M614.3,214.2c0.5-1.5,2.2-2.7,2.3-4.8c0.1,0-1.6-0.1-1.5,0C613.7,212,615,212.2,614.3,214.2z M609.2,216.3
		c0.8-1.9,0.4-3.2,1.5-3.6C610.5,214.3,608.2,218.7,609.2,216.3z M599.5,226.1 M604.4,221.4 M597.7,219.9 M596,223.2
		c-0.1-0.7-2-1.7-2.5-3.3c0.3-0.2,0.8-0.5,1-0.9c1.8-0.4-0.3,0,2.8-0.8C597.5,220.5,595.8,221.8,596,223.2z M596.4,223.4
		 M593.9,223.3c1.5,1.1,2.6-0.7,2.1,1.8C594,225.1,593.6,223.2,593.9,223.3z M591.4,219.9c0.4-0.4,0.5-0.9,0.3-1.5
		C592.2,219.2,592.2,219.8,591.4,219.9L591.4,219.9z M591.1,223.6C591.7,224,592.2,224.2,591.1,223.6L591.1,223.6z M592.6,222.4
		 M589.5,220.7 M592.2,212.2C593.3,211.7,593.4,211.7,592.2,212.2L592.2,212.2z M586.2,215.4C586.9,214.2,587.3,213.6,586.2,215.4
		L586.2,215.4z M586,215.7c2.8-2.2,4.2-1.9,5.6-6C587.8,211.6,586.1,215.6,586,215.7z M613.8,276.1
		C616.3,276.6,614.9,275.6,613.8,276.1L613.8,276.1z M613,275.4c0.6,0.5,1.2,0.5,1.7,0L613,275.4L613,275.4z M613,274.6
		 M608.2,270.3C609.6,271.7,608.7,270.8,608.2,270.3L608.2,270.3z M607.6,269.4 M607.8,271.4l0.9,1.2
		C608.6,272,608.3,271.6,607.8,271.4z M606.9,270.3C608.3,271.5,607.3,270.6,606.9,270.3L606.9,270.3z M605.7,268.4 M606.3,267.1
		 M595.4,278.7C595.6,278.8,596.1,278.8,595.4,278.7L595.4,278.7z M592.7,276.8 M572.4,289.3 M570.5,291.6 M566.3,293.9
		 M1140.9,592.1 M1141.8,589.2 M1142.9,589.5c-0.6-0.4-0.6-0.9,0-1.4C1143.1,588.6,1143.1,589,1142.9,589.5z M1131.9,616.2
		c4.8,0.8,9.7-4.6,10.1-9.3c1.5-0.4,4.9-1.3,4.7-1.3c1.2-1.4,2.8-5,4.7-8c-1.2,0-0.9-0.7-0.9-1.1c-7.3-1.8-4.4,1.4-7.7-6.4
		c-0.2,0.3-0.5,0.2-0.8-0.1c-0.1,0.2,0,3.3,0.3,3.6c-1.9-4.4-1.2-10.9-3.5-14.1c-0.9-0.6-0.6,1.1-1,1c-0.5-0.7-0.3-2.7-0.8-3.3
		c-0.3,0.3-0.8,0.4-1.3,0.2c0.2,3.2,1.9,5.1,2.3,5.9c0.1,1.1-0.8,3.8-0.2,6c0.9,0.1,0.2-1.2,0.5-1.4c0.5,1.3,0.3,0.7,0.8,0.4
		C1139.6,597,1135.5,607.2,1131.9,616.2z M1087,682 M1082.4,668.9 M1129.7,613.5 M1129.4,614.4
		C1130.2,613.9,1130,614.1,1129.4,614.4L1129.4,614.4z M1128.9,614.3C1129.3,614.1,1130.4,613.8,1128.9,614.3L1128.9,614.3z
		 M1101,645.9C1101.7,645.7,1101.2,645.8,1101,645.9L1101,645.9z M1097.7,647.2c-1.6,1.7,1.1-2.6,1.3-3c-0.1-0.1,1.1,1.6,1,1.5
		C1100.2,646.9,1098.9,646,1097.7,647.2L1097.7,647.2z M1097.2,641.5c0.3-3.4,2.7-6.8,6.1-8.7c2.4-2,2.9-4.5,6.4-3.3
		c5.4-5.2,11.8-12.2,17.4-18c0.6,1.3,0.1,2.2,0.8,3.9c3.1-1.6,1.8-1,2,0.1c-0.5,4-8.1,13-9.6,14.4c1.1,0-0.9-0.6-1.8-0.9
		c-1.8,2.3-5.7,7.8-8.5,11.9C1106.9,644.8,1101.6,645.5,1097.2,641.5L1097.2,641.5z M1039.4,590.8 M1042.9,593.2
		C1043.3,593.3,1043.9,593.4,1042.9,593.2L1042.9,593.2z M1034.7,602.2C1035.6,602.8,1035.7,602.8,1034.7,602.2L1034.7,602.2z
		 M1035,601C1035.7,601.8,1035.1,601.1,1035,601L1035,601z M1034.5,601.8 M1032.3,599.3C1034.3,595.5,1033.5,597,1032.3,599.3
		L1032.3,599.3z M1045.8,601 M1045.2,601.8 M1045.8,603.4 M1042.2,614.4C1042.5,613.6,1042.3,614,1042.2,614.4L1042.2,614.4z
		 M1038.2,618.4 M1033.8,618c-0.7-6.2-0.8-7.8,0-15.7c4.6,1.2,6.8,1.6,11.9,2.3c-0.6,2.5-1,5.3-2,7.6c1.1-1.7-2.1,3.5-2.7,4.5
		c-0.3-0.2-0.6-0.1-0.9,0.2c1.1-1.6,0.1-1.2-1-1.8C1037.8,618,1036.1,619.2,1033.8,618z M942.8,564.6c5.6-7.8,4.4-22.9-0.8-33.3
		c0.4-0.1,0.6-0.3,0.7-0.7c1.5,1.7-0.3,1.4,1.9,2.1c-0.2-2.2-2.1-1.9-1.3-4.5c1,2.7,0.5,2.3,1.6,3.9c-0.7-5.5-0.6-13.3,2.7-19
		c-0.4,0-0.4,2.5,0.1,2.8c10-11.6,26.1-7.1,32.1-22.5c0.5,1.6,0.9,3.5,2,5.1c0.8-3.6,0.6-2.5-0.3-5.3c0,0,3.5,1,3.4,1.1
		c0.1-0.4,0.4-0.6,0.9-0.7c-0.1-3.4,0.5-4.6,4-7.9c-0.3,0.4-0.5,1.4,0.3,1.4c0.8-1,0.6-2.2,1-2.9c4.2-0.6,4.8,1.3,5.1,6
		c2.3-2.7,4.6-3.2,7.6-0.4c-1-2.2-0.8-2.9-0.2-3.2c0-3.2,2-6.2,4.6-7.1c1.3-1,1.8-2.5,5.2-1.2c0-0.7,0.3-1,1-0.8
		c-1.1-1.7-1.2-1.2-2.3-2.3c0.4-0.2,0.3-0.5-0.5-0.7c4.5,1.3,8.7,2.2,13.4,2.6c0.8,0-0.4,2.2,2.6-0.4c0.1,1.4,0.6,1.5,1.7,1.2
		c-2.2,2.4-3.7,5.6-3.8,5.7c-1.6,5.6,8.6,18.4,15.7,14.6c5.1-2.8,4.8-20.7,7.2-25c2,9.5,8.5,26.1,13.3,34.5c4.7,1.7,7.2,5.9,8,11.4
		c1.1-1,0.7-2,2.6-0.8c3.3,15.4,8.7,31.8-3.1,45.7c-7.6,7.7-9.9,26.8-22.7,25.6c0.6,0,0.7,0.1,0.4,0.4c-0.6,0.9-4.5,4.1-5,5.1
		c-0.8-2.4-1.3-2.6-1.4-4.7c-2.7-0.9-1.6,1.2-2.2-2.5c-6.5,9.8-19.3-3.5-15-13.9c0.2,0.2-4.8,0.7-4.6,0.6c0.4-2.4,1.6-3.4,1.6-6.5
		c-2.5,2.7-3,2.9-5.5,4.9c2.9-4,3.8-7.6,5.7-12.8c-1.9,3.7-6,7.4-8.1,10.9c-0.3-0.5-0.7-0.6-1.2-0.3c0-0.3-1.1-1.6-1.3-1.7
		C1016.8,539.7,952.7,573.5,942.8,564.6z M563.5,239.9C564.3,239.9,564.3,239.9,563.5,239.9L563.5,239.9z M556.5,243.8
		C558.4,243.8,558.2,243.8,556.5,243.8L556.5,243.8z M545.5,219 M542.3,218.4 M540.4,216.3 M541.2,215.6l0.6-0.7
		C541.8,215.3,541.6,215.6,541.2,215.6L541.2,215.6z M542.6,214.3 M541.9,213.4C542.8,214.1,542.3,213.7,541.9,213.4L541.9,213.4z
		 M550.8,203.3C551.3,203.5,551.1,203.4,550.8,203.3L550.8,203.3z M550.1,203.5c1.1,0.7,1.9,1.2,0.4,0.5
		C550.1,204.7,550.1,204.1,550.1,203.5z M550.1,204.7C551.1,205.5,550.3,204.9,550.1,204.7L550.1,204.7z M540.3,208.8 M540.3,209.7
		C541.3,209.4,541.6,209.3,540.3,209.7L540.3,209.7z M540.1,210.8 M539.8,211.6 M539.2,213.2 M539.8,213 M543.1,213.4
		c-0.8-1.8-1.9-1.2-1.6-2.7c0.7,0.8,0.9,0.7,0.6-0.3C543.9,211.6,542.9,212.9,543.1,213.4L543.1,213.4z M542.1,217.1 M543,219.4
		c-0.5-0.8-0.2-1.3,0.9-1.7C543.8,218.4,543.5,219,543,219.4z M542.2,220.3 M544.7,220.2 M546.9,231.4 M546.3,227.8
		C548,225.9,547.9,226,546.3,227.8L546.3,227.8z M532.4,239.3c9.7-0.9,9.9-10.5,12.1-13c-0.3-3-1.9-4.7-5.4-3.4
		c1.4-0.6,1.4-1.1,0.1-1.7c-0.1,0.5-0.3,0.9-0.8,2c1.1-0.8-2.1-0.5-3.2,1c-0.7,0.7,1.9,0.6,1.8,0.5c-2.3,0.5-3.5,0.7-5.9,1.1
		c0.2,1.3,1.3,1.3-0.5,1.5c0.7,2.6,0.1,0.3,0.1,2.7c0.3,0.8,2.5,0.6,3.5,1.1c-3.9,2.8-2.6,1.9,0.4,2.7c-2.1,0.1-3.6,0.7-3.2,1.9
		c-0.9,0.2-4.5-0.1-0.1,0.4c-2.8,1.8-1.5,1,0.4,1.4c-1.7,1.7-0.1,1.7-0.7,1.5C531.3,239,531.4,239,532.4,239.3z M545,247.2
		c-0.2-2.2,3.6-5.7,8.7-8.4c-2.7,1.4-4.7,1.4-5.2,0.3c-2.3-1-2.9,0.8-3.8-1.1c0.9-1.4,3.3-4.3,3.7-4.9c0.3,0-2,0.7-2,0.6
		c1.9-2.7,3.5-1.4,5.4-2.1c-0.2-1.4-0.4-5.4-0.3-8.4c-3.2,0.3-4.7,0.6-5.4,1.6c-0.3-1.8,0.2-4.7,0.9-6.1c-0.8,0.1-2.4,0.5-1.4-1.5
		c-0.7,1.5-1.5,3.3-2.1,4.4c0.3-2.3,1.2-4.7,1.9-7c-1.8,0.7-1.7,1.7-2.9,0.3c1.7-1.4,1.3-1.3,2.3-2.3c-0.3-0.1-0.3-0.3-0.1-0.4
		c-0.8,0.2-0.9,0.1-0.1-0.3c-1.2-0.2-1.2-0.5,0-0.8c-0.3-1.3-1.3-1.9,1.1-1.4c-0.9-2.6,0.2-2.5,0.9-2.9c1-0.3,2.8-0.7,4.4-0.9
		c-0.1,0.3-0.3,0.7,0,0.9c-0.8,0.7-2.8,4.1-1.9,3c-1.3-0.4,2.9,1.3,5.5,1.3c-1.4,1.6-2.6,4-4,5.5c0,0,2.1-0.2,1.9,0.6
		c-1.2,0.5-2.3,0.5-3.2,0.9c6.4,2.4,11.5,8.5,9.2,11.1c2,1,3.9,0.8,2.3,3.8c0.5,0,0.9,0.3,1.1,0.7c5.7,1.2,3.9,3.4,0.6,6
		c1.2,0.8,2.1-0.1,3.2,1.5C558.2,243,550.1,244.1,545,247.2z M589.5,282.8c-0.6-3.2-3.2-4.1,0.9-7.1
		C591.2,278.7,589.5,280.8,589.5,282.8L589.5,282.8z M588.4,293.5c4.2-4.3,4.8-8-1.8-8.8C587.4,288.4,587.7,289.7,588.4,293.5z
		 M607.5,305.3C608.4,306,608.9,306.5,607.5,305.3L607.5,305.3z M610,302.4c0.3-2.3,0.3-4.6,0.4-6.6c-2.1,0.1-7.1,0.6-9.3,1.3
		C603.2,299.5,606.7,301.3,610,302.4z M595.9,313.6 M571.5,239.1C572.3,239.1,572.5,239.1,571.5,239.1L571.5,239.1z M571.8,238.4
		 M543.4,305.8c-10.9,17.3-34.7,34-38.7,55.5c7,4.3-4.9,21.1,2.7,25.7c-2.9,1.3-2.3,2.5-2.2,2.6c2.4,1.5,1.7,3.3,6,3.1
		c-1.3,2.2-0.3-0.3-1.5,2.1c14.9,6.1,12.2,22.5,39.5,20.4c18.8-1.4,49-4.6,45.2,17.5c-6.8,5.3,13.9,26.6,13,38.3
		c-1,13.3-6.7,16-3.4,31.2c2,9.3,5,19.4,7.8,27.7c3.5,10.5,8.2,16.8,8.5,25.9c14.5,4.9,46.1-6.5,50.3-31.1c-0.1,0.4-1.2,0.6-1.2,0.9
		c0.4-0.3-0.3-1.1-0.4-1.4c6.9-2.6,11.9-6.9,10.9-14c-7.6-7.9,19.4-20.3,19.2-34.8c-0.1-8.7-7-16.2-4.2-25.1
		c3.5-11.1,17.6-17.3,26-26.9c8.3-9.5,15.8-22.2,15.6-30.5c-8.7,1.4-22.2,8-29.9,0.6c3.3-5.2-4.6-9.7-9.8-14
		c-0.1-0.2-0.5,1.7-0.1,1.7c-2.8-7.7-9.1-14.7-9.7-20.9c-2.3-3.5-5.1-10-5.3-10.3c-4.9-6.2-9-14.9-12.6-21.9c1.8,2.8,4.1,5,6.5,7.8
		c0.1-2,1.4-4.7,2.1-6.9c-0.2,9.1,10,18.2,15.2,26.2c4.1,6.4,12.1,30.8,16.5,33.3c11.5,6.7,44.7-18,48-26c1.6-3.8,4.5-3.6,2.6-10.6
		c-1.2-4.6-9.9-4.3-9.7-12.2c-0.2,0.1-0.3,0.1-0.5,0c-3.8,10.2-17.6,13.3-17.2,1.1c0,0.3-0.1,0.4-0.4,0.3c-0.3,1.7-0.3,2.8-0.6,4.6
		c-1.7-3.3-4.6-8.1-5.3-9.9c-2.8-2.4-4.2-4.8-6.2-7c2.1-2,3-3.2,4.6-3.9c5.3,5.1,12.4,15,22.9,12.5c7.9,4.8,16.4,5.2,26,6.4
		c9.3,1.2,12.5,3.7,20,5.1c0.3,0.2-0.3,5,5.1,2.7c0.3,0.2,0.6,0.2,0.9,0.2c-3.6,1.3-2.5,2.3-5.5,2.2c5.6,8.1,11.7,5,13.8-0.3
		c-1.9,1.4-2.1,2.6,0.5,3c-1.8,8.3,11.8,54.8,24.3,45.3c1-3.9-0.5-17.3,2-22.8c1.9-4.1,13.6-11.1,15.4-15.5c4.1-2.8,6.5-5,8.4-9.8
		c3.8,4,4.2,2.3,6.6-1.1c1.2,2.8,0.4,0.7,1,2.8c1.7-2.5,0.8-2.9,0.6-5.6c2.8,1.9,5.3,4.8,5.8,6.4c0.5,2.9,0.9,3.4,3.3,5.4
		c-0.1-1.2,0.8-0.3,1.1-0.2c1,2.3,4.4,3.8,0.6,2.8c2,0.5,1,4.5,2.2,0.6c1.2,3.6,5.7,13.4,4,10c-1.4,2.8-0.6,3.1,1.3,2
		c3.7-0.6,5.5-2.2,5.3-5.5c0.9,1.8,2.1,3.2,3.5,3c1.3,10,5.8,14.1,4.5,24.4c-0.1-0.6,0.1-1.2,0.4-1.7c-2.6,6.6,9.4,30.2,19.4,31.8
		c0.3-0.2,0.3-0.4,0.1-0.7c-0.5-4.6-5.2-17.5-13.6-20.5c1.7-1.4,0.2-2.1-0.1-4.3c-4.9-2-3.7-10.1-1.9-17.3c4.6,1.5,10,6.4,13.3,8.2
		c0.4,3.1,2.5,3,6,3.4c-1.9,1.8-2.3,3.6-0.9,4.8c0.3,0,3.2-2.1,4.2-4.2c1.6,0.4,1.3-0.1,0.3-1c0.8,0.1,1-0.1,0.4-0.6
		c0.5,0.3,0.8,0.1,0.8-0.4c19.8-2.7,0.1-17.4-3.3-26.7c-2.8-7.6-0.5-16.9,10.4-13.5c-0.2,1.8-0.1,2.1,0.3,4.4
		c0.1-0.7,1.4-0.6,1.6-0.3c-0.1-1.4-0.1-2.4-0.2-4.1c0.2,0,0.3-0.1,0.4-0.3c4.6,0.9,6.2-2.9,9-5.8c5.1,3.5,14.4-2.5,13.6-6.3
		c1.3-0.6,2.5,0,3.2-0.3c0.6-1.8-0.1-1-0.4-2.7c2.4-0.8,0,0.1,2.6,0.1c-1.3-3.3-0.1-2.6,0.9-4.7c-0.3-0.7-1.5-0.5-1.9-1.4
		c0.5-0.2,0.5-0.4,0.1-0.7c3.9-0.3,2.4-2,2.9-5.2c2.4-2,4.3-2.2,1.7-4.8c0.5-0.3,2.6-0.9,2.5-0.8c-0.1-0.5-0.6-1.4-0.7-1.7
		c-0.1,0.8-1.5,1.4-2.3,1.4c0.7-1,1.2-0.8,2.4-2.2c-2.7-2.1-4.5-0.9-7-0.8c1.9-1,3.3-2.4,5.7-3.5c-3.9-5.4-7.2-5.2-12-4
		c3.7-0.3,6.6-2.1,11.6-0.2c-7.1-9.9-18.1-22.1-2.4-23c-0.5-1-0.6-1.9,0.4-2.8c-6.2,0-19.5,3.9-19-5.5c0.4-8,12.9-12.6,14-3.7
		c-1.2,1.6-0.6,2.1-2.8,3c0.5,0.1,0.7,0.4,0.6,0.9c4.3-5.2,9.5-7.1,13.9-5.5c-1.9,3.3,1.1,4.3,1.2,4.5c-1.8,2.5-2.8,3.5-1,5.2
		c1.9-2.1,1.9-0.5,4.4-1.2c0.4,0.8,2,3,2.7,4.4c1-1.2-3.5,0.9-2.8,0.7c1,3.5,2.5,6.5,4,10.8c15.8-4.2,1.1-11.2-1.4-22.4
		c-1.1-4.9,4.3-17.1,8.1-22.4c14.5,7.8,29.3-61.2-0.1-63.2c0.3,2.1,0.4,2.8,0.3,4.7c0.3,0.1-0.4-2.7-0.3-2.6c-1,1.6-1.8,1.6-2.7,2.9
		c0-0.6,1.4-1.8,1.2-2.6c-1.4-0.2-2.4,1.7-3.2,1.5c-1.4-0.8-1.2-4.1-1.8-5.5c-9.8,1.5-1.2-11.5,1.4-18.3c2.8-7.5,1.9-19.6,12.9-15.1
		c2.2-1.2,4.2-2.5,8.5-3.3c-0.8-4,4.2-4.1,10.6-2.7c-0.8,1.2-2.2,1.6-3,2.7c0.6-0.1,1.9,0.8,1.7,1.4c3.9-1.9,5.6-3.1,9.3-5.4
		c-0.3-0.1-0.8-0.9-0.5-1.2c-1.6-0.4-2.2,0.3-3.7-0.1c1.2-10.5,0.5-19.5,10.2-21.1c1.1,6.7,2.3,5.7,4.7,9.1c2-4.2,3.5-7.4,4.4-9
		c-4.9-6.2-4.3-8.3,2.9-8.6c-2.5,4.1-1.3,9.7,2.2,13.5c-8,7.8-0.9,22-9.2,27.2c2.1,10.2,5,26.2,16.2,34.2c-0.1,3.2,2.1,6.4,3.3,9.9
		c2.8-6.3,3.3-10.8,0.5-14.1c1.2-0.7,3.1-1.1,4.8-1.6c-2.8-6.9-3.8-8.1,1.9-12.2c-4.1-5.5-5.7-8.8-3.8-13.5c1.3,1.8,0.7,2.2,2.2,4
		c-3.1-6-4.2-8.4-8.2-12.5c0.3,0.1,1.3,1.7,0.5,2.3c-3.9-8-7.1-16.2-1.5-17.7c1.2-1.2-0.6-3.5,1.5-5c1.3,1.4,1.3,2.9,2.4,4.5
		c1.3-8.4,7-8.6,12.9-4.3c-1.2-9.8,1.2-28.6,14.2-24.9c-1.8-6.2-4.5-7.8-8.3-8.9c-0.9-0.9-1.2-1.9,0.4-1.9c-1.1-1.2-2-4.3-2.4-1.6
		c-2.9-4.1-6.5-5.9-9.7-2.3c-0.7-1.6-1.4-2.6-2.5-4c1.6,0,1.5,0.5,3.6-0.3c-1.9-1.3-2.2-0.7-4.3-1.1c8.5,4,14,0,8.6-10.7
		c0.3,0.2,0.9,0.6,1.1,0.8c-3.4-2.4-4.4-4.7-5.8-6c0.6-0.3,0.6-0.7,0.1-1.2c0.2,0.1,1.6,1.6,2,1.5c-0.2-0.2-0.4-2-0.1-2.4
		c1.5,2.7,3.1,3.9,4.4,5.7c3.2-1.8,0.4-3.1,1.8-5.3c3.1,1.8,6.7,3.1,8.9,1.5c3.3,0.5,5.1,1.4,7,0.5c-2.3-2.1-0.7-1.4-0.2-3
		c-1.9-0.5-2.7-0.1-3.6-0.4c-1.9-5.2,0.2-4.5-4.9-7.3c4.9-1.4,2.1-3.4,2.3-3.8c1-1.7,2.1-2.2,0.7-6.7c-4.6-1.6-9.2-2-10.8,2
		c-0.7,0.1-1.6-1.3-1.1-1.8c0,0.2-2.3,2.4-2.5,2.9c2.8,1.6,3.9,3.4,6.3,5.6c-3-0.9-8-6-13.1-8.7c0.1,0.1,1.6,2.2,2,1.3
		c-1.5-0.1-2.8-1.8-4-1.5c-2.7-0.2-10.7-0.8-16.7-1c-0.3-0.6,1.9,0.5,1.9,0.5c-11.5-5.7-18.6-0.5-30.6,0c11.1,10.3,6.4,17.5-4.8,5.6
		c-0.8,1.1-0.6,2.9-1.4,4.3c-6.8-1.5-12.9,0.2-11,8.4c-2.2-1.9-3.4-3.4-1.8,0.1c-1.6-1.1-2.3-2.8-3.5-4.5c-0.8,0.7-2.4,1.5-5.4,1.8
		c-1.3-17.6-18.4-6.5-27.5-3.1c1.1-4.3-0.5-4.9-3.7-2.5c-1.4-0.4-1.6,0.7-2.3-2.3c-1.8,0.4,0,1.3-1.1,2c-2.7-3.1-0.4-1.4-4.3-2
		c0.2-0.5,0.9-2,0.4-2.7c1.2,2.7,1.6,0.2,1.9-0.2c-8-4.2-11,0.3-11.9,7c0,0-0.8-1.9-1.1-1.3c1.6-2.3,0.4-1.2,0.1-4.2
		c0.5,0.3,0.9,0.2,1.2-0.4c-0.7,0.6,1.6,1.7,1.1,2.5c0.6,0.1-0.2-3.4-0.2-3.4c-2.1,0.9-4.6,2.4-5.8,3.1c0-0.2,0.8-2.8,0.5-3
		c1.9,0.7,3-0.1,5-0.7c-6.4,0.3-12.9,0.6-19,1c0.5,1,2.9,1.3,3.9,1.9c-1,1.2-3.6,1.7-3.7,3.5c0.9,0.2,3.4-0.4,4-0.2
		c0.3,0.9-1.8,2.4-1.5,3.4c1.1,1.2,2.9,1.9,4.1,4c-1.8-0.1-1.5-0.4-4.1-0.6c0.1,0.8-0.1,1-1.1,0.9c2.7,2.8,1.5,2.7,2.3,4.2
		c-5-2.1-8.6-4.5-9.7,0.9c-3.3-1.5-5.7-1.1-9-3.3c1.7,3.4,1.5,8.4,3,11.5c-3.8-1.2-8.3-5.4-8.8-6.7c-3,0-2.3,0.5-7.2-2.2
		c3.3-1,2.3,0.3,4.7-1.1c-1.7-1-2.6-1.1-4.7-2c0.5-4.8-5.6-9.1-10.1-5.5c-0.3-0.2-0.6-0.2-1,0.1c-2.4-1.8-3.9-0.9-7.2-1
		c1,1.6,1.4,5.2,2.2,6.8c-4.9,2-11.2,2.2-14-2.2c-7.8-0.2-10.4,2.6-11.3,4.7c-0.2-0.1-1.3,1.4-1.3,1.6c-1.1-1.7-3.2-3.7-4.1-5.3
		c-3.6,2.4,2.4,2.1-3.7,0.3c-0.5,0.6-4.1,3.3-4.5,3.5c1.1,0.3,3-0.9,3.6-0.7c-2.5,3.4-5.1,8.9-6.1,10.9c-1.1,0.5-2.7,1.5-3.3,2.7
		c0.9-7.1,3.8-13.2,2.4-17.3c6.1-5.4,6.2-13.7-0.4-15.9c1.5-0.4,3.2,0.3,4,1.1c-1.7-2.4-3.8-3.9-5.5-5.6c0,0,2,2.2,0.3,2.3
		c-4.3-6.2-9.7-6.8-15.4-3c0,4.4-0.6,1.3-2.7,5c0.8-7.7,0.9-5.7-4.8-5.6c0-0.1,0.5-1.6,0.4-1.7c0.5,0.5-3.6,1.9-3.7,2
		c6.1-16-17.7,5.8,0.9,9.1c-3-0.1-6.1,1.3-8.8,1.4c4,2,2.2,3.7,3.6,5.5c-2.7-3.6-5.2-2.3-7.1-0.9c0.3,0.1-0.7,2.6-0.9,2.9
		c-4.8-2.4-4.3-3.7-7.2,1c-0.1-0.1,2.4-1.3,2.7-1c-6.2,3.1-9.6,6.5-13.4,11.4c0.3-0.3,2.2-0.7,2.4-0.1c-1,0.7-1.7,2.2-1.4,4
		c-0.9-0.2-1.9-1.5-2.7-1.7c0.4,0.5,0.9,1,0.1,1.5c1.2,0.9,3.7,1.5,5,2c-0.2,0.9-2.5,0-2.6,0c0.1,0.4-0.1,0.6-0.4,0.8
		c6.5,1.9,4.5,3.9,6.3,8.6c-0.3-1.5-3.5-1.8-1.5-5.1c-4.7,1.4-10.3,4-14.9,6.1c3.6,10,19.7,12.4,17.7,24.3c3.9,1.7,8.3,5,11.2,5.9
		c-1.8-3-3.7-4.1-5.1-0.5c-4.5-4.2-7.3-3.1-7.9-9.7c-0.9,0.9-1.3,3-1.6,3.9c0.6-3.9-0.8-6.3-0.4-10.2c-6.6-1.7-12.4-3.3-17.5-0.9
		c1.3-0.4,2.4-0.1,3.5,1.3c-2,0.3-4.1-0.1-6.4,1.1c3.8,3.6,7.3,4.8,11.3,5.9c-9.2,1.9-13.8-3.7-16.6-11.9
		c-3.5,20.5,16.5,30.4,25.8,35.4c-10.1-4.1-7.3-7.4-13-1.9c-5.8,5.6,2.6,20.7-14,12.1c1.2,0.1,7.8,0.2,5.6-0.2
		c11.1-3.6-6.9-47.3-18.6-44.6c1.5,8.7-3.3,14.4,1.9,20.2c-1.4,5.1,2.3,8.3,8.8,10.1c-0.2,2-0.8,3.5-0.8,5.3
		c-6.3-4.6-34.8-14-20.6-1.7c-3.1,1.9-1.8,1.3-3.5,3.5c-0.6-1.1-1.9-3.2-2.6-4.4c-5.8,2.6-9.4,4.8-12.2,7.4
		c-0.6-1.8-2.2-2.3-2.9-4.7c0-0.4,2.1-0.7,2.5-1c-2.4,2.1-2.3,0.2-3.4,3c-0.4-0.2-1.3-1.2-0.9-1.4c-1.9,1.8-0.4,1.5-1.2,3.5
		c-2.3,0.1-4.6,1.1-8.6,3.2c0,0.6,1.7,1.4,1.3,1.9c-3.2,5-12.8,7.1-7.2-1.2c-3.6-3-4.8-4.2-10-4.6c4,5.4,5.6,10.5,5.7,17.2
		c-7.4-6.2-12.5,3.4-11.1,10.2c-3-1.6-6.1-2.8-8.8-4.4c1.4,1.6,2.3,5.5,4.7,7.6c-10.3,0.8-9.3-9.2-15.8-13c-0.4-0.4-1.1-2.1-3.2-5.3
		c8.3,4.5,37.5,1.8,18.6-8.6c-2.9-0.2-13.6-8.6-18.5-4.1c-1.1-2.1-0.9-0.9-3.6-3.3c0.6-0.2,1.7,1.2,2.8,0.1c-0.3,0-3.1-1.7-3.5-2
		c-0.7,1,0.3,1.5-1,3c-3.7-1.1-4-1-7.9-3.8c3.1-0.7,4.5-0.9,7.4-2c-3-2-4.9-2.5-7-3c-0.6,1-0.4,2.7-1,3.4c-0.2-0.8-1.6-0.7-2.2-0.1
		c0.8-3.4,0.1-1,1.6-4.4c-0.9,0.6-1.1-0.4-1-1c-1.8,2.8-1.7,0.9-3,5.3c-0.5,0-0.9-0.2-1.4,0.6c0.2-0.1,0.2-3.5,0.2-4.1
		c-0.7,1.9-2.2,4.8-3.5,6.4c0.2-2.3,0.9-3.7,1.5-5.8c-0.5,0.1-0.8-0.1-1.1-0.6c-2.1,1.8-4.1,2.3-4.6,7.2c-1.2-0.5-3.5-1.9-4.9-2.6
		c-0.3,0.4-0.7,0.6-1.1,0.6c1.2,2.2,1.9,1.3,2.4,3.9c-0.9,0.1-2.4-2.6-2.6-1.6c-0.7,2,0,1.1-0.1,2.8c-1.2-0.7-1.3,0.6-2.2,1.4
		c-0.2-0.9,0.7-2.5,0.4-4.1c-0.8,1.1-0.9,2.5-1.7,3.4c-0.1-0.1-0.2-2.1-0.3-2.4c-0.8,2.5-0.1,2,0,4.4c-0.2-0.2-1.6-2.5-1.6-2.5
		c-0.2,1.3,0.3,1.4-0.3,2.5c-1.6,0.4-3,0.9-5.9,4.6c0.8,0.4,2.9-0.8,3.4-0.3c-0.1,0.1-0.7,2-0.7,2c-1.5-0.3-1.2-0.6-2.7-0.6
		c0.8-0.4,0.3,1.9,0.2,2.1c-0.9-0.3-1.2-1.6-2.1-1.8c0,0-0.2,2.1,1.2,1.4c-1.1,0.7-1.7,0.4-2.6,1.1c0.6,0.3,0.6,0.6,0,1
		c1,0.5,0.8-1.6,2-0.4c-0.2,1.1-1,0.4,0,2.2c-2.5,0.4-0.7-1.1-2.9,0.7c0.8-0.9,2.4,0.8,2.7,1.3c-6.4,1.1-5.7,2.4-4,5.2
		c-2.3,2.5-3.9,3.9-2.2,6c-5,3.8-4.5,4.1-8.5,9.1c1,0.9,1.1-0.9,1.1,1.6c2-2,2-2.4,4.1-3.4c-0.3,2.5-1.7,3.9-4.8,5.2
		c-1.6-0.8-1.5-2.7-4.3,0.5c0.7,1.2,1.5,0.1,1.8,1.5c-0.4-0.1-2.5-1.6-2.4-1.6c0.1,1.4,1,1.5,1.9,2.2c-1.6-0.4-2.9-1.1-4.3-1.8
		c0,0.1-0.3,1.2-0.5,1.2c1.3,1.6,1.8-0.3,2.8,0.5c-2.5,1.3-2.7,0.1-5.1,0.6c0.6,1.1,2.2,0.9,2.8,2.3c-2.6-0.2-3-0.2-5.7-0.1
		c0.1,0.1,1,1.2,0.4,1.3c1.3,0.3,3.2,0.1,4.5,0.4c-1.7,0.5-3.3,0-5.1,0.7c0.1,0.7,2.4,1.8,2.4,1.1c-0.5,0.8-1.5,0.3-2.2,0.5
		c0.8,0.7,0.8,0.2,0,0.8c3.9,1.1,5.6-0.1,7.3-0.8c0,0-1,2.6-2.2,3c0.1,0-3.1-0.3-5.3-0.9c0.3,0.3,0.4,0.7,0.1,1
		c0.1,0.7,1.2-0.2,1.5-0.2c-1,3-1.2,0.2,1.1,1.3c-0.4,0.9-1.3,2.2-0.5,3.2c0.9-1.4,2-2,3.7-2.3c-1,0.4-1.3,1.1-0.8,2
		c-1.7,0-2,0.9-3,2.9c-0.5-0.3-1.5,2.1,1,0.5c-0.3,1.8,1,2.2,2.1,2.9c-0.6,0.6-1.3-0.2-0.7,1.1c0.2-0.5-2.2-1.1-2.5-1
		c0.1,0.4,0,0.7-0.4,0.9c4.5,5.2,6.6,4.3,9.6,1.1c2-1.2,3.6-1.3,1.6-4.8c0.4,0,2,2.6,2.1,3c0.4-1.2,1.3-3.1,2.3-5.6
		c1.2,3.1,2.8,6.8,3.4,9c0.1,0.7-0.5-2-0.1-1c4.5,20.4,19.2,10.9,14.2,0c1.2-0.7,2.2-2.8,5-3.9c-1.9-0.4-4.2-1.4-6.6-1.7
		c11.8-0.2,0.2-9.4,3.7-18.3c2.9-7.3,9.5-9.4,9.2-17.3c5-1.7,9.6-0.1,11.1,5c-4.8,1.2-4.4,4.2-6,7c-9.3,2.6-2.4,17.9,2.6,21.1
		c7.4-4.9,8.8-3.4,16.5-5.4c0.8,0.8-1.2,0.8-1,0.8c1.1,1.1,3.1,1.5,4.1,2.7c-5.7,3-23.2,3.1-15,9.5c-0.2,2-1.3,5.9-1.3,7.3
		c-0.8-0.7-2.8-3.7-3.4-4.1c-4.2,4.3-5.4,7.7-4,14c-1.5-0.1-1.1-2.1-0.2-2.6c-0.6,1.3-5.1,4.4-1.9,3.6c-0.8,0.6-2.9,1.3-3.5,1.7
		c0.8-0.3,1.4-0.8,1.9-1.5c-1.5-0.6-1.9,1.8-4.1,0.1c-0.3-0.1,1.1-1.1,1.4-0.2c-8.1,0.9-16.3,6.7-18.5,1.6c-2.4,1.4-3.8,2.2-6.5,1.9
		c0.8,0.4,1.3-1.1,1.5-1.5c-6.6-1.1-5.5-6-0.6-9.5c-2.4-1.6-2.8-1.9-5.5-2.5c0.2-0.1,0.9,1.9,0.9,1.9c-1.8-0.4-1.7-1.6-4,0.1
		c1,5.2,0.5,9.7,6.2,14c-2.8-1.9-4.9-2.3-4.3,1.5c-1.4-1.9-1.4-2.4-4.8-1.9c-0.8,0,1.1,2,1.1,2c-7.8-1.3-8.2,1.9-8.7,6.8
		c-1.3,0.3-3.7,0.8-0.9,1.9c-7.7,2.6-10,10.8-17.5,7c-0.2,1.2,1.1,3.2,1.5,4.6c-4.5-0.5-6.3,0.8-10.4,0.9c1.1,2.2,0.5-0.6,0.5,1.9
		c3.3,1.1,6.1,2.6,8.9,3.7c-0.6,1.6,1.1,5.4,3.9,9.1c-4.3,9.8-18.7,0.8-27.8,8.1c2.7,3.6,1.8,10.7-1.1,17.9c0.1,0.7,1.7-1.1,1.7-0.9
		c-0.5,1.4-0.7,3.7-0.3,7.5c22,6.2,22.9-3.5,34.6-16.3c11.2-12.3,24-16.9,37.4-0.4c4.2,5.2,9.5,5.8,7.7,14c1.4-5.9,2.2-12.3,7.6-8.4
		c-0.1-0.1-0.1-1.5,0.4-1.3c-3.7-3.5-29.9-19.2-16.2-22.8c0.2,1.4-1,2.2,0.6,3.9c0.3-0.5,1.1-3.3,2.3-2.7c0.7,2.1,2,3.2,3.4,4.8
		c0.2,0.4,4.9,4.6,5.3,4.8c10.3,5.6,7.6,19.2,20.1,20.6c-1.5,0.2-4.6,0.5-6,0.3c2.2,5.1,3.7,5.7,6.9,6c0.2-2.6-3-5,0.8-3.1
		c0-0.9-1.4-1.3-1.8-2.1c0.8-1.3,2.6,0.3,3.3,0.4c-1.5-2.2-2.5-3-4.8-4.9c0-1,1.9,0.3,0.4-1.1c0.3-0.2,0.4-0.5,0.3-0.9
		c0.4,0.1,0.7,0.3,0.9,0.5c-0.1-0.2,0.4,1,0.3,0.6c-1.5-3.8-2.1-3.3-1.2-6.7c0.6,1,0.3,1.9,2.4,2.9c-0.8-1.8-0.8-1.1,1-0.2
		c-0.4-1.1-1.4-1.8,1-0.9c-0.3-1-1.3-0.6-1.9-1.7c3.3-2.3,5.5-1.4,9.8-0.3c-2.6-0.5,3.6-0.8,7.1-1.9c-10.3-8.8,1.5-22.5,9.2-24.2
		c-0.9,2.2-3.9,2.2,3.3,2.5c0,0.5,0.1,1,0.5,1.3c-0.4,0.7-3.6,0.5-3.2,2.1c3.8,3.6,6.5,3,12.7,0.2c-0.7-0.3,0-1.1,0.3-1.3
		c-4.8,0-2.6-1-6.9-2.4c-0.2,0.7,2.6,3.4,2.7,3.4c-3-1.6-2.3-1.5-5.6-3.3c1.2-0.4,4.3-1,4.8-1.6c0.6-0.7-1.5,1.4-0.8,1.3
		c0.3-0.3,1.5-3,0.7-2.6c3.2-1,8.6-1.7,12.3-2.4c-2.2,3.4-2.2,1.2-4.4,2.8c-0.7,1.6,2.6,1.3,2.2,2c-1.9,1.1-3.3,2.3-4.1,3
		c0.6,0.8-0.3,0.9-0.7,1.4c35.8,19.8-4.3,15.1-22.7,17.5c0,0,2.1,2.8,2.2,1.7c-3.6,0.4-2.3,0.8-2,1.8c-7-0.4-9.2-0.1-6.3,3.6
		c-0.7,1.1-2.3,5.1-1.8,3.7c2.2,4.1,2.4,5.2,5.9,6.7c-0.3,1.1-2.6,0.8-2.5,1.3c6.6,1.8,21.1,3.5,29.4-1.1
		c-0.3,8.6-2.8,22.4-11.5,22.8c-2.3-1.8-4.8-2.9-4.3-2.4c-8.5,3-13.4-1.2-21.3-1.6c-4.1-0.2-6-3.8-9.6-3.3c-6.3,0.8-5.2,9.3-6.2,9.4
		c-18.9,1-32.3-11.4-29.8-24.8C586.8,300.7,552.7,311.7,543.4,305.8z M720.4,296.4c-0.1-2-0.5-4-0.6-6.1c1.1-0.6,0.4,0.8,0.7,1.4
		c2.1-3.5-0.2-3.9,3.4-6.6c-10.3-7-16.5-18.5-10.6-24.2c2.5-2.8,15.5-10.1,16.5,2.2c-7.1,0.9-3.2,1.5-4.8,3.6
		c-1.1,0.6-2.8-0.2-4,0.4c6.7,5.1,10.8,11.2,12.3,20.6c-0.3,0.2-0.2-2.3,1.2-1.2c1.4,2.7,0.2,1.5-0.5,3.7c1.4,1.1,3.9,4.5,4.2,9.9
		C731.4,300.9,725.5,299.7,720.4,296.4z M784.9,643.1 M776.7,622.8 M775,625.6c2.5-0.1,2.7-0.4,4.9-0.1c-0.8-2.2,0.1,0.4,0.3-2
		c-1.6-1-2.3-0.8-4-1.9C775.8,623,775.8,624.3,775,625.6z M834,406.3 M835.3,400.5 M836.1,399.8c0.6,0.3,1.1,0.8,1.5,1.5
		C836.4,400.9,835.6,400.5,836.1,399.8z M835.5,400.8 M750.6,450.6C751,449,750.9,449.6,750.6,450.6L750.6,450.6z M755.4,503.6
		 M748,506.3 M719.7,467 M718.8,466C719.8,465.8,720.5,465.7,718.8,466L718.8,466z M708.7,474.6 M709,476 M712.6,476.4 M714.3,478.6
		 M726.2,478.5 M726,479.5 M724.9,479.3 M729.6,493c-0.1-0.7,0.1-1.3,0.7-1.6C730.1,491.9,729.9,492.5,729.6,493z"/>
</g>
</svg>
