<svg id="Layer_1" data-name="Layer 1" xmlns="http://www.w3.org/2000/svg" xmlns:xlink="http://www.w3.org/1999/xlink" viewBox="0 0 15 13"><defs><clipPath id="clip-path"><rect x="-2188" y="-13891" width="2560" height="14093" fill="none"/></clipPath><clipPath id="clip-path-2"><rect width="15" height="13" fill="none"/></clipPath><clipPath id="clip-path-3"><path d="M14.73,1.58a6.27,6.27,0,0,1-1.69.5A2.85,2.85,0,0,0,14.33.39a7.14,7.14,0,0,1-1.85.76,3,3,0,0,0-2.17-1,3.11,3.11,0,0,0-3,3.14A1.74,1.74,0,0,0,7.42,4,8.44,8.44,0,0,1,1.23.73a3,3,0,0,0-.4,1.52A3.4,3.4,0,0,0,2.12,4.88,2.63,2.63,0,0,1,.75,4.46,3.05,3.05,0,0,0,3.16,7.51a2.21,2.21,0,0,1-.8.09,1.24,1.24,0,0,1-.57-.09,3,3,0,0,0,2.74,2.2,5.89,5.89,0,0,1-3.7,1.36H.11a8.4,8.4,0,0,0,4.58,1.44c5.46,0,8.43-4.75,8.43-8.9V3.19a5,5,0,0,0,1.61-1.61" fill="none" clip-rule="evenodd"/></clipPath></defs><title>Artboard 1</title><g clip-path="url(#clip-path)"><g opacity="0.5" style="isolation:isolate"><g clip-path="url(#clip-path-2)"><g clip-path="url(#clip-path-3)"><g clip-path="url(#clip-path-2)"><rect x="-4.89" y="-4.87" width="24.62" height="22.38"/></g></g></g></g></g></svg>