<svg width="95" height="13" xmlns="http://www.w3.org/2000/svg"><path d="M8.784 12H6.528l-2.48-7.216h-.032V12H.976V.592h4.496l2.304 6.816h.032L10.112.592h4.4V12H11.28V4.784h-.032L8.784 12zm16.144 0-.768-2.128H19.6L18.8 12h-3.28L20.032.576h3.792L28.352 12h-3.424zm-3.04-8.24-1.344 3.568h2.688L21.936 3.76h-.048zM31.472 12V3.136h-3.824V.576h11.024v2.56h-3.824V12h-3.376zm17.92 0h-9.2V.576h9.04v2.56h-5.744v1.84h5.04v2.56h-5.04V9.44h5.904V12zm5.024 0H51.12V.576h5.712c2.88 0 4.624 1.328 4.624 3.888 0 1.648-.848 2.736-2.08 3.344l2.4 4.192h-3.6L56.16 8.352h-1.744V12zm0-6.208h1.936c1.344 0 1.808-.448 1.808-1.328 0-.88-.464-1.328-1.808-1.328h-1.936v2.656zM63.024 12V.576H66.4V12h-3.376zM79.6 6.288c0 3.424-2.208 5.904-5.888 5.904-3.68 0-5.888-2.48-5.888-5.904S70.032.384 73.712.384c3.68 0 5.888 2.48 5.888 5.904zm-3.424 0c0-2.16-.816-3.36-2.464-3.36-1.648 0-2.464 1.2-2.464 3.36s.816 3.36 2.464 3.36c1.648 0 2.464-1.2 2.464-3.36zM88.832 12h-2.256l-2.48-7.216h-.032V12h-3.04V.592h4.496l2.304 6.816h.032L90.16.592h4.4V12h-3.232V4.784h-.032L88.832 12z" fill="#222" fill-rule="evenodd"/></svg>