<?xml version="1.0" encoding="UTF-8"?>
<svg width="95px" height="13px" viewBox="0 0 95 13" version="1.1" xmlns="http://www.w3.org/2000/svg" xmlns:xlink="http://www.w3.org/1999/xlink">
    <!-- Generator: Sketch 49.3 (51167) - http://www.bohemiancoding.com/sketch -->
    <title>MATERIOM</title>
    <desc>Created with Sketch.</desc>
    <defs></defs>
    <g id="Page-1" stroke="none" stroke-width="1" fill="none" fill-rule="evenodd">
        <g id="Recipe" transform="translate(-135.000000, -25.000000)" fill="#222222">
            <g id="nav" transform="translate(-10.000000, 21.000000)">
                <path d="M153.784,16 L151.528,16 L149.048,8.784 L149.016,8.784 L149.016,16 L145.976,16 L145.976,4.592 L150.472,4.592 L152.776,11.408 L152.808,11.408 L155.112,4.592 L159.512,4.592 L159.512,16 L156.28,16 L156.28,8.784 L156.248,8.784 L153.784,16 Z M169.928,16 L169.16,13.872 L164.6,13.872 L163.8,16 L160.52,16 L165.032,4.576 L168.824,4.576 L173.352,16 L169.928,16 Z M166.888,7.76 L165.544,11.328 L168.232,11.328 L166.936,7.76 L166.888,7.76 Z M176.472,16 L176.472,7.136 L172.648,7.136 L172.648,4.576 L183.672,4.576 L183.672,7.136 L179.848,7.136 L179.848,16 L176.472,16 Z M194.392,16 L185.192,16 L185.192,4.576 L194.232,4.576 L194.232,7.136 L188.488,7.136 L188.488,8.976 L193.528,8.976 L193.528,11.536 L188.488,11.536 L188.488,13.44 L194.392,13.44 L194.392,16 Z M199.416,16 L196.12,16 L196.12,4.576 L201.832,4.576 C204.712,4.576 206.456,5.904 206.456,8.464 C206.456,10.112 205.608,11.2 204.376,11.808 L206.776,16 L203.176,16 L201.16,12.352 L199.416,12.352 L199.416,16 Z M199.416,9.792 L201.352,9.792 C202.696,9.792 203.16,9.344 203.16,8.464 C203.16,7.584 202.696,7.136 201.352,7.136 L199.416,7.136 L199.416,9.792 Z M208.024,16 L208.024,4.576 L211.4,4.576 L211.4,16 L208.024,16 Z M224.6,10.288 C224.6,13.712 222.392,16.192 218.712,16.192 C215.032,16.192 212.824,13.712 212.824,10.288 C212.824,6.864 215.032,4.384 218.712,4.384 C222.392,4.384 224.6,6.864 224.6,10.288 Z M221.176,10.288 C221.176,8.128 220.36,6.928 218.712,6.928 C217.064,6.928 216.248,8.128 216.248,10.288 C216.248,12.448 217.064,13.648 218.712,13.648 C220.36,13.648 221.176,12.448 221.176,10.288 Z M233.832,16 L231.576,16 L229.096,8.784 L229.064,8.784 L229.064,16 L226.024,16 L226.024,4.592 L230.52,4.592 L232.824,11.408 L232.856,11.408 L235.16,4.592 L239.56,4.592 L239.56,16 L236.328,16 L236.328,8.784 L236.296,8.784 L233.832,16 Z" id="MATERIOM"></path>
            </g>
        </g>
    </g>
</svg>