<?xml version="1.0" encoding="utf-8"?>
<!-- Generator: Adobe Illustrator 22.1.0, SVG Export Plug-In . SVG Version: 6.00 Build 0)  -->
<svg version="1.1" id="Capa_1" xmlns="http://www.w3.org/2000/svg" xmlns:xlink="http://www.w3.org/1999/xlink" x="0px" y="0px"
	 viewBox="0 0 527.2 147.4" style="enable-background:new 0 0 527.2 147.4;" xml:space="preserve">
<style type="text/css">
	.st0{fill:#FFFFFF;}
</style>
<g>
	<path d="M507.4,111.8c0,4.4-3.1,6.8-7.6,6.8c-2.2,0-4.2-1.4-4.2-3.7c0-2.4,2.1-3.7,4.3-3.9l7.6-0.6V111.8z M517,123.3V118
		c0,0-0.5,0.1-0.9,0.1c-1.2,0-1.7-0.5-1.7-1.9v-11c0-2-0.1-4.1-0.9-6c-1.7-4.5-6.1-6.1-11.1-6.1c-6.6,0-11.9,3-12.3,9.7h6.9
		c0.2-2.7,2.1-4.2,5.4-4.2c4.1,0,5,1.9,5,4.7v1.8l-8.8,0.6c-5.7,0.4-10.1,3.7-10.1,9.3c0,4.9,3.7,9.3,10.7,9.3c4.2,0,7.7-2.1,9-4.5
		c0.2,2.2,1.9,4.2,5,4.2C515.2,124.1,515.8,123.8,517,123.3L517,123.3z M483,123.6v-19.8c0-6.2-3.7-10.6-10.1-10.6
		c-3.4,0-7,1.4-8.8,4.6l-0.5-3.8h-6v29.7h7.1v-12.1c0-2.5-0.1-5.6,1-7.9c1-2.2,2.6-3.8,5.1-3.8c3.8,0,4.9,2.1,4.9,5.6v18.2H483z
		 M444,108.8c0,2.8-0.4,5.6-2.1,7.5c-1,1-2.6,1.9-4.5,1.9c-1.9,0-3.5-0.9-4.5-1.9c-1.7-1.9-2.1-4.7-2.1-7.5c0-2.8,0.4-5.6,2.1-7.5
		c1-1,2.6-1.9,4.5-1.9c1.9,0,3.5,0.9,4.5,1.9C443.6,103.2,444,106,444,108.8 M451.2,108.8c0-5-1.3-8.2-3.5-11
		c-2.1-2.5-5.9-4.6-10.4-4.6c-4.5,0-8.3,2.1-10.4,4.6c-2.2,2.8-3.5,5.9-3.5,11c0,5,1.3,8.2,3.5,11c2.1,2.5,5.9,4.6,10.4,4.6
		c4.5,0,8.3-2.1,10.4-4.6C450,117,451.2,113.8,451.2,108.8 M420,123.6v-6c-0.4,0-0.6,0.1-1.2,0.1c-2.5,0-2.9-1.1-2.9-2.9V82.3h-7.2
		V116c0,5.7,3.3,8,8.1,8C418.3,124,418.6,123.9,420,123.6 M395.5,105.8h-12.9c0.1-1.9,0.5-3.3,1.5-4.6c1-1.4,2.8-2.3,5-2.3
		c2.1,0,3.5,0.7,4.5,1.7C394.8,101.9,395.4,103.6,395.5,105.8 M402.7,109c0.1-3.7-0.4-7.1-2.6-10.3c-2.5-3.7-6.5-5.5-10.9-5.5
		c-4.1,0-7.3,1.5-9.5,3.8c-2.9,2.9-4.3,7.2-4.3,11.9c0,4.9,1.6,9,4.6,11.9c2.3,2.2,5.3,3.7,9.4,3.7c3.8,0,7.5-1.2,10-4.2
		c1.1-1.4,2.3-3.7,2.5-5.5H395c-0.3,1.1-0.8,1.9-1.4,2.5c-1,1-2.3,1.4-4.3,1.4c-1.9,0-3.4-0.9-4.4-1.8c-1.4-1.4-2.2-3.5-2.2-5.8
		h19.9C402.6,110.4,402.7,109,402.7,109 M371.6,113.1h-7c-0.1,1.1-0.4,2-0.9,2.7c-0.9,1.3-2.4,2.2-4.6,2.2c-1.9,0-3.4-0.9-4.3-1.9
		c-1.7-1.9-2-4.7-2-7.5c0-2.8,0.3-5.7,2-7.5c1-1,2.4-1.8,4.3-1.8c2.2,0,3.7,0.9,4.6,2.2c0.5,0.7,0.8,1.7,0.9,2.7h7
		c-0.1-2.3-0.9-4.7-2.3-6.5c-2.1-2.6-5.7-4.7-10.2-4.7c-4.5,0-8.3,2.2-10.3,4.7c-2.2,2.8-3.3,6.5-3.3,10.9c0,4.3,1,8.1,3.3,10.9
		c2.1,2.5,5.8,4.7,10.3,4.7c4.5,0,8.1-2.1,10.2-4.7C370.6,117.8,371.4,115.5,371.6,113.1 M343.7,100.5v-6.9
		c-0.7-0.1-1.5-0.2-2.2-0.2c-3.5,0-7,1.4-8.4,4.9l-0.6-4.5h-6.1v29.7h7.2v-15c0-4.8,2.6-8.4,7.7-8.4
		C342.1,100.3,342.9,100.4,343.7,100.5 M311,111.8c0,4.4-3.1,6.8-7.6,6.8c-2.2,0-4.2-1.4-4.2-3.7c0-2.4,2.1-3.7,4.3-3.9l7.6-0.6
		V111.8z M320.6,123.3V118c0,0-0.5,0.1-0.9,0.1c-1.2,0-1.7-0.5-1.7-1.9v-11c0-2-0.1-4.1-0.9-6c-1.7-4.5-6.1-6.1-11.1-6.1
		c-6.6,0-11.9,3-12.3,9.7h6.9c0.2-2.7,2.1-4.2,5.4-4.2c4.1,0,5,1.9,5,4.7v1.8l-8.8,0.6c-5.7,0.4-10.1,3.7-10.1,9.3
		c0,4.9,3.7,9.3,10.7,9.3c4.2,0,7.7-2.1,9-4.5c0.2,2.2,1.9,4.2,5,4.2C318.7,124.1,319.4,123.8,320.6,123.3L320.6,123.3z
		 M280.9,111.7c0,4.1-3.7,5.3-7.1,5.3h-9.1v-11.2h9.3C277.9,105.8,280.9,107.3,280.9,111.7 M280.1,94.6c0,3.8-2.8,5-6.1,5h-9.3V89.4
		h9.1C277.1,89.4,280.1,90.7,280.1,94.6 M288.4,111.8c0-3.8-2-7.3-5.8-9.1c3.4-1.5,5-5.3,5-8.6c0-3.5-1.7-6.9-4.7-8.8
		c-2.7-1.8-6.1-2.2-9.4-2.2h-16.1v40.5h16.1c3.9,0,7.7-0.3,10.8-2.7C287.2,118.7,288.4,115.4,288.4,111.8 M232.1,105.8h-12.9
		c0.1-1.9,0.5-3.3,1.5-4.6c1-1.4,2.8-2.3,5-2.3c2.1,0,3.5,0.7,4.5,1.7C231.4,101.9,232.1,103.6,232.1,105.8 M239.3,109
		c0.1-3.7-0.4-7.1-2.6-10.3c-2.5-3.7-6.5-5.5-10.9-5.5c-4.1,0-7.3,1.5-9.5,3.8c-2.9,2.9-4.3,7.2-4.3,11.9c0,4.9,1.6,9,4.6,11.9
		c2.3,2.2,5.3,3.7,9.4,3.7c3.8,0,7.5-1.2,10-4.2c1.1-1.4,2.3-3.7,2.5-5.5h-6.9c-0.3,1.1-0.8,1.9-1.4,2.5c-1,1-2.3,1.4-4.3,1.4
		c-1.9,0-3.4-0.9-4.4-1.8c-1.4-1.4-2.2-3.5-2.2-5.8h19.9C239.2,110.4,239.3,109,239.3,109 M198.8,108.7c0,4.3-1.1,9.6-6.8,9.6
		c-2.2,0-3.8-1-4.8-2.3c-1.5-1.9-1.9-4.7-1.9-7.3c0-2.6,0.4-5.3,1.9-7.2c1-1.3,2.6-2.3,4.8-2.3C197.6,99.2,198.8,104.4,198.8,108.7
		 M205.6,123.6V82.4h-7.1V96c-1.3-1.5-4-2.8-7.8-2.8c-3,0-5.4,0.9-7.3,2.4c-3.5,2.9-5.3,7.4-5.3,13.3c0,5.6,1.7,10.1,5.3,13
		c1.8,1.5,4.3,2.5,7.3,2.5c3.3,0,6.6-1.2,8.4-3.9l0.5,3.3H205.6z"/>
	<path d="M485.8,65.7v-6c-1.9,0.2-3.1,0.3-4.6,0.3c-2.3,0-3.3-1-3.3-3.3V42.3h7.5v-5.9h-7.5v-9.3l-7.1,1.8v7.5h-5.4v5.9h5.4v15.1
		c0,5.7,3,9.1,9,9.1C481.8,66.5,483.8,66.2,485.8,65.7 M461,66.1V46.3c0-6.2-3.7-10.6-10.1-10.6c-3.4,0-7,1.4-8.8,4.6l-0.5-3.8h-6
		v29.7h7.1V54c0-2.5-0.1-5.6,1-7.9c1-2.2,2.6-3.8,5.2-3.8c3.8,0,4.9,2.1,4.9,5.6v18.2H461z M422.2,48.3h-12.9
		c0.1-1.9,0.5-3.3,1.5-4.6c1-1.4,2.8-2.3,5-2.3c2.1,0,3.5,0.7,4.5,1.7C421.5,44.3,422.1,46.1,422.2,48.3 M429.3,51.5
		c0.1-3.7-0.4-7.1-2.6-10.3c-2.5-3.7-6.5-5.5-10.9-5.5c-4.1,0-7.3,1.5-9.5,3.8c-2.9,2.9-4.3,7.1-4.3,11.9c0,4.9,1.6,9,4.6,11.9
		c2.3,2.2,5.3,3.7,9.4,3.7c3.8,0,7.5-1.2,10-4.2c1.1-1.4,2.3-3.7,2.5-5.5h-6.9c-0.3,1.1-0.8,1.9-1.4,2.5c-1,1-2.3,1.4-4.3,1.4
		c-1.9,0-3.4-0.9-4.4-1.8c-1.4-1.4-2.2-3.5-2.2-5.8h19.9C429.3,52.9,429.3,51.5,429.3,51.5 M396.1,66.1V46.1
		c0-6.2-3.3-10.4-9.7-10.4c-4,0-7.2,1.8-9,4.9c-1.5-3-4.3-4.9-8.5-4.9c-3.9,0-6.8,1.9-8.5,4.7l-0.6-3.9H354v29.7h7.1V49.9
		c0-3.7,1.8-8,5.9-8c3.6,0,4.6,2.1,4.6,5.8v18.5h7.1V49.9c0-3.7,1.8-8,5.8-8c3.6,0,4.6,2.1,4.6,5.8v18.5H396.1z M338.6,54.3
		c0,4.4-3.1,6.8-7.6,6.8c-2.2,0-4.2-1.4-4.2-3.7c0-2.4,2.1-3.7,4.3-3.9l7.6-0.6V54.3z M348.2,65.8v-5.3c0,0-0.5,0.1-0.9,0.1
		c-1.2,0-1.7-0.5-1.7-1.9v-11c0-2-0.1-4.1-0.9-6c-1.7-4.5-6.1-6.1-11.1-6.1c-6.6,0-11.9,3-12.3,9.7h6.9c0.2-2.7,2.1-4.2,5.4-4.2
		c4.1,0,5,1.9,5,4.7v1.8l-8.8,0.6c-5.7,0.4-10.1,3.7-10.1,9.3c0,4.9,3.7,9.3,10.7,9.3c4.2,0,7.7-2.1,9-4.5c0.2,2.2,1.9,4.2,5,4.2
		C346.3,66.6,347,66.3,348.2,65.8L348.2,65.8z M316.6,65.7v-6c-1.9,0.2-3.1,0.3-4.6,0.3c-2.3,0-3.3-1-3.3-3.3V42.3h7.5v-5.9h-7.5
		v-9.3l-7.1,1.8v7.5h-5.4v5.9h5.4v15.1c0,5.7,3,9.1,9,9.1C312.6,66.5,314.6,66.2,316.6,65.7 M291.7,66.1V46.3
		c0-6.2-3.7-10.6-10.1-10.6c-3.4,0-7,1.4-8.8,4.6l-0.5-3.8h-6v29.7h7.1V54c0-2.5-0.1-5.6,1-7.9c1-2.2,2.6-3.8,5.1-3.8
		c3.8,0,4.9,2.1,4.9,5.6v18.2H291.7z M257.9,66.1V36.4h-7.1v15.7c0,2.4-0.5,5.1-2.2,6.7c-0.9,0.9-2,1.5-3.7,1.5
		c-3.8,0-5.1-2.2-5.1-5.7V36.4h-7.1v19.8c0,6.3,3.9,10.6,10.3,10.6c3.8,0,7.1-1.7,8.5-4.6l0.5,3.9H257.9z M224.5,70.3V36.4h-7.2
		v32.5c0,2-1.2,3.2-3.4,3.2c-1.1,0-1.4-0.1-3.5-0.3v6.1c1.3,0.3,2.3,0.5,3.3,0.6c0.9,0.1,1.7,0.1,2.5,0.1
		C221.5,78.5,224.5,75.3,224.5,70.3 M224.7,24.8H217v7.4h7.7V24.8z M199.6,51.7H188l5.8-17.1L199.6,51.7z M212.2,66.1L198,25.6h-8.1
		l-14.2,40.5h7.4l2.6-7.8h16.1l2.6,7.8H212.2z"/>
	<path d="M123.1,5.5c13.3,0,24.2,10.8,24.2,24.2l0,88c0,13.3-10.8,24.1-24.2,24.1h-88c-13.3,0-24.2-10.8-24.2-24.1l0-88
		c0-13.3,10.8-24.2,24.2-24.2H123.1z"/>
	<path class="st0" d="M78.2,34.3c0-0.6,0.4-1.1,1-1.5c0.6,0.4,1,0.9,1,1.5c0,0.6-0.4,1.1-1,1.5C78.5,35.4,78.2,34.9,78.2,34.3
		 M79.9,37.3c-0.5-0.3-0.8-0.9-0.8-1.6c0.6-0.3,1.2-0.4,1.8-0.1c0.5,0.3,0.8,0.9,0.8,1.6C81.1,37.6,80.4,37.6,79.9,37.3 M78.3,37.3
		c0.5-0.3,0.8-0.9,0.8-1.6c-0.6-0.3-1.2-0.4-1.7-0.1c-0.5,0.3-0.8,0.9-0.8,1.6C77.2,37.6,77.8,37.6,78.3,37.3 M84.9,34.8
		c0.1-0.6,0.6-1,1.2-1.2c0.5,0.5,0.7,1.1,0.6,1.6c-0.1,0.6-0.6,1-1.2,1.2C85,36,84.8,35.4,84.9,34.8 M86,38.1
		c-0.4-0.4-0.6-1-0.5-1.7c0.7-0.2,1.3-0.1,1.7,0.3c0.4,0.4,0.6,1,0.4,1.7C87,38.6,86.4,38.5,86,38.1 M84.4,37.8
		c0.6-0.2,0.9-0.7,1.1-1.4C85,36,84.4,35.8,83.8,36c-0.6,0.2-0.9,0.7-1.1,1.4C83.3,37.8,83.9,38,84.4,37.8 M91.4,36.7
		c0.3-0.5,0.8-0.9,1.5-0.9c0.4,0.6,0.5,1.2,0.3,1.7c-0.2,0.5-0.8,0.9-1.5,0.9C91.3,37.8,91.1,37.2,91.4,36.7 M90.3,39.5
		c0.6-0.1,1.1-0.5,1.4-1.1c-0.4-0.5-1-0.9-1.6-0.8c-0.6,0.1-1,0.5-1.3,1.1C89.2,39.3,89.7,39.6,90.3,39.5 M73.2,34.8
		c-0.1-0.6-0.6-1-1.2-1.2c-0.5,0.5-0.8,1.1-0.6,1.6c0.1,0.6,0.6,1,1.2,1.2C73.1,36,73.4,35.4,73.2,34.8 M72.1,38.1
		c0.4-0.4,0.6-1,0.5-1.7c-0.7-0.2-1.3-0.1-1.7,0.3c-0.4,0.4-0.6,1-0.5,1.7C71.1,38.6,71.7,38.5,72.1,38.1 M73.7,37.8
		c-0.6-0.2-0.9-0.7-1.1-1.4c0.5-0.4,1.1-0.6,1.7-0.5c0.6,0.2,0.9,0.7,1.1,1.4C74.9,37.8,74.3,38,73.7,37.8 M66.7,36.7
		c-0.2-0.5-0.8-0.9-1.5-0.9c-0.4,0.6-0.5,1.2-0.3,1.7c0.2,0.5,0.8,0.9,1.5,0.9C66.8,37.8,67,37.2,66.7,36.7 M67.8,39.5
		c-0.6-0.1-1.1-0.5-1.4-1.1c0.4-0.5,1-0.9,1.6-0.8c0.6,0.1,1.1,0.5,1.4,1.1C68.9,39.3,68.4,39.6,67.8,39.5 M77.5,21.9
		c0-0.9,0.7-1.6,1.6-1.6c0.9,0,1.6,0.7,1.6,1.6c0,0.9-0.7,1.6-1.6,1.6C78.2,23.5,77.5,22.8,77.5,21.9 M67.8,41.4l1.3,1.9
		c2.9-1.3,6.4-2.2,10-2.2c3.7,0,7.1,0.9,10,2.2l1.3-1.9c-3.3-1.6-7.1-2.5-11.3-2.5C75,38.9,71.1,39.8,67.8,41.4 M69.9,29.2
		C69.4,29.1,69,29,68.5,29c-2.1,0-3.7,1.3-3.7,2.8c0,0.7,0.4,1.4,1,1.9l-1.6,1.6c-1-0.9-1.6-2.1-1.6-3.5c0-2.8,2.7-5.1,6-5.1
		c0.8,0,1.7,0.2,2.4,0.4c1.1-1.3,2.9-2.1,4.8-2.1c1.2,0,2.4,0.3,3.3,0.8c1-0.5,2.1-0.8,3.3-0.8c2,0,3.8,0.8,4.8,2.1
		c0.7-0.3,1.6-0.4,2.5-0.4c3.3,0,6,2.3,6,5.1c0,1.3-0.6,2.6-1.7,3.5l-1.6-1.6c0.6-0.5,1-1.2,1-1.9c0-1.5-1.7-2.8-3.7-2.8
		c-0.5,0-0.9,0.1-1.4,0.2c0.1,0.3,0.1,0.6,0.1,0.9c0,1-0.3,2-0.9,2.8l-1.7-1.7c0.2-0.3,0.3-0.7,0.3-1.1c0-1.6-1.6-2.8-3.7-2.8
		c-0.8,0-1.5,0.2-2.1,0.5v3.3H78v-3.3c-0.6-0.4-1.4-0.6-2.2-0.6c-2,0-3.7,1.2-3.7,2.8c0,0.4,0.1,0.7,0.3,1.1l-1.7,1.7
		c-0.6-0.8-0.9-1.8-0.9-2.8C69.8,29.8,69.8,29.5,69.9,29.2 M77.6,122.1c0-0.8,0.7-1.5,1.5-1.5c0.8,0,1.5,0.7,1.5,1.5
		c0,0.8-0.7,1.5-1.5,1.5C78.3,123.6,77.6,123,77.6,122.1 M37.4,82c0-0.8,0.7-1.5,1.5-1.5c0.8,0,1.5,0.7,1.5,1.5
		c0,0.8-0.7,1.5-1.5,1.5C38.1,83.5,37.4,82.8,37.4,82 M117.7,82c0-0.8,0.7-1.5,1.5-1.5c0.8,0,1.5,0.7,1.5,1.5c0,0.8-0.7,1.5-1.5,1.5
		C118.4,83.5,117.7,82.8,117.7,82 M78.6,81.5h-7.4v-9.2h7.4V81.5z M71.2,56.1l7.4-7.3v19.9h-7.4V56.1z M45.8,81.5l21.7-21.7v8.9
		h-8.9L55,72.3h12.5v9.2H45.8z M112.4,82.5L87,107.9l-7.4,7.3V95.3H87v12.6l3.7-3.7v-8.9h8.9l3.7-3.7H90.7v-9.2H112.4z M79.6,82.5
		H87v9.2h-7.4V82.5z M74.9,111.6V82.5h3.7v32.7L74.9,111.6z M67.5,104.2V82.5h3.7v25.4L67.5,104.2z M60.2,96.9V82.5h3.7v18
		L60.2,96.9z M52.8,89.5v-7h3.7v10.7L52.8,89.5z M45.8,82.5h3.3v3.3L45.8,82.5z M83.3,52.4v29.1h-3.7V48.7L83.3,52.4z M90.6,59.8
		v21.7H87V56.1L90.6,59.8z M98,67.1v14.4h-3.7v-18L98,67.1z M105.3,74.5v7h-3.7V70.8L105.3,74.5z M112.4,81.5H109v-3.3L112.4,81.5z
		 M115.9,82c0,0-4.1,7.3-16.6,19.8c-12.7,12.7-20.2,17-20.2,17s-7.3-4-19.8-16.6C46.5,89.5,42.3,82,42.3,82s4.1-7.3,16.6-19.8
		c12.7-12.7,20.2-17,20.2-17s7.3,4,19.8,16.6C111.6,74.5,115.9,82,115.9,82 M79.1,118.3L115.4,82L79.1,45.7L42.8,82L79.1,118.3z
		 M115.9,82c0,0-4.1,7.3-16.6,19.8c-12.7,12.7-20.2,17-20.2,17s-7.3-4-19.8-16.6C46.5,89.5,42.3,82,42.3,82s4.1-7.3,16.6-19.8
		c12.7-12.7,20.2-17,20.2-17s7.3,4,19.8,16.6C111.6,74.5,115.9,82,115.9,82 M79.1,118.3L115.4,82L79.1,45.7L42.8,82L79.1,118.3z"/>
</g>
</svg>
