<?xml version="1.0" encoding="utf-8"?>
<!-- Generator: Adobe Illustrator 22.1.0, SVG Export Plug-In . SVG Version: 6.00 Build 0)  -->
<svg version="1.1" id="Layer_1" xmlns="http://www.w3.org/2000/svg" xmlns:xlink="http://www.w3.org/1999/xlink" x="0px" y="0px"
	 viewBox="0 0 113.1 113.1" style="enable-background:new 0 0 113.1 113.1;" xml:space="preserve">
<style type="text/css">
	.st0{fill:#FFFFFF;}
</style>
<title>Artboard 1</title>
<g>
	<path class="st0" d="M42.2,54.1v2.4c0,0.2,0.2,0.4,0.4,0.4h4.9c0.2,0,0.4,0.2,0.4,0.4V59c0,0.2-0.2,0.4-0.4,0.4h-4.9
		c-0.2,0-0.4,0.2-0.4,0.4v4.3c0,0.2-0.2,0.4-0.4,0.4h-1.9c-0.2,0-0.4-0.2-0.4-0.4V51.6c0-0.2,0.2-0.4,0.4-0.4h8.7
		c0.2,0,0.4,0.2,0.4,0.4v1.7c0,0.2-0.2,0.4-0.4,0.4h-5.9C42.4,53.7,42.2,53.9,42.2,54.1"/>
	<path class="st0" d="M55.4,58.5h2.2c0.2,0,0.4-0.2,0.4-0.4c0-0.1,0-0.1,0-0.2l-1.4-3.6h-0.1L55,57.9c-0.1,0.2,0,0.5,0.2,0.5
		C55.3,58.5,55.3,58.5,55.4,58.5 M62,61.2v3c0,0.2-0.2,0.4-0.4,0.4h-1.9c-0.2,0-0.4-0.2-0.4-0.4v-2.6l-0.2-0.6H54l-0.2,0.6v2.6
		c0,0.2-0.2,0.4-0.4,0.4h-2c-0.2,0-0.4-0.2-0.4-0.4v-3c0,0,0-0.1,0-0.1l4-9.6c0.1-0.2,0.2-0.3,0.4-0.3h2.3c0.2,0,0.3,0.1,0.4,0.3
		l4,9.6C62,61.1,62,61.1,62,61.2"/>
	<path class="st0" d="M70.3,62c0.9,0,1.2-0.3,1.2-1.1v-0.9c0-0.7-0.3-1.1-1.2-1.1h-2.6c-0.2,0-0.4,0.2-0.4,0.4v2.2
		c0,0.2,0.2,0.4,0.4,0.4L70.3,62z M70.3,56.5c0.9,0,1.2-0.4,1.2-1.1v-0.7c0-0.7-0.3-1-1.2-1h-2.6c-0.2,0-0.4,0.2-0.4,0.4v2
		c0,0.2,0.2,0.4,0.4,0.4L70.3,56.5z M64.5,51.6c0-0.2,0.2-0.4,0.4-0.4h5.7c2.2,0,3.6,0.9,3.6,3.1v1.2c0,0.8-0.3,1.5-0.9,2
		c-0.2,0.1-0.2,0.4-0.1,0.5c0,0,0.1,0.1,0.1,0.1c0.6,0.5,1,1.2,0.9,2v1.4c0,2.2-1.3,3.1-3.6,3.1H65c-0.2,0-0.4-0.2-0.4-0.4
		L64.5,51.6z"/>
	<path class="st0" d="M44.1,67.7h-2.7c-1.6,0-2.3,0.7-2.3,2.2v6c0,1.5,0.7,2.2,2.3,2.2h2.7c1.6,0,2.3-0.7,2.3-2.2v-0.6l-1.3-0.4v0.9
		c0,0.8-0.2,1-1.1,1h-2.4c-1,0-1.1-0.3-1.1-1V70c0-0.8,0.2-1.1,1.1-1.1H44c1,0,1.1,0.2,1.1,1.1v0.8l1.3-0.4v-0.6
		C46.5,68.4,45.7,67.7,44.1,67.7"/>
	<path class="st0" d="M52.6,76.6v-7.4c0-0.1,0.1-0.2,0.2-0.2c0,0,0,0,0,0h2.5v-1.2h-6.8V69h2.5c0.1,0,0.2,0.1,0.2,0.2v7.4
		c0,0.1-0.1,0.2-0.2,0.2h-2.7v1.3h7.1v-1.3h-2.7C52.7,76.8,52.6,76.7,52.6,76.6"/>
	<path class="st0" d="M57,69h3.3c0.1,0,0.2,0.1,0.2,0.2v8.9h1.3v-8.9c0-0.1,0.1-0.2,0.2-0.2h3.3v-1.3H57V69z"/>
	<path class="st0" d="M72.9,67.7V70c0,0.1,0,0.1-0.1,0.2l-2.3,2.2c-0.1,0.1-0.2,0.1-0.3,0l-2.3-2.2c0,0-0.1-0.1-0.1-0.2v-2.3h-1.3
		v2.6c0,0.2,0.1,0.4,0.2,0.5l2.9,2.7c0,0,0.1,0.1,0.1,0.2v4.4H71v-4.4c0-0.1,0-0.1,0.1-0.2l2.9-2.7c0.1-0.1,0.2-0.3,0.2-0.5v-2.6
		H72.9z"/>
</g>
<polygon class="st0" points="30.2,49.3 30.2,48.2 27.6,48.2 27.6,50.8 "/>
<g>
	<path class="st0" d="M31.4,80.3c-0.7-0.4-1.1-1.2-1.1-2V52.5L27.6,54v24.3c0,1.8,0.9,3.4,2.5,4.3l26,15.1l1.3-2.3L31.4,80.3z"/>
</g>
<polygon class="st0" points="27.6,47.8 27.6,48.5 30.2,48.5 30.2,46.3 "/>
<g>
	<path class="st0" d="M83,14.5L59,0.7c-1.5-0.9-3.5-0.9-5,0L30,14.5c-1.5,0.9-2.5,2.5-2.5,4.3v25.9l2.6-1.5V18.8
		c0-0.8,0.4-1.6,1.2-2L55.4,3c0.7-0.4,1.6-0.4,2.3,0l24,13.8c0.7,0.4,1.2,1.2,1.2,2v30h2.7V18.8C85.5,17,84.5,15.4,83,14.5"/>
	<path class="st0" d="M51,98l-21,12.2c-0.7,0.4-1.6,0.4-2.3,0l-24-13.8c-0.7-0.4-1.2-1.2-1.2-2V66.6c0-0.8,0.4-1.6,1.2-2l26.1-15
		l-1.3-2.3l-26,15C0.9,63.2,0,64.8,0,66.6v27.7c0,1.8,0.9,3.4,2.5,4.3l24,13.8c1.5,0.9,3.5,0.9,5,0l22.2-12.9L51,98z"/>
</g>
<polygon class="st0" points="56.4,94.8 53.7,96.4 56.4,97.9 58.5,96.7 59,96.4 "/>
<g>
	<path class="st0" d="M85.4,47.4h-2.6v30.9c0,0.8-0.4,1.6-1.2,2l-22.5,13l2.7,1.5L83,82.6c1.5-0.9,2.5-2.5,2.5-4.3L85.4,47.4z"/>
	<path class="st0" d="M110.6,62.3L88.2,49.4v3l21.1,12.1c0.7,0.4,1.2,1.2,1.2,2v27.7c0,0.8-0.4,1.6-1.2,2l-24,13.8
		c-0.7,0.4-1.6,0.4-2.3,0L55.8,94.5l-1.3,2.3l27.2,15.6c1.5,0.9,3.5,0.9,5,0l24-13.8c1.5-0.9,2.5-2.5,2.5-4.3V66.6
		C113.1,64.8,112.2,63.2,110.6,62.3"/>
</g>
<polygon class="st0" points="82.8,46.3 82.8,49.4 85.4,50.9 85.4,47.9 "/>
<polygon class="st0" points="80.1,44.8 79.5,44.5 78.2,46.7 80.1,47.8 "/>
<g>
	<path class="st0" d="M80.1,44.8L59,32.5c-1.5-0.9-3.5-0.9-5,0L30.3,46.2l0,0l-2.3,1.3l1.3,2.3l2-1.2l0,0l24-13.8
		c0.7-0.4,1.6-0.4,2.3,0l21.7,12.6l0.7-1.2V44.8z"/>
</g>
</svg>
