<?xml version="1.0" encoding="utf-8"?>
<!-- Generator: Adobe Illustrator 22.0.1, SVG Export Plug-In . SVG Version: 6.00 Build 0)  -->
<svg version="1.1" id="Capa_1" xmlns="http://www.w3.org/2000/svg" xmlns:xlink="http://www.w3.org/1999/xlink" x="0px" y="0px"
	 viewBox="0 0 48 47" style="enable-background:new 0 0 48 47;" xml:space="preserve">
<g>
	<path d="M23,46.3v-1.9c0-0.3,0-0.3-0.3-0.3l-4.2-2.5l-0.3-0.3V36c0.3,0,0.3,0,0.6-0.3c2.7-1.6,3.3-5.9,0.9-10
		c-2.4-3.7-6.5-5.9-9.2-4.4c-3,1.6-3.3,5.9-0.9,10c0.3,0.6,0.6,1.2,1.2,1.6v0.3v3.4c0,0.3-0.3,0.6-0.6,0.3l-5-2.8l-0.3-0.3V13.9
		c0-0.3,0-0.3-0.3-0.3L3.5,13c-0.3-0.3-0.6,0-0.9,0c-1.5,3.1-2.4,6.5-2.4,10.3C0.2,35.7,10.3,46,23,46.3"/>
	<path d="M10.6,9.6c0,0,0.3,0,0.6,0l4.7,2.8c0,0.3,0,0.3,0,0.6c0,3.1,3.9,5.6,8.6,5.6s8.6-2.5,8.6-5.6s-3.9-5.6-8.6-5.6
		c-0.6,0-1.2,0-2.1,0h-0.3l-3-1.6c-0.3-0.3-0.3-0.6,0-0.9l4.7-2.8c0,0,0.3,0,0.6,0l17.8,10c0,0,0.3,0,0.6,0l1.2-0.6
		c0.3,0,0.3-0.3,0.3-0.6c-2.1-2.8-4.7-5.3-8-7.2C25.1-2.9,11.2,0.5,4,10.5c-0.3,0.3,0,0.6,0.3,0.6l1.2,0.6c0,0,0.3,0,0.6,0L10.6,9.6
		z"/>
	<path d="M43.5,18.9c0,0.3,0,0.3-0.3,0.3L38.5,22c-0.3,0-0.3-0.3-0.6-0.3c-2.7-1.6-6.8,0.3-9.2,4.4c-2.4,4-2.1,8.4,0.6,10
		s6.8-0.3,9.2-4.4c0.3-0.6,0.6-1.2,0.9-1.6c0,0,0-0.3,0.3-0.3l3-1.6c0.3-0.3,0.6,0,0.6,0.3v5.6c0,0.3,0,0.3-0.3,0.3l-17.8,10
		l-0.3,0.3v1.6c0,0.3,0.3,0.6,0.6,0.3c3.6-0.3,7.1-1.2,10.4-3.1c11-6.2,15.1-19.3,9.5-30.2c0-0.3-0.3-0.3-0.6-0.3l-1.5,0.6l-0.3,0.3
		L43.5,18.9z"/>
</g>
</svg>
